STARTFONT 2.3
FONT -FontForge-Bungee Shade-Book-R-Normal--12-120-72-72-P-102-ISO10646-1
SIZE 12 72 72  2
FONTBOUNDINGBOX 31 31 -7 -11
COMMENT "Generated by fontforge, http://fontforge.sourceforge.net"
COMMENT "Copyright 2008 The Bungee Project Authors (david@djr.com)"
STARTPROPERTIES 40
FOUNDRY "FontForge"
FAMILY_NAME "Bungee Shade"
WEIGHT_NAME "Book"
SLANT "R"
SETWIDTH_NAME "Normal"
ADD_STYLE_NAME ""
PIXEL_SIZE 12
POINT_SIZE 120
RESOLUTION_X 72
RESOLUTION_Y 72
SPACING "P"
AVERAGE_WIDTH 102
CHARSET_REGISTRY "ISO10646"
CHARSET_ENCODING "1"
FONTNAME_REGISTRY ""
CHARSET_COLLECTIONS "ISO8859-2 ISO8859-9 ISO8859-4 ISO10646-1"
BITS_PER_PIXEL 2
FONT_NAME "BungeeShade-Regular"
FACE_NAME "Bungee Shade"
COPYRIGHT "Copyright 2008 The Bungee Project Authors (david@djr.com)"
FONT_VERSION "1.000;PS 1.0;hotconv 1.0.72;makeotf.lib2.5.5900"
FONT_ASCENT 10
FONT_DESCENT 2
UNDERLINE_POSITION 0
UNDERLINE_THICKNESS 0
X_HEIGHT 8
CAP_HEIGHT 8
RAW_ASCENT 860
RAW_DESCENT 140
NORM_SPACE 4
RELATIVE_WEIGHT 40
RELATIVE_SETWIDTH 50
SUPERSCRIPT_X 0
SUPERSCRIPT_Y 4
SUPERSCRIPT_SIZE 7
SUBSCRIPT_X 0
SUBSCRIPT_Y 0
SUBSCRIPT_SIZE 7
AVG_LOWERCASE_WIDTH 97
AVG_UPPERCASE_WIDTH 99
ENDPROPERTIES
CHARS 1065
STARTCHAR space
ENCODING 32
SWIDTH 325 0
DWIDTH 4 0
BBX 1 1 0 0
BITMAP
00
ENDCHAR
STARTCHAR exclam
ENCODING 33
SWIDTH 524 0
DWIDTH 6 0
BBX 6 10 0 -1
BITMAP
1400
7400
7400
7400
7800
3800
3A40
3400
7950
7F40
ENDCHAR
STARTCHAR quotedbl
ENCODING 34
SWIDTH 746 0
DWIDTH 9 0
BBX 9 7 0 2
BITMAP
106040
B02000
B06000
B06000
B47000
BFFE00
145400
ENDCHAR
STARTCHAR numbersign
ENCODING 35
SWIDTH 850 0
DWIDTH 10 0
BBX 10 10 0 -1
BITMAP
011500
091810
344100
781450
781400
610100
F00000
F87040
79B500
3DB800
ENDCHAR
STARTCHAR dollar
ENCODING 36
SWIDTH 750 0
DWIDTH 9 0
BBX 8 14 0 -3
BITMAP
0040
0300
0900
3010
B03E
B000
B400
7FA0
2000
7010
B501
BF44
0BE0
0140
ENDCHAR
STARTCHAR percent
ENCODING 37
SWIDTH 1131 0
DWIDTH 14 0
BBX 13 10 0 -1
BITMAP
05551000
614D0000
B1480000
B0080000
B5584000
7FB48600
1570C600
00A0C000
00FAE540
00F9FD00
ENDCHAR
STARTCHAR ampersand
ENCODING 38
SWIDTH 866 0
DWIDTH 10 0
BBX 9 10 0 -1
BITMAP
000100
180000
382E00
380400
300800
B07C00
B00000
B00000
BD5540
2FFD00
ENDCHAR
STARTCHAR quotesingle
ENCODING 39
SWIDTH 456 0
DWIDTH 5 0
BBX 5 7 0 2
BITMAP
1400
7000
B000
B000
B440
BF40
1400
ENDCHAR
STARTCHAR parenleft
ENCODING 40
SWIDTH 529 0
DWIDTH 6 0
BBX 6 13 0 -3
BITMAP
0400
3000
B010
B000
B000
B000
B000
B000
B000
B400
BD10
3FD0
0500
ENDCHAR
STARTCHAR parenright
ENCODING 41
SWIDTH 529 0
DWIDTH 6 0
BBX 5 13 0 -3
BITMAP
6000
B000
BC00
6D00
1D00
1D00
1D00
1C00
2000
7000
B140
BE00
5400
ENDCHAR
STARTCHAR asterisk
ENCODING 42
SWIDTH 818 0
DWIDTH 10 0
BBX 10 9 0 0
BITMAP
004400
068000
144000
341010
7F0180
181000
1D3400
2FB800
051000
ENDCHAR
STARTCHAR plus
ENCODING 43
SWIDTH 834 0
DWIDTH 10 0
BBX 9 9 0 -1
BITMAP
018000
038000
064000
241000
740000
7F8380
178500
03F400
014000
ENDCHAR
STARTCHAR comma
ENCODING 44
SWIDTH 484 0
DWIDTH 6 0
BBX 4 6 0 -3
BITMAP
30
B0
B9
74
7E
64
ENDCHAR
STARTCHAR hyphen
ENCODING 45
SWIDTH 520 0
DWIDTH 6 0
BBX 6 4 0 1
BITMAP
6000
B010
BFD0
5500
ENDCHAR
STARTCHAR period
ENCODING 46
SWIDTH 484 0
DWIDTH 6 0
BBX 5 4 0 -1
BITMAP
7000
B000
B540
BF40
ENDCHAR
STARTCHAR slash
ENCODING 47
SWIDTH 487 0
DWIDTH 6 0
BBX 4 14 0 -3
BITMAP
01
08
2C
28
28
38
34
74
70
B0
A0
A0
FD
54
ENDCHAR
STARTCHAR zero
ENCODING 48
SWIDTH 827 0
DWIDTH 10 0
BBX 9 10 0 -1
BITMAP
005500
140000
703800
B07800
B03800
B03800
B01400
B40000
7E9640
1BF800
ENDCHAR
STARTCHAR one
ENCODING 49
SWIDTH 701 0
DWIDTH 8 0
BBX 8 10 0 -1
BITMAP
1400
7400
7900
7E00
0E00
0E00
0900
7010
B555
BFFD
ENDCHAR
STARTCHAR two
ENCODING 50
SWIDTH 739 0
DWIDTH 9 0
BBX 9 10 0 -1
BITMAP
140000
755000
7FD000
190000
200000
701400
B06400
B00000
B55540
BFFD00
ENDCHAR
STARTCHAR three
ENCODING 51
SWIDTH 737 0
DWIDTH 9 0
BBX 8 10 0 -1
BITMAP
1000
B000
BFC0
5C01
2C04
2FE0
2000
7000
B555
BFF4
ENDCHAR
STARTCHAR four
ENCODING 52
SWIDTH 809 0
DWIDTH 10 0
BBX 9 10 0 -1
BITMAP
145400
703400
B03400
B03400
B01000
B40100
790000
3FF400
05B940
007E00
ENDCHAR
STARTCHAR five
ENCODING 53
SWIDTH 747 0
DWIDTH 9 0
BBX 8 10 0 -1
BITMAP
1400
7000
B02A
B000
B404
BFE0
7400
7000
B555
BFF4
ENDCHAR
STARTCHAR six
ENCODING 54
SWIDTH 793 0
DWIDTH 10 0
BBX 8 10 0 -1
BITMAP
0054
1400
702A
B000
B000
B074
B024
B400
7E55
1BF8
ENDCHAR
STARTCHAR seven
ENCODING 55
SWIDTH 727 0
DWIDTH 9 0
BBX 8 10 0 -1
BITMAP
2000
B154
BFE0
5540
0400
1805
3814
3800
3D40
3F40
ENDCHAR
STARTCHAR eight
ENCODING 56
SWIDTH 811 0
DWIDTH 10 0
BBX 9 10 0 -1
BITMAP
005500
180000
383400
385440
300000
707800
B02400
B40000
7E5640
1FF800
ENDCHAR
STARTCHAR nine
ENCODING 57
SWIDTH 793 0
DWIDTH 10 0
BBX 8 10 0 -1
BITMAP
0155
2000
7074
B021
B801
BFA4
1C00
2C00
2D55
2FF8
ENDCHAR
STARTCHAR colon
ENCODING 58
SWIDTH 484 0
DWIDTH 6 0
BBX 5 9 0 -1
BITMAP
2000
B000
B000
B540
7A40
7000
B000
B540
BF40
ENDCHAR
STARTCHAR semicolon
ENCODING 59
SWIDTH 484 0
DWIDTH 6 0
BBX 5 10 0 -3
BITMAP
7000
B000
B540
BA40
3000
B000
B900
7400
7E00
6400
ENDCHAR
STARTCHAR less
ENCODING 60
SWIDTH 814 0
DWIDTH 10 0
BBX 9 9 0 -1
BITMAP
000040
000000
140140
342E00
740400
780000
3FA400
06FF40
001900
ENDCHAR
STARTCHAR equal
ENCODING 61
SWIDTH 834 0
DWIDTH 10 0
BBX 9 9 0 -1
BITMAP
040000
240000
740000
7AAA40
295500
340000
740000
7FFF80
155500
ENDCHAR
STARTCHAR greater
ENCODING 62
SWIDTH 814 0
DWIDTH 10 0
BBX 9 9 0 -1
BITMAP
040000
340000
790000
3FE400
064000
140040
341A00
7FE400
250000
ENDCHAR
STARTCHAR question
ENCODING 63
SWIDTH 756 0
DWIDTH 9 0
BBX 9 10 0 -1
BITMAP
200000
B15000
BFA000
580040
2C0140
2EBE00
2C1400
2C0000
2D5000
2F8000
ENDCHAR
STARTCHAR at
ENCODING 64
SWIDTH 967 0
DWIDTH 12 0
BBX 11 12 0 -3
BITMAP
15FFD0
75AAA0
750020
B60C20
B60C20
B60820
B64044
B5EA90
786A80
3E5540
1FFF80
015500
ENDCHAR
STARTCHAR A
ENCODING 65
SWIDTH 830 0
DWIDTH 10 0
BBX 10 10 0 -1
BITMAP
010000
080000
182400
243400
300000
710000
B00000
B07800
B57D50
BE2F40
ENDCHAR
STARTCHAR B
ENCODING 66
SWIDTH 825 0
DWIDTH 10 0
BBX 9 10 0 -1
BITMAP
140000
741000
743400
741040
741500
743C00
741400
740000
795540
7FFD00
ENDCHAR
STARTCHAR C
ENCODING 67
SWIDTH 728 0
DWIDTH 9 0
BBX 9 9 0 -1
BITMAP
141440
703E00
B01400
B00000
B00000
B00000
B40000
7E5540
1FFD00
ENDCHAR
STARTCHAR D
ENCODING 68
SWIDTH 846 0
DWIDTH 10 0
BBX 9 10 0 -1
BITMAP
140000
740000
741400
743C00
742C00
742C00
741400
740000
795540
7FF900
ENDCHAR
STARTCHAR E
ENCODING 69
SWIDTH 754 0
DWIDTH 9 0
BBX 9 10 0 -1
BITMAP
140040
740000
743F40
740000
740000
741500
742400
740000
795540
7FFE00
ENDCHAR
STARTCHAR F
ENCODING 70
SWIDTH 718 0
DWIDTH 9 0
BBX 8 10 0 -1
BITMAP
1400
7400
743E
7414
7500
7400
7438
7410
7940
7E00
ENDCHAR
STARTCHAR G
ENCODING 71
SWIDTH 808 0
DWIDTH 10 0
BBX 9 9 0 -1
BITMAP
141540
703E00
B01400
B01800
B07800
B01000
B40100
7E5540
1FFF00
ENDCHAR
STARTCHAR H
ENCODING 72
SWIDTH 859 0
DWIDTH 10 0
BBX 10 10 0 -1
BITMAP
144810
742C00
741800
740000
740000
740000
743C00
743C00
796D50
7E2F80
ENDCHAR
STARTCHAR I
ENCODING 73
SWIDTH 705 0
DWIDTH 8 0
BBX 8 10 0 -1
BITMAP
1000
7000
B905
BE04
0E00
0E00
0900
7000
B555
BFF8
ENDCHAR
STARTCHAR J
ENCODING 74
SWIDTH 788 0
DWIDTH 9 0
BBX 9 10 0 -1
BITMAP
001440
007000
00B000
00B000
60B000
B0B000
B01000
B40000
7E5900
1FE400
ENDCHAR
STARTCHAR K
ENCODING 75
SWIDTH 846 0
DWIDTH 10 0
BBX 10 10 0 -1
BITMAP
144400
743400
742000
740000
750400
741400
743C00
742C00
796D50
7E2F40
ENDCHAR
STARTCHAR L
ENCODING 76
SWIDTH 795 0
DWIDTH 10 0
BBX 9 10 0 -1
BITMAP
144000
740000
740000
740000
741800
743800
741000
740100
795540
7FFF00
ENDCHAR
STARTCHAR M
ENCODING 77
SWIDTH 949 0
DWIDTH 11 0
BBX 11 10 0 -1
BITMAP
140104
740900
740400
740000
741200
743B00
742B00
740B00
794B54
7E0BE0
ENDCHAR
STARTCHAR N
ENCODING 78
SWIDTH 853 0
DWIDTH 10 0
BBX 10 10 0 -1
BITMAP
144800
751C00
740400
740000
741000
743000
743800
743C00
796D50
7E2F40
ENDCHAR
STARTCHAR O
ENCODING 79
SWIDTH 837 0
DWIDTH 10 0
BBX 9 10 0 -1
BITMAP
005500
140000
703800
B03800
B03800
B03800
B01400
B40000
7E9640
1BF900
ENDCHAR
STARTCHAR P
ENCODING 80
SWIDTH 782 0
DWIDTH 9 0
BBX 9 10 0 -1
BITMAP
140000
740000
742400
743400
740000
741540
743D00
741000
794000
7E0000
ENDCHAR
STARTCHAR Q
ENCODING 81
SWIDTH 837 0
DWIDTH 10 0
BBX 10 11 0 -3
BITMAP
140000
701400
B07800
B03800
B03800
B03800
B81010
7E4280
2F8100
07F400
015000
ENDCHAR
STARTCHAR R
ENCODING 82
SWIDTH 843 0
DWIDTH 10 0
BBX 10 10 0 -1
BITMAP
140000
740000
743400
742040
740100
740000
743C00
742C00
796D50
7E2F80
ENDCHAR
STARTCHAR S
ENCODING 83
SWIDTH 750 0
DWIDTH 9 0
BBX 8 9 0 -1
BITMAP
2000
702E
B000
B400
7FA0
2000
7000
B555
BFF4
ENDCHAR
STARTCHAR T
ENCODING 84
SWIDTH 756 0
DWIDTH 9 0
BBX 9 10 0 -1
BITMAP
100040
E11140
FF0740
5B0400
0B0000
0B0000
0B0000
0B0000
0B5400
0BE000
ENDCHAR
STARTCHAR U
ENCODING 85
SWIDTH 846 0
DWIDTH 10 0
BBX 10 10 0 -1
BITMAP
144410
702C00
B02C00
B02C00
B02C00
B02C00
B41400
780000
7E9640
1BF900
ENDCHAR
STARTCHAR V
ENCODING 86
SWIDTH 830 0
DWIDTH 10 0
BBX 8 10 0 -1
BITMAP
1444
7028
B038
B038
B038
B424
7C00
3D00
1E55
0FF8
ENDCHAR
STARTCHAR W
ENCODING 87
SWIDTH 931 0
DWIDTH 11 0
BBX 11 10 0 -1
BITMAP
144204
700B00
B00700
B05200
B00000
B00000
B40800
781C40
3D6E50
2F5F80
ENDCHAR
STARTCHAR X
ENCODING 88
SWIDTH 837 0
DWIDTH 10 0
BBX 10 10 0 -1
BITMAP
144400
702800
B42400
780000
3D0400
180000
203800
707800
B97D50
7E2F40
ENDCHAR
STARTCHAR Y
ENCODING 89
SWIDTH 805 0
DWIDTH 10 0
BBX 7 10 0 -1
BITMAP
1044
B038
B038
B034
B800
7D10
2F00
0B40
0794
07E0
ENDCHAR
STARTCHAR Z
ENCODING 90
SWIDTH 760 0
DWIDTH 9 0
BBX 9 10 0 -1
BITMAP
140000
754000
BF8000
160000
080000
140000
700000
B00000
B55540
BFFE00
ENDCHAR
STARTCHAR bracketleft
ENCODING 91
SWIDTH 529 0
DWIDTH 6 0
BBX 6 13 0 -3
BITMAP
7000
B100
B050
B000
B000
B000
B000
B000
B000
B000
B410
BFD0
1500
ENDCHAR
STARTCHAR backslash
ENCODING 92
SWIDTH 487 0
DWIDTH 6 0
BBX 6 13 0 -3
BITMAP
6000
F000
B000
B400
B400
7400
7800
3800
3C00
3C00
2D10
2F80
0500
ENDCHAR
STARTCHAR bracketright
ENCODING 93
SWIDTH 529 0
DWIDTH 6 0
BBX 6 13 0 -3
BITMAP
6000
B040
BD00
6D00
1D00
1D00
1D00
1D00
2000
7000
B010
BFD0
5500
ENDCHAR
STARTCHAR asciicircum
ENCODING 94
SWIDTH 814 0
DWIDTH 10 0
BBX 9 9 0 0
BITMAP
010000
090000
1C0000
282000
343000
307400
70B800
BE3F40
541400
ENDCHAR
STARTCHAR underscore
ENCODING 95
SWIDTH 834 0
DWIDTH 10 0
BBX 10 5 0 -3
BITMAP
040000
240000
740010
7FFF80
155500
ENDCHAR
STARTCHAR grave
ENCODING 96
SWIDTH 600 0
DWIDTH 7 0
BBX 7 5 0 7
BITMAP
1000
7000
B944
BFF4
0140
ENDCHAR
STARTCHAR a
ENCODING 97
SWIDTH 830 0
DWIDTH 10 0
BBX 10 10 0 -1
BITMAP
010000
080000
182400
243400
300000
710000
B00000
B07800
B57D50
BE2F40
ENDCHAR
STARTCHAR b
ENCODING 98
SWIDTH 825 0
DWIDTH 10 0
BBX 9 10 0 -1
BITMAP
140000
741000
743400
741040
741500
743C00
741400
740000
795540
7FFD00
ENDCHAR
STARTCHAR c
ENCODING 99
SWIDTH 728 0
DWIDTH 9 0
BBX 9 9 0 -1
BITMAP
141440
703E00
B01400
B00000
B00000
B00000
B40000
7E5540
1FFD00
ENDCHAR
STARTCHAR d
ENCODING 100
SWIDTH 846 0
DWIDTH 10 0
BBX 9 10 0 -1
BITMAP
140000
740000
741400
743C00
742C00
742C00
741400
740000
795540
7FF900
ENDCHAR
STARTCHAR e
ENCODING 101
SWIDTH 754 0
DWIDTH 9 0
BBX 9 10 0 -1
BITMAP
140040
740000
743F40
740000
740000
741500
742400
740000
795540
7FFE00
ENDCHAR
STARTCHAR f
ENCODING 102
SWIDTH 718 0
DWIDTH 9 0
BBX 8 10 0 -1
BITMAP
1400
7400
743E
7414
7500
7400
7438
7410
7940
7E00
ENDCHAR
STARTCHAR g
ENCODING 103
SWIDTH 808 0
DWIDTH 10 0
BBX 9 9 0 -1
BITMAP
141540
703E00
B01400
B01800
B07800
B01000
B40100
7E5540
1FFF00
ENDCHAR
STARTCHAR h
ENCODING 104
SWIDTH 859 0
DWIDTH 10 0
BBX 10 10 0 -1
BITMAP
144810
742C00
741800
740000
740000
740000
743C00
743C00
796D50
7E2F80
ENDCHAR
STARTCHAR i
ENCODING 105
SWIDTH 705 0
DWIDTH 8 0
BBX 8 10 0 -1
BITMAP
1000
7000
B905
BE04
0E00
0E00
0900
7000
B555
BFF8
ENDCHAR
STARTCHAR j
ENCODING 106
SWIDTH 788 0
DWIDTH 9 0
BBX 9 10 0 -1
BITMAP
001440
007000
00B000
00B000
60B000
B0B000
B01000
B40000
7E5900
1FE400
ENDCHAR
STARTCHAR k
ENCODING 107
SWIDTH 846 0
DWIDTH 10 0
BBX 10 10 0 -1
BITMAP
144400
743400
742000
740000
750400
741400
743C00
742C00
796D50
7E2F40
ENDCHAR
STARTCHAR l
ENCODING 108
SWIDTH 795 0
DWIDTH 10 0
BBX 9 10 0 -1
BITMAP
144000
740000
740000
740000
741800
743800
741000
740100
795540
7FFF00
ENDCHAR
STARTCHAR m
ENCODING 109
SWIDTH 949 0
DWIDTH 11 0
BBX 11 10 0 -1
BITMAP
140104
740900
740400
740000
741200
743B00
742B00
740B00
794B54
7E0BE0
ENDCHAR
STARTCHAR n
ENCODING 110
SWIDTH 853 0
DWIDTH 10 0
BBX 10 10 0 -1
BITMAP
144800
751C00
740400
740000
741000
743000
743800
743C00
796D50
7E2F40
ENDCHAR
STARTCHAR o
ENCODING 111
SWIDTH 837 0
DWIDTH 10 0
BBX 9 10 0 -1
BITMAP
005500
140000
703800
B03800
B03800
B03800
B01400
B40000
7E9640
1BF900
ENDCHAR
STARTCHAR p
ENCODING 112
SWIDTH 782 0
DWIDTH 9 0
BBX 9 10 0 -1
BITMAP
140000
740000
742400
743400
740000
741540
743D00
741000
794000
7E0000
ENDCHAR
STARTCHAR q
ENCODING 113
SWIDTH 837 0
DWIDTH 10 0
BBX 10 11 0 -3
BITMAP
140000
701400
B07800
B03800
B03800
B03800
B81010
7E4280
2F8100
07F400
015000
ENDCHAR
STARTCHAR r
ENCODING 114
SWIDTH 843 0
DWIDTH 10 0
BBX 10 10 0 -1
BITMAP
140000
740000
743400
742040
740100
740000
743C00
742C00
796D50
7E2F80
ENDCHAR
STARTCHAR s
ENCODING 115
SWIDTH 750 0
DWIDTH 9 0
BBX 8 9 0 -1
BITMAP
2000
702E
B000
B400
7FA0
2000
7000
B555
BFF4
ENDCHAR
STARTCHAR t
ENCODING 116
SWIDTH 756 0
DWIDTH 9 0
BBX 9 10 0 -1
BITMAP
100040
E11140
FF0740
5B0400
0B0000
0B0000
0B0000
0B0000
0B5400
0BE000
ENDCHAR
STARTCHAR u
ENCODING 117
SWIDTH 846 0
DWIDTH 10 0
BBX 10 10 0 -1
BITMAP
144410
702C00
B02C00
B02C00
B02C00
B02C00
B41400
780000
7E9640
1BF900
ENDCHAR
STARTCHAR v
ENCODING 118
SWIDTH 830 0
DWIDTH 10 0
BBX 8 10 0 -1
BITMAP
1444
7028
B038
B038
B038
B424
7C00
3D00
1E55
0FF8
ENDCHAR
STARTCHAR w
ENCODING 119
SWIDTH 931 0
DWIDTH 11 0
BBX 11 10 0 -1
BITMAP
144204
700B00
B00700
B05200
B00000
B00000
B40800
781C40
3D6E50
2F5F80
ENDCHAR
STARTCHAR x
ENCODING 120
SWIDTH 837 0
DWIDTH 10 0
BBX 10 10 0 -1
BITMAP
144400
702800
B42400
780000
3D0400
180000
203800
707800
B97D50
7E2F40
ENDCHAR
STARTCHAR y
ENCODING 121
SWIDTH 805 0
DWIDTH 10 0
BBX 7 10 0 -1
BITMAP
1044
B038
B038
B034
B800
7D10
2F00
0B40
0794
07E0
ENDCHAR
STARTCHAR z
ENCODING 122
SWIDTH 760 0
DWIDTH 9 0
BBX 9 10 0 -1
BITMAP
140000
754000
BF8000
160000
080000
140000
700000
B00000
B55540
BFFE00
ENDCHAR
STARTCHAR braceleft
ENCODING 123
SWIDTH 555 0
DWIDTH 7 0
BBX 6 13 0 -3
BITMAP
0400
1800
3410
7400
7000
A040
F000
F400
7400
7800
3E40
2FE0
0140
ENDCHAR
STARTCHAR bar
ENCODING 124
SWIDTH 447 0
DWIDTH 5 0
BBX 5 14 0 -3
BITMAP
0400
2000
B000
B000
B000
B000
B000
B000
B000
B000
B000
B440
BE00
1400
ENDCHAR
STARTCHAR braceright
ENCODING 125
SWIDTH 555 0
DWIDTH 7 0
BBX 5 13 0 -3
BITMAP
6000
B000
BC00
6C00
2D00
2D00
1C00
2C00
2000
7000
B140
BE00
5000
ENDCHAR
STARTCHAR asciitilde
ENCODING 126
SWIDTH 834 0
DWIDTH 10 0
BBX 9 4 0 1
BITMAP
140000
755000
7FFF40
156500
ENDCHAR
STARTCHAR uni00A0
ENCODING 160
SWIDTH 325 0
DWIDTH 4 0
BBX 1 1 0 0
BITMAP
00
ENDCHAR
STARTCHAR exclamdown
ENCODING 161
SWIDTH 523 0
DWIDTH 6 0
BBX 6 10 0 -1
BITMAP
1400
7400
7E90
2800
3800
3400
7400
7400
7940
7F40
ENDCHAR
STARTCHAR cent
ENCODING 162
SWIDTH 728 0
DWIDTH 9 0
BBX 9 13 0 -3
BITMAP
004000
024000
0A4100
241000
700040
B03E00
B01400
B00000
B40000
7E4140
2F8200
07F400
014000
ENDCHAR
STARTCHAR sterling
ENCODING 163
SWIDTH 795 0
DWIDTH 10 0
BBX 9 10 0 -1
BITMAP
000100
140000
343E00
600400
A00400
F43800
B40000
740100
795540
7FFF00
ENDCHAR
STARTCHAR currency
ENCODING 164
SWIDTH 921 0
DWIDTH 11 0
BBX 11 10 0 -2
BITMAP
100040
740000
BC0000
2D2D00
1D2D00
1D5840
140100
345644
BEFFD0
380280
ENDCHAR
STARTCHAR yen
ENCODING 165
SWIDTH 803 0
DWIDTH 10 0
BBX 8 10 0 -1
BITMAP
1044
B038
B038
B810
BD00
3800
2810
3E42
1B94
07E0
ENDCHAR
STARTCHAR brokenbar
ENCODING 166
SWIDTH 447 0
DWIDTH 5 0
BBX 5 14 0 -3
BITMAP
0400
2000
B000
B000
B000
B940
7A00
2000
7000
B000
B000
B440
BE00
1400
ENDCHAR
STARTCHAR section
ENCODING 167
SWIDTH 750 0
DWIDTH 9 0
BBX 8 10 0 -1
BITMAP
0154
1500
702A
B100
B060
B801
7EA0
2000
B955
7FE4
ENDCHAR
STARTCHAR dieresis
ENCODING 168
SWIDTH 600 0
DWIDTH 7 0
BBX 7 5 0 7
BITMAP
1040
6080
E080
FFF4
5550
ENDCHAR
STARTCHAR copyright
ENCODING 169
SWIDTH 967 0
DWIDTH 12 0
BBX 11 12 0 -3
BITMAP
15FFD0
759560
764070
B64BF0
B644B0
B640B0
B69070
B5FFD4
780404
7E5550
1FFF80
015400
ENDCHAR
STARTCHAR ordfeminine
ENCODING 170
SWIDTH 620 0
DWIDTH 7 0
BBX 7 10 0 -1
BITMAP
0550
2440
7080
A000
A080
F5D4
F9A4
6000
B554
BFF0
ENDCHAR
STARTCHAR guillemotleft
ENCODING 171
SWIDTH 912 0
DWIDTH 11 0
BBX 11 6 0 0
BITMAP
100400
706410
B01400
B40800
7F9F94
1BDBD0
ENDCHAR
STARTCHAR logicalnot
ENCODING 172
SWIDTH 834 0
DWIDTH 10 0
BBX 9 8 0 -1
BITMAP
040000
240000
740000
7FFC00
156C00
002C00
002F80
000500
ENDCHAR
STARTCHAR uni00AD
ENCODING 173
SWIDTH 520 0
DWIDTH 6 0
BBX 6 4 0 1
BITMAP
6000
B010
BFD0
5500
ENDCHAR
STARTCHAR registered
ENCODING 174
SWIDTH 660 0
DWIDTH 8 0
BBX 8 8 0 1
BITMAP
07F8
2509
7559
B555
B595
BAA9
7FF4
1A40
ENDCHAR
STARTCHAR macron
ENCODING 175
SWIDTH 600 0
DWIDTH 7 0
BBX 7 4 0 7
BITMAP
6000
B000
BFF4
5540
ENDCHAR
STARTCHAR degree
ENCODING 176
SWIDTH 583 0
DWIDTH 7 0
BBX 6 7 0 2
BITMAP
0550
2000
B1C0
B180
B400
BE90
1A40
ENDCHAR
STARTCHAR plusminus
ENCODING 177
SWIDTH 834 0
DWIDTH 10 0
BBX 10 10 0 -1
BITMAP
004400
038000
064000
241000
794150
7F8380
164100
240000
795540
7FFF40
ENDCHAR
STARTCHAR twosuperior
ENCODING 178
SWIDTH 585 0
DWIDTH 7 0
BBX 7 8 0 1
BITMAP
1550
7A40
7800
2010
B090
B554
BFE0
5540
ENDCHAR
STARTCHAR threesuperior
ENCODING 179
SWIDTH 584 0
DWIDTH 7 0
BBX 7 8 0 1
BITMAP
1140
7000
BA00
6800
3E80
7154
BFD0
5500
ENDCHAR
STARTCHAR acute
ENCODING 180
SWIDTH 600 0
DWIDTH 7 0
BBX 7 4 0 7
BITMAP
2000
B154
BFE0
5400
ENDCHAR
STARTCHAR mu
ENCODING 181
SWIDTH 813 0
DWIDTH 10 0
BBX 8 9 0 -2
BITMAP
3018
B038
B038
B038
B114
B000
B001
BAB8
7E00
ENDCHAR
STARTCHAR paragraph
ENCODING 182
SWIDTH 782 0
DWIDTH 9 0
BBX 9 10 0 -1
BITMAP
000040
200000
A00000
E00000
F00000
F44100
BD0400
1E0400
0E6940
0FBE00
ENDCHAR
STARTCHAR periodcentered
ENCODING 183
SWIDTH 464 0
DWIDTH 6 0
BBX 5 4 0 2
BITMAP
7000
B000
B540
BF40
ENDCHAR
STARTCHAR cedilla
ENCODING 184
SWIDTH 600 0
DWIDTH 7 0
BBX 4 6 1 -4
BITMAP
04
24
30
A0
FD
50
ENDCHAR
STARTCHAR onesuperior
ENCODING 185
SWIDTH 557 0
DWIDTH 7 0
BBX 7 8 0 1
BITMAP
1540
7400
BD00
1D00
1800
7154
BFE0
5540
ENDCHAR
STARTCHAR ordmasculine
ENCODING 186
SWIDTH 625 0
DWIDTH 8 0
BBX 7 10 0 -1
BITMAP
0150
2000
B0C0
B0D0
B0D0
B954
BAA0
6000
B554
BFF0
ENDCHAR
STARTCHAR guillemotright
ENCODING 187
SWIDTH 912 0
DWIDTH 11 0
BBX 11 8 0 -1
BITMAP
114540
700400
B90E00
740900
201404
B6F9A0
BE7F40
501400
ENDCHAR
STARTCHAR onequarter
ENCODING 188
SWIDTH 1303 0
DWIDTH 16 0
BBX 15 10 0 -1
BITMAP
15420000
740A0000
7D0E0450
1D1D1490
181D2490
71582550
BFF83800
55783FD0
003916E4
003E01F4
ENDCHAR
STARTCHAR onehalf
ENCODING 189
SWIDTH 1260 0
DWIDTH 15 0
BBX 14 10 0 -1
BITMAP
15420000
740A0000
BD0E0400
2D1D1400
181D2E40
71582410
BFF83050
55783000
0039B550
003EBFE0
ENDCHAR
STARTCHAR threequarters
ENCODING 190
SWIDTH 1313 0
DWIDTH 16 0
BBX 15 10 0 -1
BITMAP
21424000
BA0B0000
681A0410
38051490
3E851490
71582550
BFFC3900
55283FD0
003945E4
003E01F4
ENDCHAR
STARTCHAR questiondown
ENCODING 191
SWIDTH 756 0
DWIDTH 9 0
BBX 9 10 0 -1
BITMAP
004100
028000
039500
025000
100000
701500
B06400
B00000
BE5540
2FFE00
ENDCHAR
STARTCHAR Agrave
ENCODING 192
SWIDTH 830 0
DWIDTH 10 0
BBX 10 13 0 -1
BITMAP
065500
1D0000
1E5400
1A0000
080000
182400
243400
300000
710000
B00000
B07800
B57D50
BE2F40
ENDCHAR
STARTCHAR Aacute
ENCODING 193
SWIDTH 830 0
DWIDTH 10 0
BBX 10 13 0 -1
BITMAP
015540
090000
1D1500
1E0000
0C0000
182400
243400
300000
710000
B00000
B07800
B57D50
BE2F40
ENDCHAR
STARTCHAR Acircumflex
ENCODING 194
SWIDTH 830 0
DWIDTH 10 0
BBX 10 13 0 -1
BITMAP
010000
090000
1EBA00
1E0000
0C0000
182400
243400
300000
710000
B00000
B07800
B57D50
BE2F40
ENDCHAR
STARTCHAR Atilde
ENCODING 195
SWIDTH 830 0
DWIDTH 10 0
BBX 10 12 0 -1
BITMAP
090000
1D5000
1E5500
0D0000
1C2400
243400
300000
710000
B00000
B07800
B57D50
BE2F40
ENDCHAR
STARTCHAR Adieresis
ENCODING 196
SWIDTH 830 0
DWIDTH 10 0
BBX 10 13 0 -1
BITMAP
001400
1C2000
2C2000
2FAA00
1D0000
1C2400
243400
300000
710000
B00000
B07800
B57D50
BE2F40
ENDCHAR
STARTCHAR Aring
ENCODING 197
SWIDTH 830 0
DWIDTH 10 0
BBX 9 13 0 -1
BITMAP
010000
0D0000
1D3400
2D1400
1C0000
182400
243400
700000
B10000
B00000
B07800
B57D40
BE2F40
ENDCHAR
STARTCHAR AE
ENCODING 198
SWIDTH 1105 0
DWIDTH 13 0
BBX 13 10 0 -1
BITMAP
01000040
0C000000
18282F40
34380000
70244000
B1001900
B0001800
B0780000
B5795540
BE3FFE00
ENDCHAR
STARTCHAR Ccedilla
ENCODING 199
SWIDTH 728 0
DWIDTH 9 0
BBX 9 11 0 -3
BITMAP
140000
700000
B03E00
B01400
B00000
B00000
B40400
7E4140
1B4500
07E000
014000
ENDCHAR
STARTCHAR Egrave
ENCODING 200
SWIDTH 754 0
DWIDTH 9 0
BBX 9 13 0 -1
BITMAP
055500
280000
3E5000
240040
740000
743F40
740000
740000
741500
742400
740000
795540
7FFE00
ENDCHAR
STARTCHAR Eacute
ENCODING 201
SWIDTH 754 0
DWIDTH 9 0
BBX 9 13 0 -1
BITMAP
015500
090000
1D1500
240040
740000
743F40
740000
740000
741500
742400
740000
795540
7FFE00
ENDCHAR
STARTCHAR Ecircumflex
ENCODING 202
SWIDTH 754 0
DWIDTH 9 0
BBX 9 13 0 -1
BITMAP
050100
1C0000
2DA900
340040
740000
743F40
740000
740000
741500
742400
740000
795540
7FFE00
ENDCHAR
STARTCHAR Edieresis
ENCODING 203
SWIDTH 754 0
DWIDTH 9 0
BBX 9 13 0 -1
BITMAP
001000
182000
382000
3AAA40
340000
743F40
740000
740000
741500
742400
740000
795540
7FFE00
ENDCHAR
STARTCHAR Igrave
ENCODING 204
SWIDTH 705 0
DWIDTH 8 0
BBX 8 13 0 -1
BITMAP
0554
3400
7950
3400
7000
B905
BE04
0E00
0E00
0900
7000
B555
BFF8
ENDCHAR
STARTCHAR Iacute
ENCODING 205
SWIDTH 705 0
DWIDTH 8 0
BBX 8 13 0 -1
BITMAP
0555
1800
3854
7400
7000
B905
BE04
0E00
0E00
0900
7000
B555
BFF8
ENDCHAR
STARTCHAR Icircumflex
ENCODING 206
SWIDTH 705 0
DWIDTH 8 0
BBX 8 13 0 -1
BITMAP
0400
2400
39A5
7400
7000
B905
BE04
0E00
0E00
0900
7000
B555
BFF8
ENDCHAR
STARTCHAR Idieresis
ENCODING 207
SWIDTH 705 0
DWIDTH 8 0
BBX 8 13 0 -1
BITMAP
0450
2450
7450
7AAA
7000
B905
BE04
0E00
0E00
0900
7000
B555
BFF8
ENDCHAR
STARTCHAR Eth
ENCODING 208
SWIDTH 856 0
DWIDTH 10 0
BBX 9 10 0 -1
BITMAP
140000
740000
743C00
601C00
A10C00
F43C00
B40000
740000
795540
7FFD00
ENDCHAR
STARTCHAR Ntilde
ENCODING 209
SWIDTH 853 0
DWIDTH 10 0
BBX 10 12 0 -1
BITMAP
050000
1D5000
147C00
751C00
740400
740000
741000
743000
743800
743C00
796D50
7E2F40
ENDCHAR
STARTCHAR Ograve
ENCODING 210
SWIDTH 837 0
DWIDTH 10 0
BBX 9 14 0 -1
BITMAP
014000
0AAA40
1D0000
1E0500
040000
300000
703800
B03800
B03800
B03800
B01400
B80000
7E9640
1BF800
ENDCHAR
STARTCHAR Oacute
ENCODING 211
SWIDTH 837 0
DWIDTH 10 0
BBX 9 14 0 -1
BITMAP
000500
02AA40
0D0000
1D5000
180000
300000
703800
B03800
B03800
B03800
B01400
B80000
7E9640
1BF800
ENDCHAR
STARTCHAR Ocircumflex
ENCODING 212
SWIDTH 837 0
DWIDTH 10 0
BBX 9 13 0 -1
BITMAP
010000
1D0000
1EA900
1D0040
340000
703800
B03800
B03800
B03800
B01400
B40000
7E9640
1BF900
ENDCHAR
STARTCHAR Otilde
ENCODING 213
SWIDTH 837 0
DWIDTH 10 0
BBX 9 14 0 -1
BITMAP
010000
050000
1D0000
1D5000
1D5500
340000
703800
B03800
B03800
B03800
B01400
B40000
7E9640
1BF900
ENDCHAR
STARTCHAR Odieresis
ENCODING 214
SWIDTH 837 0
DWIDTH 10 0
BBX 10 13 0 -1
BITMAP
0C1000
2C2000
2C2000
1E9640
340010
703800
B03800
B03800
B03800
B01400
B40000
7E9640
1BF900
ENDCHAR
STARTCHAR multiply
ENCODING 215
SWIDTH 834 0
DWIDTH 10 0
BBX 7 8 1 0
BITMAP
1010
A000
F840
7800
2000
A0E0
F9F8
6060
ENDCHAR
STARTCHAR Oslash
ENCODING 216
SWIDTH 837 0
DWIDTH 10 0
BBX 9 12 0 -2
BITMAP
000400
015500
140500
706400
B05400
B05400
B01C00
B14400
B44000
781640
3EF900
290000
ENDCHAR
STARTCHAR Ugrave
ENCODING 217
SWIDTH 846 0
DWIDTH 10 0
BBX 10 13 0 -1
BITMAP
055500
1D0000
1E5400
247C10
702C00
B02C00
B02C00
B02C00
B02C00
B41400
780000
7E9640
1BF900
ENDCHAR
STARTCHAR Uacute
ENCODING 218
SWIDTH 846 0
DWIDTH 10 0
BBX 10 13 0 -1
BITMAP
015540
050000
1E1500
146C10
702C00
B02C00
B02C00
B02C00
B02C00
B41400
780000
7E9640
1BF900
ENDCHAR
STARTCHAR Ucircumflex
ENCODING 219
SWIDTH 846 0
DWIDTH 10 0
BBX 10 12 0 -1
BITMAP
091400
1FFF40
146C10
702C00
B02C00
B02C00
B02C00
B02800
B40000
780000
7E9640
1BF900
ENDCHAR
STARTCHAR Udieresis
ENCODING 220
SWIDTH 846 0
DWIDTH 10 0
BBX 10 14 0 -1
BITMAP
010000
0C1000
2C1000
2C2400
7ABE90
B02C00
B02C00
B02C00
B02C00
B02C00
B41400
780000
7E9640
1BF900
ENDCHAR
STARTCHAR Yacute
ENCODING 221
SWIDTH 805 0
DWIDTH 10 0
BBX 8 13 0 -1
BITMAP
0155
0900
1D15
2068
B028
B038
B034
B800
7D10
2F00
0B40
0794
07E0
ENDCHAR
STARTCHAR Thorn
ENCODING 222
SWIDTH 792 0
DWIDTH 10 0
BBX 9 10 0 -1
BITMAP
144000
740000
750000
742400
743400
740000
741540
743D00
791000
7E0000
ENDCHAR
STARTCHAR germandbls
ENCODING 223
SWIDTH 859 0
DWIDTH 10 0
BBX 9 10 0 -1
BITMAP
140000
740000
741000
743000
742000
743D00
742000
742000
797540
7EFE00
ENDCHAR
STARTCHAR agrave
ENCODING 224
SWIDTH 830 0
DWIDTH 10 0
BBX 10 13 0 -1
BITMAP
065500
1D0000
1E5400
1A0000
080000
182400
243400
300000
710000
B00000
B07800
B57D50
BE2F40
ENDCHAR
STARTCHAR aacute
ENCODING 225
SWIDTH 830 0
DWIDTH 10 0
BBX 10 13 0 -1
BITMAP
015540
090000
1D1500
1E0000
0C0000
182400
243400
300000
710000
B00000
B07800
B57D50
BE2F40
ENDCHAR
STARTCHAR acircumflex
ENCODING 226
SWIDTH 830 0
DWIDTH 10 0
BBX 10 13 0 -1
BITMAP
010000
090000
1EBA00
1E0000
0C0000
182400
243400
300000
710000
B00000
B07800
B57D50
BE2F40
ENDCHAR
STARTCHAR atilde
ENCODING 227
SWIDTH 830 0
DWIDTH 10 0
BBX 10 12 0 -1
BITMAP
090000
1D5000
1E5500
0D0000
1C2400
243400
300000
710000
B00000
B07800
B57D50
BE2F40
ENDCHAR
STARTCHAR adieresis
ENCODING 228
SWIDTH 830 0
DWIDTH 10 0
BBX 10 13 0 -1
BITMAP
001400
1C2000
2C2000
2FAA00
1D0000
1C2400
243400
300000
710000
B00000
B07800
B57D50
BE2F40
ENDCHAR
STARTCHAR aring
ENCODING 229
SWIDTH 830 0
DWIDTH 10 0
BBX 9 13 0 -1
BITMAP
010000
0D0000
1D3400
2D1400
1C0000
182400
243400
700000
B10000
B00000
B07800
B57D40
BE2F40
ENDCHAR
STARTCHAR ae
ENCODING 230
SWIDTH 1105 0
DWIDTH 13 0
BBX 13 10 0 -1
BITMAP
01000040
0C000000
18282F40
34380000
70244000
B1001900
B0001800
B0780000
B5795540
BE3FFE00
ENDCHAR
STARTCHAR ccedilla
ENCODING 231
SWIDTH 728 0
DWIDTH 9 0
BBX 9 11 0 -3
BITMAP
140000
700000
B03E00
B01400
B00000
B00000
B40400
7E4140
1B4500
07E000
014000
ENDCHAR
STARTCHAR egrave
ENCODING 232
SWIDTH 754 0
DWIDTH 9 0
BBX 9 13 0 -1
BITMAP
055500
280000
3E5000
240040
740000
743F40
740000
740000
741500
742400
740000
795540
7FFE00
ENDCHAR
STARTCHAR eacute
ENCODING 233
SWIDTH 754 0
DWIDTH 9 0
BBX 9 13 0 -1
BITMAP
015500
090000
1D1500
240040
740000
743F40
740000
740000
741500
742400
740000
795540
7FFE00
ENDCHAR
STARTCHAR ecircumflex
ENCODING 234
SWIDTH 754 0
DWIDTH 9 0
BBX 9 13 0 -1
BITMAP
050100
1C0000
2DA900
340040
740000
743F40
740000
740000
741500
742400
740000
795540
7FFE00
ENDCHAR
STARTCHAR edieresis
ENCODING 235
SWIDTH 754 0
DWIDTH 9 0
BBX 9 13 0 -1
BITMAP
001000
182000
382000
3AAA40
340000
743F40
740000
740000
741500
742400
740000
795540
7FFE00
ENDCHAR
STARTCHAR igrave
ENCODING 236
SWIDTH 705 0
DWIDTH 8 0
BBX 8 13 0 -1
BITMAP
0554
3400
7950
3400
7000
B905
BE04
0E00
0E00
0900
7000
B555
BFF8
ENDCHAR
STARTCHAR iacute
ENCODING 237
SWIDTH 705 0
DWIDTH 8 0
BBX 8 13 0 -1
BITMAP
0555
1800
3854
7400
7000
B905
BE04
0E00
0E00
0900
7000
B555
BFF8
ENDCHAR
STARTCHAR icircumflex
ENCODING 238
SWIDTH 705 0
DWIDTH 8 0
BBX 8 13 0 -1
BITMAP
0400
2400
39A5
7400
7000
B905
BE04
0E00
0E00
0900
7000
B555
BFF8
ENDCHAR
STARTCHAR idieresis
ENCODING 239
SWIDTH 705 0
DWIDTH 8 0
BBX 8 13 0 -1
BITMAP
0450
2450
7450
7AAA
7000
B905
BE04
0E00
0E00
0900
7000
B555
BFF8
ENDCHAR
STARTCHAR eth
ENCODING 240
SWIDTH 856 0
DWIDTH 10 0
BBX 9 10 0 -1
BITMAP
140000
740000
743C00
601C00
A10C00
F43C00
B40000
740000
795540
7FFD00
ENDCHAR
STARTCHAR ntilde
ENCODING 241
SWIDTH 853 0
DWIDTH 10 0
BBX 10 12 0 -1
BITMAP
050000
1D5000
147C00
751C00
740400
740000
741000
743000
743800
743C00
796D50
7E2F40
ENDCHAR
STARTCHAR ograve
ENCODING 242
SWIDTH 837 0
DWIDTH 10 0
BBX 9 14 0 -1
BITMAP
014000
0AAA40
1D0000
1E0500
040000
300000
703800
B03800
B03800
B03800
B01400
B80000
7E9640
1BF800
ENDCHAR
STARTCHAR oacute
ENCODING 243
SWIDTH 837 0
DWIDTH 10 0
BBX 9 14 0 -1
BITMAP
000500
02AA40
0D0000
1D5000
180000
300000
703800
B03800
B03800
B03800
B01400
B80000
7E9640
1BF800
ENDCHAR
STARTCHAR ocircumflex
ENCODING 244
SWIDTH 837 0
DWIDTH 10 0
BBX 9 13 0 -1
BITMAP
010000
1D0000
1EA900
1D0040
340000
703800
B03800
B03800
B03800
B01400
B40000
7E9640
1BF900
ENDCHAR
STARTCHAR otilde
ENCODING 245
SWIDTH 837 0
DWIDTH 10 0
BBX 9 14 0 -1
BITMAP
010000
050000
1D0000
1D5000
1D5500
340000
703800
B03800
B03800
B03800
B01400
B40000
7E9640
1BF900
ENDCHAR
STARTCHAR odieresis
ENCODING 246
SWIDTH 837 0
DWIDTH 10 0
BBX 10 13 0 -1
BITMAP
0C1000
2C2000
2C2000
1E9640
340010
703800
B03800
B03800
B03800
B01400
B40000
7E9640
1BF900
ENDCHAR
STARTCHAR divide
ENCODING 247
SWIDTH 834 0
DWIDTH 10 0
BBX 9 10 0 -2
BITMAP
004000
034000
069500
240000
740000
7E9680
6B4200
074000
07F400
015000
ENDCHAR
STARTCHAR oslash
ENCODING 248
SWIDTH 837 0
DWIDTH 10 0
BBX 9 12 0 -2
BITMAP
000400
015500
140500
706400
B05400
B05400
B01C00
B14400
B44000
781640
3EF900
290000
ENDCHAR
STARTCHAR ugrave
ENCODING 249
SWIDTH 846 0
DWIDTH 10 0
BBX 10 13 0 -1
BITMAP
055500
1D0000
1E5400
247C10
702C00
B02C00
B02C00
B02C00
B02C00
B41400
780000
7E9640
1BF900
ENDCHAR
STARTCHAR uacute
ENCODING 250
SWIDTH 846 0
DWIDTH 10 0
BBX 10 13 0 -1
BITMAP
015540
050000
1E1500
146C10
702C00
B02C00
B02C00
B02C00
B02C00
B41400
780000
7E9640
1BF900
ENDCHAR
STARTCHAR ucircumflex
ENCODING 251
SWIDTH 846 0
DWIDTH 10 0
BBX 10 12 0 -1
BITMAP
091400
1FFF40
146C10
702C00
B02C00
B02C00
B02C00
B02800
B40000
780000
7E9640
1BF900
ENDCHAR
STARTCHAR udieresis
ENCODING 252
SWIDTH 846 0
DWIDTH 10 0
BBX 10 14 0 -1
BITMAP
010000
0C1000
2C1000
2C2400
7ABE90
B02C00
B02C00
B02C00
B02C00
B02C00
B41400
780000
7E9640
1BF900
ENDCHAR
STARTCHAR yacute
ENCODING 253
SWIDTH 805 0
DWIDTH 10 0
BBX 8 13 0 -1
BITMAP
0155
0900
1D15
2068
B028
B038
B034
B800
7D10
2F00
0B40
0794
07E0
ENDCHAR
STARTCHAR thorn
ENCODING 254
SWIDTH 792 0
DWIDTH 10 0
BBX 9 10 0 -1
BITMAP
144000
740000
750000
742400
743400
740000
741540
743D00
791000
7E0000
ENDCHAR
STARTCHAR ydieresis
ENCODING 255
SWIDTH 805 0
DWIDTH 10 0
BBX 10 13 0 -1
BITMAP
001000
182000
382000
3ABE50
B07800
B03800
B03400
B40000
7D1000
2F0000
0B4000
079400
07E000
ENDCHAR
STARTCHAR Amacron
ENCODING 256
SWIDTH 830 0
DWIDTH 10 0
BBX 10 13 0 -1
BITMAP
010000
090000
1D0000
1FAA00
0D0000
1C2400
243400
300000
710000
B00000
B07800
B57D50
BE2F40
ENDCHAR
STARTCHAR amacron
ENCODING 257
SWIDTH 830 0
DWIDTH 10 0
BBX 10 13 0 -1
BITMAP
010000
090000
1D0000
1FAA00
0D0000
1C2400
243400
300000
710000
B00000
B07800
B57D50
BE2F40
ENDCHAR
STARTCHAR Abreve
ENCODING 258
SWIDTH 830 0
DWIDTH 10 0
BBX 10 14 0 -1
BITMAP
010400
081400
1D0000
1E4000
1E5500
090040
1C2440
243400
300000
710000
B00000
B07800
B57D50
BE2F40
ENDCHAR
STARTCHAR abreve
ENCODING 259
SWIDTH 830 0
DWIDTH 10 0
BBX 10 14 0 -1
BITMAP
010400
081400
1D0000
1E4000
1E5500
090040
1C2440
243400
300000
710000
B00000
B07800
B57D50
BE2F40
ENDCHAR
STARTCHAR Aogonek
ENCODING 260
SWIDTH 830 0
DWIDTH 10 0
BBX 10 13 0 -4
BITMAP
010000
080000
182400
243400
300000
710000
B00000
B07800
B57800
BE3800
003810
003F80
000500
ENDCHAR
STARTCHAR aogonek
ENCODING 261
SWIDTH 830 0
DWIDTH 10 0
BBX 10 13 0 -4
BITMAP
010000
080000
182400
243400
300000
710000
B00000
B07800
B57800
BE3800
003810
003F80
000500
ENDCHAR
STARTCHAR Cacute
ENCODING 262
SWIDTH 728 0
DWIDTH 9 0
BBX 9 13 0 -1
BITMAP
015540
050000
1D1500
1D4000
141440
303E00
B01400
B00000
B00000
B00000
B40000
7E5540
1FFD00
ENDCHAR
STARTCHAR cacute
ENCODING 263
SWIDTH 728 0
DWIDTH 9 0
BBX 9 13 0 -1
BITMAP
015540
050000
1D1500
1D4000
141440
303E00
B01400
B00000
B00000
B00000
B40000
7E5540
1FFD00
ENDCHAR
STARTCHAR Ccircumflex
ENCODING 264
SWIDTH 728 0
DWIDTH 9 0
BBX 9 13 0 -1
BITMAP
010100
0C0000
2DA900
2D4000
141440
303E00
B01400
B00000
B00000
B00000
B40000
7E5540
1FFD00
ENDCHAR
STARTCHAR ccircumflex
ENCODING 265
SWIDTH 728 0
DWIDTH 9 0
BBX 9 13 0 -1
BITMAP
010100
0C0000
2DA900
2D4000
141440
303E00
B01400
B00000
B00000
B00000
B40000
7E5540
1FFD00
ENDCHAR
STARTCHAR Cdotaccent
ENCODING 266
SWIDTH 728 0
DWIDTH 9 0
BBX 9 14 0 -1
BITMAP
004000
024000
074000
074000
094000
241440
703E00
B01400
B00000
B00000
B00000
B40000
7E5540
1FFD00
ENDCHAR
STARTCHAR cdotaccent
ENCODING 267
SWIDTH 728 0
DWIDTH 9 0
BBX 9 14 0 -1
BITMAP
004000
024000
074000
074000
094000
241440
703E00
B01400
B00000
B00000
B00000
B40000
7E5540
1FFD00
ENDCHAR
STARTCHAR Ccaron
ENCODING 268
SWIDTH 728 0
DWIDTH 9 0
BBX 9 14 0 -1
BITMAP
010000
0C4000
2C0000
2E4400
194000
141440
703E00
B01400
B00000
B00000
B00000
B40000
7E5540
1FFD00
ENDCHAR
STARTCHAR ccaron
ENCODING 269
SWIDTH 728 0
DWIDTH 9 0
BBX 9 14 0 -1
BITMAP
010000
0C4000
2C0000
2E4400
194000
141440
703E00
B01400
B00000
B00000
B00000
B40000
7E5540
1FFD00
ENDCHAR
STARTCHAR Dcaron
ENCODING 270
SWIDTH 846 0
DWIDTH 10 0
BBX 9 14 0 -1
BITMAP
010000
095000
1D0000
1F4500
140000
740000
741400
743C00
742C00
742C00
741400
740000
795540
7FF900
ENDCHAR
STARTCHAR dcaron
ENCODING 271
SWIDTH 846 0
DWIDTH 10 0
BBX 9 14 0 -1
BITMAP
010000
095000
1D0000
1F4500
140000
740000
741400
743C00
742C00
742C00
741400
740000
795540
7FF900
ENDCHAR
STARTCHAR Dcroat
ENCODING 272
SWIDTH 856 0
DWIDTH 10 0
BBX 9 10 0 -1
BITMAP
140000
740000
743C00
601C00
A10C00
F43C00
B40000
740000
795540
7FFD00
ENDCHAR
STARTCHAR dcroat
ENCODING 273
SWIDTH 856 0
DWIDTH 10 0
BBX 9 10 0 -1
BITMAP
140000
740000
743C00
601C00
A10C00
F43C00
B40000
740000
795540
7FFD00
ENDCHAR
STARTCHAR Emacron
ENCODING 274
SWIDTH 754 0
DWIDTH 9 0
BBX 9 13 0 -1
BITMAP
000100
180000
2C0000
240040
740000
743F40
740000
740000
741500
742400
740000
795540
7FFE00
ENDCHAR
STARTCHAR emacron
ENCODING 275
SWIDTH 754 0
DWIDTH 9 0
BBX 9 13 0 -1
BITMAP
000100
180000
2C0000
240040
740000
743F40
740000
740000
741500
742400
740000
795540
7FFE00
ENDCHAR
STARTCHAR Ebreve
ENCODING 276
SWIDTH 754 0
DWIDTH 9 0
BBX 9 14 0 -1
BITMAP
000400
081000
2C0000
2E0000
140040
740000
743F40
740000
740000
741500
742400
740000
795540
7FFE00
ENDCHAR
STARTCHAR ebreve
ENCODING 277
SWIDTH 754 0
DWIDTH 9 0
BBX 9 14 0 -1
BITMAP
000400
081000
2C0000
2E0000
140040
740000
743F40
740000
740000
741500
742400
740000
795540
7FFE00
ENDCHAR
STARTCHAR Edotaccent
ENCODING 278
SWIDTH 754 0
DWIDTH 9 0
BBX 9 13 0 -1
BITMAP
020000
0B0000
0B0000
140040
740000
743F40
740000
740000
741500
742400
740000
795540
7FFE00
ENDCHAR
STARTCHAR edotaccent
ENCODING 279
SWIDTH 754 0
DWIDTH 9 0
BBX 9 13 0 -1
BITMAP
020000
0B0000
0B0000
140040
740000
743F40
740000
740000
741500
742400
740000
795540
7FFE00
ENDCHAR
STARTCHAR Eogonek
ENCODING 280
SWIDTH 754 0
DWIDTH 9 0
BBX 9 13 0 -4
BITMAP
140040
740000
743F40
740000
740000
741400
742400
740000
795040
7FE140
00F440
00FF40
001400
ENDCHAR
STARTCHAR eogonek
ENCODING 281
SWIDTH 754 0
DWIDTH 9 0
BBX 9 13 0 -4
BITMAP
140040
740000
743F40
740000
740000
741400
742400
740000
795040
7FE140
00F440
00FF40
001400
ENDCHAR
STARTCHAR Ecaron
ENCODING 282
SWIDTH 754 0
DWIDTH 9 0
BBX 9 14 0 -1
BITMAP
010000
0C4000
2C0000
2E4400
140040
740000
743F40
740000
740000
741500
742400
740000
795540
7FFE00
ENDCHAR
STARTCHAR ecaron
ENCODING 283
SWIDTH 754 0
DWIDTH 9 0
BBX 9 14 0 -1
BITMAP
010000
0C4000
2C0000
2E4400
140040
740000
743F40
740000
740000
741500
742400
740000
795540
7FFE00
ENDCHAR
STARTCHAR Gcircumflex
ENCODING 284
SWIDTH 808 0
DWIDTH 10 0
BBX 9 13 0 -1
BITMAP
010000
090000
1EBE40
1D0000
141540
303E00
B01400
B01800
B07800
B01000
B40100
7E5540
1FFF00
ENDCHAR
STARTCHAR gcircumflex
ENCODING 285
SWIDTH 808 0
DWIDTH 10 0
BBX 9 13 0 -1
BITMAP
010000
090000
1EBE40
1D0000
141540
303E00
B01400
B01800
B07800
B01000
B40100
7E5540
1FFF00
ENDCHAR
STARTCHAR Gbreve
ENCODING 286
SWIDTH 808 0
DWIDTH 10 0
BBX 9 14 0 -1
BITMAP
010400
091400
1D0000
1F4000
094000
141540
703E00
B01400
B01800
B07800
B01000
B40100
7E5540
1FFF00
ENDCHAR
STARTCHAR gbreve
ENCODING 287
SWIDTH 808 0
DWIDTH 10 0
BBX 9 14 0 -1
BITMAP
010400
091400
1D0000
1F4000
094000
141540
703E00
B01400
B01800
B07800
B01000
B40100
7E5540
1FFF00
ENDCHAR
STARTCHAR Gdotaccent
ENCODING 288
SWIDTH 808 0
DWIDTH 10 0
BBX 9 13 0 -1
BITMAP
014000
038000
078000
014000
141540
703E00
B01400
B01800
B07800
B01000
B40100
7E5540
1FFF00
ENDCHAR
STARTCHAR gdotaccent
ENCODING 289
SWIDTH 808 0
DWIDTH 10 0
BBX 9 13 0 -1
BITMAP
014000
038000
078000
014000
141540
703E00
B01400
B01800
B07800
B01000
B40100
7E5540
1FFF00
ENDCHAR
STARTCHAR Gcommaaccent
ENCODING 290
SWIDTH 808 0
DWIDTH 10 0
BBX 9 14 0 -5
BITMAP
015500
140040
703E00
B01400
B01800
B07800
B41000
B80100
7FAA80
1F4240
034000
079000
038000
03E000
ENDCHAR
STARTCHAR gcommaaccent
ENCODING 291
SWIDTH 808 0
DWIDTH 10 0
BBX 9 14 0 -5
BITMAP
015500
140040
703E00
B01400
B01800
B07800
B41000
B80100
7FAA80
1F4240
034000
079000
038000
03E000
ENDCHAR
STARTCHAR Hcircumflex
ENCODING 292
SWIDTH 859 0
DWIDTH 10 0
BBX 10 13 0 -1
BITMAP
010000
090000
1EBE40
146C10
742C00
741800
740000
740000
740000
743C00
743C00
796D50
7E2F80
ENDCHAR
STARTCHAR hcircumflex
ENCODING 293
SWIDTH 859 0
DWIDTH 10 0
BBX 10 13 0 -1
BITMAP
010000
090000
1EBE40
146C10
742C00
741800
740000
740000
740000
743C00
743C00
796D50
7E2F80
ENDCHAR
STARTCHAR Hbar
ENCODING 294
SWIDTH 879 0
DWIDTH 11 0
BBX 10 10 0 -1
BITMAP
140510
741800
A10040
F43C00
B40000
740040
740000
743C00
796E50
7E2F80
ENDCHAR
STARTCHAR hbar
ENCODING 295
SWIDTH 879 0
DWIDTH 11 0
BBX 10 10 0 -1
BITMAP
140510
741800
A10040
F43C00
B40000
740040
740000
743C00
796E50
7E2F80
ENDCHAR
STARTCHAR Itilde
ENCODING 296
SWIDTH 705 0
DWIDTH 8 0
BBX 8 12 0 -1
BITMAP
1400
3940
7400
7000
B905
BE04
0E00
0E00
0900
7000
B555
BFF8
ENDCHAR
STARTCHAR itilde
ENCODING 297
SWIDTH 705 0
DWIDTH 8 0
BBX 8 12 0 -1
BITMAP
1400
3940
7400
7000
B905
BE04
0E00
0E00
0900
7000
B555
BFF8
ENDCHAR
STARTCHAR Imacron
ENCODING 298
SWIDTH 705 0
DWIDTH 8 0
BBX 8 13 0 -1
BITMAP
0400
1400
3800
7AAA
7000
B905
BE04
0E00
0E00
0900
7000
B555
BFF8
ENDCHAR
STARTCHAR imacron
ENCODING 299
SWIDTH 705 0
DWIDTH 8 0
BBX 8 13 0 -1
BITMAP
0400
1400
3800
7AAA
7000
B905
BE04
0E00
0E00
0900
7000
B555
BFF8
ENDCHAR
STARTCHAR Ibreve
ENCODING 300
SWIDTH 705 0
DWIDTH 8 0
BBX 8 14 0 -1
BITMAP
0410
2450
7800
7D00
3400
7000
B905
BE04
0E00
0E00
0900
7000
B555
BFF8
ENDCHAR
STARTCHAR ibreve
ENCODING 301
SWIDTH 705 0
DWIDTH 8 0
BBX 8 14 0 -1
BITMAP
0410
2450
7800
7D00
3400
7000
B905
BE04
0E00
0E00
0900
7000
B555
BFF8
ENDCHAR
STARTCHAR Iogonek
ENCODING 302
SWIDTH 705 0
DWIDTH 8 0
BBX 8 13 0 -4
BITMAP
1000
7000
B905
BE04
0E00
0E00
0900
7004
B541
BFC5
02D0
02FD
0050
ENDCHAR
STARTCHAR iogonek
ENCODING 303
SWIDTH 705 0
DWIDTH 8 0
BBX 8 13 0 -4
BITMAP
1000
7000
B905
BE04
0E00
0E00
0900
7004
B541
BFC5
02D0
02FD
0050
ENDCHAR
STARTCHAR Idotaccent
ENCODING 304
SWIDTH 705 0
DWIDTH 8 0
BBX 8 13 0 -1
BITMAP
0600
0E00
0E00
1400
7000
B905
BE04
0E00
0E00
0900
7000
B555
BFF8
ENDCHAR
STARTCHAR dotlessi
ENCODING 305
SWIDTH 705 0
DWIDTH 8 0
BBX 8 10 0 -1
BITMAP
1000
7000
B905
BE04
0E00
0E00
0900
7000
B555
BFF8
ENDCHAR
STARTCHAR IJ
ENCODING 306
SWIDTH 844 0
DWIDTH 10 0
BBX 9 10 0 -1
BITMAP
144800
743800
743800
743800
743800
7F7800
696400
340000
795540
7FF900
ENDCHAR
STARTCHAR ij
ENCODING 307
SWIDTH 844 0
DWIDTH 10 0
BBX 9 10 0 -1
BITMAP
144800
743800
743800
743800
743800
7F7800
696400
340000
795540
7FF900
ENDCHAR
STARTCHAR Jcircumflex
ENCODING 308
SWIDTH 788 0
DWIDTH 9 0
BBX 10 13 0 -1
BITMAP
005010
01C000
02EB90
02B000
007000
00B000
00B000
60B000
B0B000
B01000
B40000
7E5900
1FE400
ENDCHAR
STARTCHAR jcircumflex
ENCODING 309
SWIDTH 788 0
DWIDTH 9 0
BBX 10 13 0 -1
BITMAP
005010
01C000
02EB90
02B000
007000
00B000
00B000
60B000
B0B000
B01000
B40000
7E5900
1FE400
ENDCHAR
STARTCHAR Kcommaaccent
ENCODING 310
SWIDTH 846 0
DWIDTH 10 0
BBX 9 14 0 -5
BITMAP
155500
743000
741000
750400
741400
743C00
743C00
742C00
795940
7F4240
034000
079000
038000
03E000
ENDCHAR
STARTCHAR kcommaaccent
ENCODING 311
SWIDTH 846 0
DWIDTH 10 0
BBX 9 14 0 -5
BITMAP
155500
743000
741000
750400
741400
743C00
743C00
742C00
795940
7F4240
034000
079000
038000
03E000
ENDCHAR
STARTCHAR kgreenlandic
ENCODING 312
SWIDTH 846 0
DWIDTH 10 0
BBX 10 10 0 -1
BITMAP
144400
743400
742000
740000
750400
741400
743C00
742C00
796D50
7E2F40
ENDCHAR
STARTCHAR Lacute
ENCODING 313
SWIDTH 795 0
DWIDTH 10 0
BBX 9 13 0 -1
BITMAP
06A900
240000
745000
741000
740000
740000
740000
741800
743800
741000
740100
795540
7FFF00
ENDCHAR
STARTCHAR lacute
ENCODING 314
SWIDTH 795 0
DWIDTH 10 0
BBX 9 13 0 -1
BITMAP
06A900
240000
745000
741000
740000
740000
740000
741800
743800
741000
740100
795540
7FFF00
ENDCHAR
STARTCHAR Lcommaaccent
ENCODING 315
SWIDTH 795 0
DWIDTH 10 0
BBX 9 14 0 -5
BITMAP
144000
740000
740000
740000
741800
743800
741000
740100
7EAA80
7F4200
074000
079000
079000
03D000
ENDCHAR
STARTCHAR lcommaaccent
ENCODING 316
SWIDTH 795 0
DWIDTH 10 0
BBX 9 14 0 -5
BITMAP
144000
740000
740000
740000
741800
743800
741000
740100
7EAA80
7F4200
074000
079000
079000
03D000
ENDCHAR
STARTCHAR Lcaron
ENCODING 317
SWIDTH 795 0
DWIDTH 10 0
BBX 9 10 0 -1
BITMAP
145400
743400
743540
743E00
742800
743800
741000
740100
795540
7FFF00
ENDCHAR
STARTCHAR lcaron
ENCODING 318
SWIDTH 795 0
DWIDTH 10 0
BBX 9 10 0 -1
BITMAP
145400
743400
743540
743E00
742800
743800
741000
740100
795540
7FFF00
ENDCHAR
STARTCHAR Ldot
ENCODING 319
SWIDTH 795 0
DWIDTH 10 0
BBX 9 10 0 -1
BITMAP
144000
740400
742400
743940
743E40
742800
741000
740100
795540
7FFF00
ENDCHAR
STARTCHAR ldot
ENCODING 320
SWIDTH 795 0
DWIDTH 10 0
BBX 9 10 0 -1
BITMAP
144000
740400
742400
743940
743E40
742800
741000
740100
795540
7FFF00
ENDCHAR
STARTCHAR Lslash
ENCODING 321
SWIDTH 805 0
DWIDTH 10 0
BBX 9 10 0 -1
BITMAP
140000
740000
740000
610400
E02800
F43800
B41000
740000
795540
7FFF40
ENDCHAR
STARTCHAR lslash
ENCODING 322
SWIDTH 805 0
DWIDTH 10 0
BBX 9 10 0 -1
BITMAP
140000
740000
740000
610400
E02800
F43800
B41000
740000
795540
7FFF40
ENDCHAR
STARTCHAR Nacute
ENCODING 323
SWIDTH 853 0
DWIDTH 10 0
BBX 10 13 0 -1
BITMAP
015540
060000
0E1500
146C00
751C00
740400
740000
741000
743000
743800
743C00
796D50
7E2F40
ENDCHAR
STARTCHAR nacute
ENCODING 324
SWIDTH 853 0
DWIDTH 10 0
BBX 10 13 0 -1
BITMAP
015540
060000
0E1500
146C00
751C00
740400
740000
741000
743000
743800
743C00
796D50
7E2F40
ENDCHAR
STARTCHAR Ncommaaccent
ENCODING 325
SWIDTH 853 0
DWIDTH 10 0
BBX 10 14 0 -5
BITMAP
155840
741800
740000
740000
742000
743400
743C00
743C00
795950
7F8240
038000
079000
038000
03E000
ENDCHAR
STARTCHAR ncommaaccent
ENCODING 326
SWIDTH 853 0
DWIDTH 10 0
BBX 10 14 0 -5
BITMAP
155840
741800
740000
740000
742000
743400
743C00
743C00
795950
7F8240
038000
079000
038000
03E000
ENDCHAR
STARTCHAR Ncaron
ENCODING 327
SWIDTH 853 0
DWIDTH 10 0
BBX 10 13 0 -1
BITMAP
050000
1D0000
1F4400
146800
751C00
740400
740000
741000
743000
743800
743C00
796D50
7E2F40
ENDCHAR
STARTCHAR ncaron
ENCODING 328
SWIDTH 853 0
DWIDTH 10 0
BBX 10 13 0 -1
BITMAP
050000
1D0000
1F4400
146800
751C00
740400
740000
741000
743000
743800
743C00
796D50
7E2F40
ENDCHAR
STARTCHAR napostrophe
ENCODING 329
SWIDTH 853 0
DWIDTH 10 0
BBX 10 14 0 -1
BITMAP
204000
B04000
B50000
740000
794950
752C00
740400
740000
741000
743000
743800
743C00
796D50
7E2F40
ENDCHAR
STARTCHAR Eng
ENCODING 330
SWIDTH 846 0
DWIDTH 10 0
BBX 10 11 0 -2
BITMAP
005500
140000
703800
703800
B03800
B03800
B03800
B02400
B9A010
7EE540
00FD00
ENDCHAR
STARTCHAR eng
ENCODING 331
SWIDTH 846 0
DWIDTH 10 0
BBX 10 11 0 -2
BITMAP
005500
140000
703800
703800
B03800
B03800
B03800
B02400
B9A010
7EE540
00FD00
ENDCHAR
STARTCHAR Omacron
ENCODING 332
SWIDTH 837 0
DWIDTH 10 0
BBX 9 13 0 -1
BITMAP
010000
0D0000
1D0000
1E9640
340000
703800
B03800
B03800
B03800
B01400
B40000
7E9640
1BF900
ENDCHAR
STARTCHAR omacron
ENCODING 333
SWIDTH 837 0
DWIDTH 10 0
BBX 9 13 0 -1
BITMAP
010000
0D0000
1D0000
1E9640
340000
703800
B03800
B03800
B03800
B01400
B40000
7E9640
1BF900
ENDCHAR
STARTCHAR Obreve
ENCODING 334
SWIDTH 837 0
DWIDTH 10 0
BBX 9 14 0 -1
BITMAP
010400
091400
1D0000
1E4100
0E5500
240000
703800
B03800
B03800
B03800
B01400
B40000
7E9640
1BF900
ENDCHAR
STARTCHAR obreve
ENCODING 335
SWIDTH 837 0
DWIDTH 10 0
BBX 9 14 0 -1
BITMAP
010400
091400
1D0000
1E4100
0E5500
240000
703800
B03800
B03800
B03800
B01400
B40000
7E9640
1BF900
ENDCHAR
STARTCHAR Ohungarumlaut
ENCODING 336
SWIDTH 837 0
DWIDTH 10 0
BBX 9 14 0 -1
BITMAP
060800
0E1800
1D2400
1D2400
1E9640
340000
703800
B03800
B03800
B03800
B01400
B40000
7E9640
1BF900
ENDCHAR
STARTCHAR ohungarumlaut
ENCODING 337
SWIDTH 837 0
DWIDTH 10 0
BBX 9 14 0 -1
BITMAP
060800
0E1800
1D2400
1D2400
1E9640
340000
703800
B03800
B03800
B03800
B01400
B40000
7E9640
1BF900
ENDCHAR
STARTCHAR OE
ENCODING 338
SWIDTH 1115 0
DWIDTH 13 0
BBX 13 9 0 -1
BITMAP
14000000
70382F40
B0780000
B0784000
B0781500
B0241900
B4000000
7E555540
1FFFFE00
ENDCHAR
STARTCHAR oe
ENCODING 339
SWIDTH 1115 0
DWIDTH 13 0
BBX 13 9 0 -1
BITMAP
14000000
70382F40
B0780000
B0784000
B0781500
B0241900
B4000000
7E555540
1FFFFE00
ENDCHAR
STARTCHAR Racute
ENCODING 340
SWIDTH 843 0
DWIDTH 10 0
BBX 10 13 0 -1
BITMAP
015540
090000
1D1500
140040
740000
743400
742040
740100
740000
743C00
742C00
796D50
7E2F80
ENDCHAR
STARTCHAR racute
ENCODING 341
SWIDTH 843 0
DWIDTH 10 0
BBX 10 13 0 -1
BITMAP
015540
090000
1D1500
140040
740000
743400
742040
740100
740000
743C00
742C00
796D50
7E2F80
ENDCHAR
STARTCHAR Rcommaaccent
ENCODING 342
SWIDTH 843 0
DWIDTH 10 0
BBX 10 14 0 -5
BITMAP
155500
740000
743400
742040
740100
740000
743C00
742C00
799950
7F8280
038000
03D000
038000
03E000
ENDCHAR
STARTCHAR rcommaaccent
ENCODING 343
SWIDTH 843 0
DWIDTH 10 0
BBX 10 14 0 -5
BITMAP
155500
740000
743400
742040
740100
740000
743C00
742C00
799950
7F8280
038000
03D000
038000
03E000
ENDCHAR
STARTCHAR Rcaron
ENCODING 344
SWIDTH 843 0
DWIDTH 10 0
BBX 10 14 0 -1
BITMAP
010000
095000
1D0000
1F4500
195500
740000
743400
742040
740100
740000
743C00
742C00
796D50
7E2F80
ENDCHAR
STARTCHAR rcaron
ENCODING 345
SWIDTH 843 0
DWIDTH 10 0
BBX 10 14 0 -1
BITMAP
010000
095000
1D0000
1F4500
195500
740000
743400
742040
740100
740000
743C00
742C00
796D50
7E2F80
ENDCHAR
STARTCHAR Sacute
ENCODING 346
SWIDTH 750 0
DWIDTH 9 0
BBX 8 13 0 -1
BITMAP
0155
0800
2C54
2900
2000
702E
B000
B400
7FA0
2000
7000
B555
BFF4
ENDCHAR
STARTCHAR sacute
ENCODING 347
SWIDTH 750 0
DWIDTH 9 0
BBX 8 13 0 -1
BITMAP
0155
0800
2C54
2900
2000
702E
B000
B400
7FA0
2000
7000
B555
BFF4
ENDCHAR
STARTCHAR Scircumflex
ENCODING 348
SWIDTH 750 0
DWIDTH 9 0
BBX 8 13 0 -1
BITMAP
0401
1800
3DA9
3900
2000
702E
B000
B400
7FA0
2000
7000
B555
BFF4
ENDCHAR
STARTCHAR scircumflex
ENCODING 349
SWIDTH 750 0
DWIDTH 9 0
BBX 8 13 0 -1
BITMAP
0401
1800
3DA9
3900
2000
702E
B000
B400
7FA0
2000
7000
B555
BFF4
ENDCHAR
STARTCHAR Scedilla
ENCODING 350
SWIDTH 750 0
DWIDTH 9 0
BBX 8 11 0 -3
BITMAP
2000
702E
B000
B400
7FA0
2000
7010
B504
BE04
0FD0
0500
ENDCHAR
STARTCHAR scedilla
ENCODING 351
SWIDTH 750 0
DWIDTH 9 0
BBX 8 11 0 -3
BITMAP
2000
702E
B000
B400
7FA0
2000
7010
B504
BE04
0FD0
0500
ENDCHAR
STARTCHAR Scaron
ENCODING 352
SWIDTH 750 0
DWIDTH 9 0
BBX 8 14 0 -1
BITMAP
0100
1840
2C00
2E44
1900
1000
702E
B000
B400
7FA0
2000
7000
B555
BFF4
ENDCHAR
STARTCHAR scaron
ENCODING 353
SWIDTH 750 0
DWIDTH 9 0
BBX 8 14 0 -1
BITMAP
0100
1840
2C00
2E44
1900
1000
702E
B000
B400
7FA0
2000
7000
B555
BFF4
ENDCHAR
STARTCHAR Tcommaaccent
ENCODING 354
SWIDTH 756 0
DWIDTH 9 0
BBX 9 14 0 -5
BITMAP
115540
E00040
FF0740
5B0400
0B0000
0B0000
0B0000
0B0000
0BA400
0B0000
0B0000
0B9000
0B4000
0B8000
ENDCHAR
STARTCHAR tcommaaccent
ENCODING 355
SWIDTH 756 0
DWIDTH 9 0
BBX 9 14 0 -5
BITMAP
115540
E00040
FF0740
5B0400
0B0000
0B0000
0B0000
0B0000
0BA400
0B0000
0B0000
0B9000
0B4000
0B8000
ENDCHAR
STARTCHAR Tcaron
ENCODING 356
SWIDTH 756 0
DWIDTH 9 0
BBX 9 14 0 -1
BITMAP
050000
184000
380000
3E4400
200040
A11140
FF0740
5B0400
0B0000
0B0000
0B0000
0B0000
0B5400
0BE000
ENDCHAR
STARTCHAR tcaron
ENCODING 357
SWIDTH 756 0
DWIDTH 9 0
BBX 9 14 0 -1
BITMAP
050000
184000
380000
3E4400
200040
A11140
FF0740
5B0400
0B0000
0B0000
0B0000
0B0000
0B5400
0BE000
ENDCHAR
STARTCHAR Tbar
ENCODING 358
SWIDTH 756 0
DWIDTH 9 0
BBX 9 10 0 -1
BITMAP
100040
E01000
FF0740
5A0100
281000
390100
3F0500
1B0000
0B5400
0BE000
ENDCHAR
STARTCHAR tbar
ENCODING 359
SWIDTH 756 0
DWIDTH 9 0
BBX 9 10 0 -1
BITMAP
100040
E01000
FF0740
5A0100
281000
390100
3F0500
1B0000
0B5400
0BE000
ENDCHAR
STARTCHAR Utilde
ENCODING 360
SWIDTH 846 0
DWIDTH 10 0
BBX 10 13 0 -1
BITMAP
050400
0D0000
1D5000
147C10
702C00
B02C00
B02C00
B02C00
B02C00
B41400
780000
7E9640
1BF900
ENDCHAR
STARTCHAR utilde
ENCODING 361
SWIDTH 846 0
DWIDTH 10 0
BBX 10 13 0 -1
BITMAP
050400
0D0000
1D5000
147C10
702C00
B02C00
B02C00
B02C00
B02C00
B41400
780000
7E9640
1BF900
ENDCHAR
STARTCHAR Umacron
ENCODING 362
SWIDTH 846 0
DWIDTH 10 0
BBX 10 13 0 -1
BITMAP
010000
090000
1D0000
1ABE90
702C00
B02C00
B02C00
B02C00
B02C00
B41400
780000
7E9640
1BF900
ENDCHAR
STARTCHAR umacron
ENCODING 363
SWIDTH 846 0
DWIDTH 10 0
BBX 10 13 0 -1
BITMAP
010000
090000
1D0000
1ABE90
702C00
B02C00
B02C00
B02C00
B02C00
B41400
780000
7E9640
1BF900
ENDCHAR
STARTCHAR Ubreve
ENCODING 364
SWIDTH 846 0
DWIDTH 10 0
BBX 10 14 0 -1
BITMAP
010400
091400
1D0000
1F4000
147C10
702C00
B02C00
B02C00
B02C00
B02C00
B41400
780000
7E9640
1BF900
ENDCHAR
STARTCHAR ubreve
ENCODING 365
SWIDTH 846 0
DWIDTH 10 0
BBX 10 14 0 -1
BITMAP
010400
091400
1D0000
1F4000
147C10
702C00
B02C00
B02C00
B02C00
B02C00
B41400
780000
7E9640
1BF900
ENDCHAR
STARTCHAR Uring
ENCODING 366
SWIDTH 846 0
DWIDTH 10 0
BBX 10 15 0 -1
BITMAP
011000
092800
1D1000
1D0000
1E4000
147C10
702C00
B02C00
B02C00
B02C00
B02C00
B42800
780000
7E9640
1BF900
ENDCHAR
STARTCHAR uring
ENCODING 367
SWIDTH 846 0
DWIDTH 10 0
BBX 10 15 0 -1
BITMAP
011000
092800
1D1000
1D0000
1E4000
147C10
702C00
B02C00
B02C00
B02C00
B02C00
B42800
780000
7E9640
1BF900
ENDCHAR
STARTCHAR Uhungarumlaut
ENCODING 368
SWIDTH 846 0
DWIDTH 10 0
BBX 10 14 0 -1
BITMAP
020800
0A1800
0D1800
0D2400
1ABE90
702C00
B02C00
B02C00
B02C00
B02C00
B41400
780000
7E9640
1BF900
ENDCHAR
STARTCHAR uhungarumlaut
ENCODING 369
SWIDTH 846 0
DWIDTH 10 0
BBX 10 14 0 -1
BITMAP
020800
0A1800
0D1800
0D2400
1ABE90
702C00
B02C00
B02C00
B02C00
B02C00
B41400
780000
7E9640
1BF900
ENDCHAR
STARTCHAR Uogonek
ENCODING 370
SWIDTH 846 0
DWIDTH 10 0
BBX 9 13 0 -4
BITMAP
144400
702C00
B02C00
B02C00
B02C00
B02C00
B41400
740400
7E4140
1F8100
03D100
03F800
005000
ENDCHAR
STARTCHAR uogonek
ENCODING 371
SWIDTH 846 0
DWIDTH 10 0
BBX 9 13 0 -4
BITMAP
144400
702C00
B02C00
B02C00
B02C00
B02C00
B41400
740400
7E4140
1F8100
03D100
03F800
005000
ENDCHAR
STARTCHAR Wcircumflex
ENCODING 372
SWIDTH 931 0
DWIDTH 11 0
BBX 11 13 0 -1
BITMAP
010000
060000
0BBF80
146F04
700B00
B00700
B05200
B00000
B00000
B40800
781C40
3D6E50
2F5F80
ENDCHAR
STARTCHAR wcircumflex
ENCODING 373
SWIDTH 931 0
DWIDTH 11 0
BBX 11 13 0 -1
BITMAP
010000
060000
0BBF80
146F04
700B00
B00700
B05200
B00000
B00000
B40800
781C40
3D6E50
2F5F80
ENDCHAR
STARTCHAR Ycircumflex
ENCODING 374
SWIDTH 805 0
DWIDTH 10 0
BBX 8 13 0 -1
BITMAP
0100
0C00
2EBA
2078
B038
B038
B024
B800
7D10
2F00
0B40
0794
07E0
ENDCHAR
STARTCHAR ycircumflex
ENCODING 375
SWIDTH 805 0
DWIDTH 10 0
BBX 8 13 0 -1
BITMAP
0100
0C00
2EBA
2078
B038
B038
B024
B800
7D10
2F00
0B40
0794
07E0
ENDCHAR
STARTCHAR Ydieresis
ENCODING 376
SWIDTH 805 0
DWIDTH 10 0
BBX 10 13 0 -1
BITMAP
001000
182000
382000
3ABE50
B07800
B03800
B03400
B40000
7D1000
2F0000
0B4000
079400
07E000
ENDCHAR
STARTCHAR Zacute
ENCODING 377
SWIDTH 760 0
DWIDTH 9 0
BBX 9 13 0 -1
BITMAP
015500
080000
2C5400
240000
754000
BF8000
160000
080000
140000
700000
B00000
B55540
BFFE00
ENDCHAR
STARTCHAR zacute
ENCODING 378
SWIDTH 760 0
DWIDTH 9 0
BBX 9 13 0 -1
BITMAP
015500
080000
2C5400
240000
754000
BF8000
160000
080000
140000
700000
B00000
B55540
BFFE00
ENDCHAR
STARTCHAR Zdotaccent
ENCODING 379
SWIDTH 760 0
DWIDTH 9 0
BBX 9 13 0 -1
BITMAP
020000
0B0000
0B0000
140000
754000
BF8000
160000
080000
140000
700000
B00000
B55540
BFFE00
ENDCHAR
STARTCHAR zdotaccent
ENCODING 380
SWIDTH 760 0
DWIDTH 9 0
BBX 9 13 0 -1
BITMAP
020000
0B0000
0B0000
140000
754000
BF8000
160000
080000
140000
700000
B00000
B55540
BFFE00
ENDCHAR
STARTCHAR Zcaron
ENCODING 381
SWIDTH 760 0
DWIDTH 9 0
BBX 9 14 0 -1
BITMAP
050000
184100
280000
3E4400
240000
754000
BF8000
160000
080000
140000
700000
B00000
B55540
BFFE00
ENDCHAR
STARTCHAR zcaron
ENCODING 382
SWIDTH 760 0
DWIDTH 9 0
BBX 9 14 0 -1
BITMAP
050000
184100
280000
3E4400
240000
754000
BF8000
160000
080000
140000
700000
B00000
B55540
BFFE00
ENDCHAR
STARTCHAR Schwa
ENCODING 399
SWIDTH 815 0
DWIDTH 10 0
BBX 9 10 0 -1
BITMAP
045500
2C0100
2FF800
200000
700100
B07800
B00000
B40000
7E9640
2FF800
ENDCHAR
STARTCHAR florin
ENCODING 402
SWIDTH 674 0
DWIDTH 8 0
BBX 8 10 0 -1
BITMAP
0001
0200
0D05
1904
B040
BD0A
7004
B010
B550
BE00
ENDCHAR
STARTCHAR Ohorn
ENCODING 416
SWIDTH 847 0
DWIDTH 10 0
BBX 10 11 0 -1
BITMAP
000100
000510
140000
703800
B03800
B03800
B03800
B01400
B40000
7E9600
1FF800
ENDCHAR
STARTCHAR ohorn
ENCODING 417
SWIDTH 847 0
DWIDTH 10 0
BBX 10 11 0 -1
BITMAP
000100
000510
140000
703800
B03800
B03800
B03800
B01400
B40000
7E9600
1FF800
ENDCHAR
STARTCHAR Uhorn
ENCODING 431
SWIDTH 856 0
DWIDTH 10 0
BBX 9 12 0 -1
BITMAP
000040
000240
144800
702C40
B02C00
B02C00
B02C00
B02C00
B41400
780000
7E9640
1BF900
ENDCHAR
STARTCHAR uhorn
ENCODING 432
SWIDTH 856 0
DWIDTH 10 0
BBX 9 12 0 -1
BITMAP
000040
000240
144800
702C40
B02C00
B02C00
B02C00
B02C00
B41400
780000
7E9640
1BF900
ENDCHAR
STARTCHAR Acaron
ENCODING 461
SWIDTH 830 0
DWIDTH 10 0
BBX 10 14 0 -1
BITMAP
010000
094000
1D0000
1F4500
0A0000
080000
182400
243400
300000
710000
B00000
B07800
B57D50
BE2F40
ENDCHAR
STARTCHAR acaron
ENCODING 462
SWIDTH 830 0
DWIDTH 10 0
BBX 10 14 0 -1
BITMAP
010000
094000
1D0000
1F4500
0A0000
080000
182400
243400
300000
710000
B00000
B07800
B57D50
BE2F40
ENDCHAR
STARTCHAR Icaron
ENCODING 463
SWIDTH 705 0
DWIDTH 8 0
BBX 8 14 0 -1
BITMAP
0500
1940
3800
7E04
2400
7000
B905
BE04
0E00
0E00
0900
7000
B555
BFF8
ENDCHAR
STARTCHAR icaron
ENCODING 464
SWIDTH 705 0
DWIDTH 8 0
BBX 8 14 0 -1
BITMAP
0500
1940
3800
7E04
2400
7000
B905
BE04
0E00
0E00
0900
7000
B555
BFF8
ENDCHAR
STARTCHAR Ocaron
ENCODING 465
SWIDTH 837 0
DWIDTH 10 0
BBX 9 14 0 -1
BITMAP
010000
094000
1D0000
1F4500
094000
240000
703800
B03800
B03800
B03800
B01400
B40000
7E9640
1BF900
ENDCHAR
STARTCHAR ocaron
ENCODING 466
SWIDTH 837 0
DWIDTH 10 0
BBX 9 14 0 -1
BITMAP
010000
094000
1D0000
1F4500
094000
240000
703800
B03800
B03800
B03800
B01400
B40000
7E9640
1BF900
ENDCHAR
STARTCHAR Ucaron
ENCODING 467
SWIDTH 846 0
DWIDTH 10 0
BBX 10 13 0 -1
BITMAP
050000
1D0000
1F4500
146C10
702C00
B02C00
B02C00
B02C00
B02C00
B41400
780000
7E9640
1BF900
ENDCHAR
STARTCHAR ucaron
ENCODING 468
SWIDTH 846 0
DWIDTH 10 0
BBX 10 13 0 -1
BITMAP
050000
1D0000
1F4500
146C10
702C00
B02C00
B02C00
B02C00
B02C00
B41400
780000
7E9640
1BF900
ENDCHAR
STARTCHAR Udieresismacron
ENCODING 469
SWIDTH 846 0
DWIDTH 10 0
BBX 10 16 0 -1
BITMAP
010000
090000
1E6540
1C1000
1C1000
2C2400
2ABE90
702C00
B02C00
B02C00
B02C00
B02C00
B41400
780000
7E9640
1BF900
ENDCHAR
STARTCHAR udieresismacron
ENCODING 470
SWIDTH 846 0
DWIDTH 10 0
BBX 10 16 0 -1
BITMAP
010000
090000
1E6540
1C1000
1C1000
2C2400
2ABE90
702C00
B02C00
B02C00
B02C00
B02C00
B41400
780000
7E9640
1BF900
ENDCHAR
STARTCHAR Udieresisacute
ENCODING 471
SWIDTH 846 0
DWIDTH 10 0
BBX 10 17 0 -1
BITMAP
000500
007D00
02C000
018500
0C1000
2C1000
2C2400
7ABE90
B02C00
B02C00
B02C00
B02C00
B02C00
B41400
780000
7E9640
1BF900
ENDCHAR
STARTCHAR udieresisacute
ENCODING 472
SWIDTH 846 0
DWIDTH 10 0
BBX 10 17 0 -1
BITMAP
000500
007D00
02C000
018500
0C1000
2C1000
2C2400
7ABE90
B02C00
B02C00
B02C00
B02C00
B02C00
B41400
780000
7E9640
1BF900
ENDCHAR
STARTCHAR Udieresiscaron
ENCODING 473
SWIDTH 846 0
DWIDTH 10 0
BBX 10 17 0 -1
BITMAP
010000
094000
1E0000
1EA900
0C1000
1C1000
2C2400
2ABE90
702C00
B02C00
B02C00
B02C00
B02C00
B41400
780000
7E9640
1BF900
ENDCHAR
STARTCHAR udieresiscaron
ENCODING 474
SWIDTH 846 0
DWIDTH 10 0
BBX 10 17 0 -1
BITMAP
010000
094000
1E0000
1EA900
0C1000
1C1000
2C2400
2ABE90
702C00
B02C00
B02C00
B02C00
B02C00
B41400
780000
7E9640
1BF900
ENDCHAR
STARTCHAR Udieresisgrave
ENCODING 475
SWIDTH 846 0
DWIDTH 10 0
BBX 10 17 0 -1
BITMAP
005000
02FC00
074400
060400
0C1000
2C1000
2C2400
7ABE90
B02C00
B02C00
B02C00
B02C00
B02C00
B41400
780000
7E9640
1BF900
ENDCHAR
STARTCHAR udieresisgrave
ENCODING 476
SWIDTH 846 0
DWIDTH 10 0
BBX 10 17 0 -1
BITMAP
005000
02FC00
074400
060400
0C1000
2C1000
2C2400
7ABE90
B02C00
B02C00
B02C00
B02C00
B02C00
B41400
780000
7E9640
1BF900
ENDCHAR
STARTCHAR Gcaron
ENCODING 486
SWIDTH 808 0
DWIDTH 10 0
BBX 9 14 0 -1
BITMAP
010000
094000
2C0000
2F4500
194000
141540
703E00
B01400
B01800
B07800
B01000
B40100
7E5540
1FFF00
ENDCHAR
STARTCHAR gcaron
ENCODING 487
SWIDTH 808 0
DWIDTH 10 0
BBX 9 14 0 -1
BITMAP
010000
094000
2C0000
2F4500
194000
141540
703E00
B01400
B01800
B07800
B01000
B40100
7E5540
1FFF00
ENDCHAR
STARTCHAR Scommaaccent
ENCODING 536
SWIDTH 750 0
DWIDTH 9 0
BBX 8 14 0 -5
BITMAP
0154
2000
702E
B000
B800
7FE0
2000
7000
BAA9
BF00
0704
0B90
0B40
0780
ENDCHAR
STARTCHAR scommaaccent
ENCODING 537
SWIDTH 750 0
DWIDTH 9 0
BBX 8 14 0 -5
BITMAP
0154
2000
702E
B000
B800
7FE0
2000
7000
BAA9
BF00
0704
0B90
0B40
0780
ENDCHAR
STARTCHAR uni021A
ENCODING 538
SWIDTH 756 0
DWIDTH 9 0
BBX 9 14 0 -5
BITMAP
115540
E00040
FF0740
5B0400
0B0000
0B0000
0B0000
0B0000
0BA400
0B0000
0B0000
0B9000
0B4000
0B8000
ENDCHAR
STARTCHAR uni021B
ENCODING 539
SWIDTH 756 0
DWIDTH 9 0
BBX 9 14 0 -5
BITMAP
115540
E00040
FF0740
5B0400
0B0000
0B0000
0B0000
0B0000
0BA400
0B0000
0B0000
0B9000
0B4000
0B8000
ENDCHAR
STARTCHAR dotlessj
ENCODING 567
SWIDTH 788 0
DWIDTH 9 0
BBX 9 10 0 -1
BITMAP
001440
007000
00B000
00B000
60B000
B0B000
B01000
B40000
7E5900
1FE400
ENDCHAR
STARTCHAR ascript
ENCODING 593
SWIDTH 846 0
DWIDTH 10 0
BBX 10 10 0 -1
BITMAP
005500
140000
703800
B07800
B03800
B03800
B01000
B40000
7E5550
2FFF40
ENDCHAR
STARTCHAR schwa
ENCODING 601
SWIDTH 815 0
DWIDTH 10 0
BBX 9 10 0 -1
BITMAP
045500
2C0100
2FF800
200000
700100
B07800
B00000
B40000
7E9640
2FF800
ENDCHAR
STARTCHAR gscript
ENCODING 609
SWIDTH 815 0
DWIDTH 10 0
BBX 8 11 0 -3
BITMAP
1400
7024
B078
B000
B900
7FF8
1800
1C00
2C01
2FFD
0550
ENDCHAR
STARTCHAR commaturnedmod
ENCODING 699
SWIDTH 600 0
DWIDTH 7 0
BBX 5 6 1 3
BITMAP
0540
3140
B000
B040
BF00
1400
ENDCHAR
STARTCHAR apostrophemod
ENCODING 700
SWIDTH 600 0
DWIDTH 7 0
BBX 5 5 1 4
BITMAP
2000
B040
B900
B400
7800
ENDCHAR
STARTCHAR ringhalfright
ENCODING 702
SWIDTH 412 0
DWIDTH 5 0
BBX 5 6 0 3
BITMAP
1100
A000
FC00
6540
FE00
5400
ENDCHAR
STARTCHAR ringhalfleft
ENCODING 703
SWIDTH 412 0
DWIDTH 5 0
BBX 5 6 0 3
BITMAP
1540
6140
E000
F540
BF40
1400
ENDCHAR
STARTCHAR circumflex
ENCODING 710
SWIDTH 600 0
DWIDTH 7 0
BBX 7 4 0 7
BITMAP
1004
B150
BFF4
5050
ENDCHAR
STARTCHAR caron
ENCODING 711
SWIDTH 600 0
DWIDTH 7 0
BBX 7 5 0 7
BITMAP
1004
B000
B914
BFD0
0500
ENDCHAR
STARTCHAR verticallinemod
ENCODING 712
SWIDTH 456 0
DWIDTH 5 0
BBX 5 7 0 2
BITMAP
1440
7000
B000
B000
B440
BF40
1400
ENDCHAR
STARTCHAR firsttonechinese
ENCODING 713
SWIDTH 600 0
DWIDTH 7 0
BBX 7 4 0 7
BITMAP
6000
B000
BFF4
5540
ENDCHAR
STARTCHAR secondtonechinese
ENCODING 714
SWIDTH 600 0
DWIDTH 7 0
BBX 7 4 0 7
BITMAP
2000
B154
BFE0
5400
ENDCHAR
STARTCHAR fourthtonechinese
ENCODING 715
SWIDTH 600 0
DWIDTH 7 0
BBX 7 5 0 7
BITMAP
1000
7000
B944
BFF4
0140
ENDCHAR
STARTCHAR verticallinelowmod
ENCODING 716
SWIDTH 456 0
DWIDTH 5 0
BBX 5 7 0 -4
BITMAP
1440
7000
B000
B000
B440
BF40
1400
ENDCHAR
STARTCHAR breve
ENCODING 728
SWIDTH 600 0
DWIDTH 7 0
BBX 7 5 0 7
BITMAP
0010
6040
F514
BFE0
1540
ENDCHAR
STARTCHAR dotaccent
ENCODING 729
SWIDTH 600 0
DWIDTH 7 0
BBX 5 4 1 7
BITMAP
3000
B000
BF40
5400
ENDCHAR
STARTCHAR ring
ENCODING 730
SWIDTH 600 0
DWIDTH 7 0
BBX 7 6 0 7
BITMAP
1040
A1C0
E040
F514
BFE0
1540
ENDCHAR
STARTCHAR ogonek
ENCODING 731
SWIDTH 600 0
DWIDTH 7 0
BBX 5 6 1 -4
BITMAP
0500
2400
7100
B400
BF40
1400
ENDCHAR
STARTCHAR tilde
ENCODING 732
SWIDTH 600 0
DWIDTH 7 0
BBX 7 4 0 7
BITMAP
2000
B104
BFF0
5540
ENDCHAR
STARTCHAR hungarumlaut
ENCODING 733
SWIDTH 600 0
DWIDTH 7 0
BBX 9 6 -1 7
BITMAP
000400
082000
286000
34A000
7FF800
145000
ENDCHAR
STARTCHAR gravecmb
ENCODING 768
SWIDTH 100 0
DWIDTH 1 0
BBX 7 5 -3 7
BITMAP
1000
7000
B944
BFF4
0140
ENDCHAR
STARTCHAR acutecmb
ENCODING 769
SWIDTH 100 0
DWIDTH 1 0
BBX 7 4 -3 7
BITMAP
2000
B154
BFE0
5400
ENDCHAR
STARTCHAR circumflexcmb
ENCODING 770
SWIDTH 100 0
DWIDTH 1 0
BBX 7 4 -3 7
BITMAP
1004
B150
BFF4
5050
ENDCHAR
STARTCHAR tildecmb
ENCODING 771
SWIDTH 100 0
DWIDTH 1 0
BBX 7 4 -3 7
BITMAP
2000
B104
BFF0
5540
ENDCHAR
STARTCHAR uni0304
ENCODING 772
SWIDTH 600 0
DWIDTH 7 0
BBX 7 4 0 7
BITMAP
6000
B000
BFF4
5540
ENDCHAR
STARTCHAR brevecmb
ENCODING 774
SWIDTH 100 0
DWIDTH 1 0
BBX 7 5 -3 7
BITMAP
0010
6040
F514
BFE0
1540
ENDCHAR
STARTCHAR dotaccentcmb
ENCODING 775
SWIDTH 100 0
DWIDTH 1 0
BBX 5 4 -2 7
BITMAP
7000
B000
BF40
5400
ENDCHAR
STARTCHAR dieresiscmb
ENCODING 776
SWIDTH 100 0
DWIDTH 1 0
BBX 7 5 -3 7
BITMAP
1040
6080
E080
FFF8
5550
ENDCHAR
STARTCHAR hookcmb
ENCODING 777
SWIDTH 100 0
DWIDTH 1 0
BBX 5 5 -2 7
BITMAP
7000
B900
7840
3F40
1400
ENDCHAR
STARTCHAR ringcmb
ENCODING 778
SWIDTH 100 0
DWIDTH 1 0
BBX 7 6 -3 7
BITMAP
1040
A1C0
E040
F514
BFE0
1540
ENDCHAR
STARTCHAR hungarumlautcmb
ENCODING 779
SWIDTH 100 0
DWIDTH 1 0
BBX 7 6 -3 7
BITMAP
0400
2450
7090
70C0
BFF4
5550
ENDCHAR
STARTCHAR caroncmb
ENCODING 780
SWIDTH 100 0
DWIDTH 1 0
BBX 7 5 -3 7
BITMAP
1004
B000
B914
BFD0
0500
ENDCHAR
STARTCHAR horncmb
ENCODING 795
SWIDTH 100 0
DWIDTH 1 0
BBX 4 5 -2 5
BITMAP
04
20
B0
B9
50
ENDCHAR
STARTCHAR dotbelowcmb
ENCODING 803
SWIDTH 100 0
DWIDTH 1 0
BBX 5 4 -2 -5
BITMAP
7000
B000
BF40
5400
ENDCHAR
STARTCHAR dieresisbelowcmb
ENCODING 804
SWIDTH 100 0
DWIDTH 1 0
BBX 7 5 -3 -5
BITMAP
1040
6080
E080
FFF8
5550
ENDCHAR
STARTCHAR commaaccent
ENCODING 806
SWIDTH 600 0
DWIDTH 7 0
BBX 5 5 1 -5
BITMAP
2000
B040
B900
B400
7800
ENDCHAR
STARTCHAR cedillacmb
ENCODING 807
SWIDTH 100 0
DWIDTH 1 0
BBX 4 6 -2 -4
BITMAP
04
24
30
A0
FD
50
ENDCHAR
STARTCHAR ogonekcmb
ENCODING 808
SWIDTH 100 0
DWIDTH 1 0
BBX 5 6 -2 -4
BITMAP
0500
2400
7500
7800
7F80
1500
ENDCHAR
STARTCHAR brevebelowcmb
ENCODING 814
SWIDTH 100 0
DWIDTH 1 0
BBX 7 5 -3 -5
BITMAP
0010
6040
F514
BFE0
1540
ENDCHAR
STARTCHAR macronbelowcmb
ENCODING 817
SWIDTH 100 0
DWIDTH 1 0
BBX 7 4 -3 -5
BITMAP
2000
B000
BFF4
5550
ENDCHAR
STARTCHAR uni0394
ENCODING 916
SWIDTH 830 0
DWIDTH 10 0
BBX 9 11 0 -2
BITMAP
010000
090000
1C0000
282000
343400
347800
706800
B10000
B00000
BFFF80
555500
ENDCHAR
STARTCHAR uni03A9
ENCODING 937
SWIDTH 877 0
DWIDTH 11 0
BBX 10 10 0 -2
BITMAP
040000
341400
743C00
742C00
742C00
742C00
605500
B01400
FFFFE0
551540
ENDCHAR
STARTCHAR uni03BC
ENCODING 956
SWIDTH 813 0
DWIDTH 10 0
BBX 8 9 0 -2
BITMAP
3018
B038
B038
B038
B114
B000
B001
BAB8
7E00
ENDCHAR
STARTCHAR pi
ENCODING 960
SWIDTH 821 0
DWIDTH 10 0
BBX 9 9 0 -2
BITMAP
140000
700100
B02400
B03800
B03800
B03800
B07800
BF7F80
541500
ENDCHAR
STARTCHAR Ddotbelow
ENCODING 7692
SWIDTH 846 0
DWIDTH 10 0
BBX 10 14 0 -5
BITMAP
140000
740000
741400
743C00
742C00
742C00
741400
740010
7A9640
7F4100
034000
078000
07F400
015000
ENDCHAR
STARTCHAR ddotbelow
ENCODING 7693
SWIDTH 846 0
DWIDTH 10 0
BBX 10 14 0 -5
BITMAP
140000
740000
741400
743C00
742C00
742C00
741400
740010
7A9640
7F4100
034000
078000
07F400
015000
ENDCHAR
STARTCHAR Dlinebelow
ENCODING 7694
SWIDTH 846 0
DWIDTH 10 0
BBX 9 13 0 -4
BITMAP
140000
740000
741400
743C00
742C00
742C00
741400
740000
7EAA40
7D0000
1D5400
1FFE00
055400
ENDCHAR
STARTCHAR dlinebelow
ENCODING 7695
SWIDTH 846 0
DWIDTH 10 0
BBX 9 13 0 -4
BITMAP
140000
740000
741400
743C00
742C00
742C00
741400
740000
7EAA40
7D0000
1D5400
1FFE00
055400
ENDCHAR
STARTCHAR Gmacron
ENCODING 7712
SWIDTH 808 0
DWIDTH 10 0
BBX 9 13 0 -1
BITMAP
010000
090000
1D0000
1EAA40
141540
303E00
B01400
B01800
B07800
B01000
B40100
7E5540
1FFF00
ENDCHAR
STARTCHAR gmacron
ENCODING 7713
SWIDTH 808 0
DWIDTH 10 0
BBX 9 13 0 -1
BITMAP
010000
090000
1D0000
1EAA40
141540
303E00
B01400
B01800
B07800
B01000
B40100
7E5540
1FFF00
ENDCHAR
STARTCHAR Hdotbelow
ENCODING 7716
SWIDTH 859 0
DWIDTH 10 0
BBX 10 14 0 -5
BITMAP
144810
742C00
741800
740000
740000
740000
743C00
743C00
796D50
7E5B80
028000
038000
03F400
015000
ENDCHAR
STARTCHAR hdotbelow
ENCODING 7717
SWIDTH 859 0
DWIDTH 10 0
BBX 10 14 0 -5
BITMAP
144810
742C00
741800
740000
740000
740000
743C00
743C00
796D50
7E5B80
028000
038000
03F400
015000
ENDCHAR
STARTCHAR Hbrevebelow
ENCODING 7722
SWIDTH 859 0
DWIDTH 10 0
BBX 10 13 0 -4
BITMAP
144810
742C00
741800
740000
741400
743C00
743C00
742C00
7E6EA0
7D2840
1E0040
1FAA00
0BF400
ENDCHAR
STARTCHAR hbrevebelow
ENCODING 7723
SWIDTH 859 0
DWIDTH 10 0
BBX 10 13 0 -4
BITMAP
144810
742C00
741800
740000
741400
743C00
743C00
742C00
7E6EA0
7D2840
1E0040
1FAA00
0BF400
ENDCHAR
STARTCHAR Ldotbelow
ENCODING 7734
SWIDTH 795 0
DWIDTH 10 0
BBX 9 14 0 -5
BITMAP
144000
740000
740000
740000
741800
743800
741000
740100
7A9680
7F4200
034000
074000
07F400
014000
ENDCHAR
STARTCHAR ldotbelow
ENCODING 7735
SWIDTH 795 0
DWIDTH 10 0
BBX 9 14 0 -5
BITMAP
144000
740000
740000
740000
741800
743800
741000
740100
7A9680
7F4200
034000
074000
07F400
014000
ENDCHAR
STARTCHAR Ldotbelowmacron
ENCODING 7736
SWIDTH 795 0
DWIDTH 10 0
BBX 9 17 0 -5
BITMAP
010000
0C0000
2C0000
2ABD00
741000
740000
740000
741800
743800
741000
740100
7A9680
7F4200
034000
074000
07F400
014000
ENDCHAR
STARTCHAR ldotbelowmacron
ENCODING 7737
SWIDTH 795 0
DWIDTH 10 0
BBX 9 17 0 -5
BITMAP
010000
0C0000
2C0000
2ABD00
741000
740000
740000
741800
743800
741000
740100
7A9680
7F4200
034000
074000
07F400
014000
ENDCHAR
STARTCHAR Llinebelow
ENCODING 7738
SWIDTH 795 0
DWIDTH 10 0
BBX 9 13 0 -4
BITMAP
144000
740000
740000
740000
741800
743800
741000
740100
7A5580
7C0000
1D0000
2FFD00
055000
ENDCHAR
STARTCHAR llinebelow
ENCODING 7739
SWIDTH 795 0
DWIDTH 10 0
BBX 9 13 0 -4
BITMAP
144000
740000
740000
740000
741800
743800
741000
740100
7A5580
7C0000
1D0000
2FFD00
055000
ENDCHAR
STARTCHAR Mdotbelow
ENCODING 7746
SWIDTH 949 0
DWIDTH 11 0
BBX 11 14 0 -5
BITMAP
140104
740900
740400
740000
741200
743B00
742B00
740B00
794B54
7E06E0
00C000
02D000
02FC00
005000
ENDCHAR
STARTCHAR mdotbelow
ENCODING 7747
SWIDTH 949 0
DWIDTH 11 0
BBX 11 14 0 -5
BITMAP
140104
740900
740400
740000
741200
743B00
742B00
740B00
794B54
7E06E0
00C000
02D000
02FC00
005000
ENDCHAR
STARTCHAR Ndotaccent
ENCODING 7748
SWIDTH 853 0
DWIDTH 10 0
BBX 10 13 0 -1
BITMAP
018000
038000
038000
147C00
752C00
740400
740000
741000
743000
743800
743C00
796D50
7E2F40
ENDCHAR
STARTCHAR ndotaccent
ENCODING 7749
SWIDTH 853 0
DWIDTH 10 0
BBX 10 13 0 -1
BITMAP
018000
038000
038000
147C00
752C00
740400
740000
741000
743000
743800
743C00
796D50
7E2F40
ENDCHAR
STARTCHAR Ndotbelow
ENCODING 7750
SWIDTH 853 0
DWIDTH 10 0
BBX 10 14 0 -5
BITMAP
144800
751C00
740400
740000
741000
743000
743800
743C00
796D50
7E5B40
028000
038000
03F400
015000
ENDCHAR
STARTCHAR ndotbelow
ENCODING 7751
SWIDTH 853 0
DWIDTH 10 0
BBX 10 14 0 -5
BITMAP
144800
751C00
740400
740000
741000
743000
743800
743C00
796D50
7E5B40
028000
038000
03F400
015000
ENDCHAR
STARTCHAR Nlinebelow
ENCODING 7752
SWIDTH 853 0
DWIDTH 10 0
BBX 10 13 0 -4
BITMAP
144800
751C00
740400
740000
741000
743000
743800
743C00
7E5990
7D0000
1E0000
1FFE00
055400
ENDCHAR
STARTCHAR nlinebelow
ENCODING 7753
SWIDTH 853 0
DWIDTH 10 0
BBX 10 13 0 -4
BITMAP
144800
751C00
740400
740000
741000
743000
743800
743C00
7E5990
7D0000
1E0000
1FFE00
055400
ENDCHAR
STARTCHAR Rdotbelow
ENCODING 7770
SWIDTH 843 0
DWIDTH 10 0
BBX 10 14 0 -5
BITMAP
140000
740000
743400
742040
740100
740000
743C00
742C00
796D50
7E5B80
018000
038000
03F800
015000
ENDCHAR
STARTCHAR rdotbelow
ENCODING 7771
SWIDTH 843 0
DWIDTH 10 0
BBX 10 14 0 -5
BITMAP
140000
740000
743400
742040
740100
740000
743C00
742C00
796D50
7E5B80
018000
038000
03F800
015000
ENDCHAR
STARTCHAR Rdotbelowmacron
ENCODING 7772
SWIDTH 843 0
DWIDTH 10 0
BBX 10 16 0 -5
BITMAP
180000
2C0000
3AA900
740000
743400
742040
740100
740000
743C00
742C00
796D50
7E5B80
018000
038000
03F800
015000
ENDCHAR
STARTCHAR rdotbelowmacron
ENCODING 7773
SWIDTH 843 0
DWIDTH 10 0
BBX 10 16 0 -5
BITMAP
180000
2C0000
3AA900
740000
743400
742040
740100
740000
743C00
742C00
796D50
7E5B80
018000
038000
03F800
015000
ENDCHAR
STARTCHAR Rlinebelow
ENCODING 7774
SWIDTH 843 0
DWIDTH 10 0
BBX 10 13 0 -4
BITMAP
155500
740000
743400
742040
740000
741400
743C00
742C00
7E5A90
7D0040
1D0000
1FFE00
055400
ENDCHAR
STARTCHAR rlinebelow
ENCODING 7775
SWIDTH 843 0
DWIDTH 10 0
BBX 10 13 0 -4
BITMAP
155500
740000
743400
742040
740000
741400
743C00
742C00
7E5A90
7D0040
1D0000
1FFE00
055400
ENDCHAR
STARTCHAR Sdotaccent
ENCODING 7776
SWIDTH 750 0
DWIDTH 9 0
BBX 8 13 0 -1
BITMAP
0700
0B00
0B00
0900
3000
B02E
B000
B400
7FA0
2000
7000
B555
BFF4
ENDCHAR
STARTCHAR sdotaccent
ENCODING 7777
SWIDTH 750 0
DWIDTH 9 0
BBX 8 13 0 -1
BITMAP
0700
0B00
0B00
0900
3000
B02E
B000
B400
7FA0
2000
7000
B555
BFF4
ENDCHAR
STARTCHAR Sdotbelow
ENCODING 7778
SWIDTH 750 0
DWIDTH 9 0
BBX 9 13 0 -5
BITMAP
200000
702E00
B00000
B40000
7FA000
200000
700040
BA9A00
BF0000
070000
0B4400
0BE000
014000
ENDCHAR
STARTCHAR sdotbelow
ENCODING 7779
SWIDTH 750 0
DWIDTH 9 0
BBX 9 13 0 -5
BITMAP
200000
702E00
B00000
B40000
7FA000
200000
700040
BA9A00
BF0000
070000
0B4400
0BE000
014000
ENDCHAR
STARTCHAR Tdotbelow
ENCODING 7788
SWIDTH 756 0
DWIDTH 9 0
BBX 9 14 0 -5
BITMAP
100040
E11140
FF0740
5B0400
0B0000
0B0000
0B0000
0B0000
0B9400
0B0000
0B0000
0B0000
0BE000
014000
ENDCHAR
STARTCHAR tdotbelow
ENCODING 7789
SWIDTH 756 0
DWIDTH 9 0
BBX 9 14 0 -5
BITMAP
100040
E11140
FF0740
5B0400
0B0000
0B0000
0B0000
0B0000
0B9400
0B0000
0B0000
0B0000
0BE000
014000
ENDCHAR
STARTCHAR Tlinebelow
ENCODING 7790
SWIDTH 756 0
DWIDTH 9 0
BBX 9 13 0 -4
BITMAP
115540
E00040
FF0740
5B0400
0B0000
0B0000
0B0000
0B0000
0A5400
080000
2C0000
3FFC00
155000
ENDCHAR
STARTCHAR tlinebelow
ENCODING 7791
SWIDTH 756 0
DWIDTH 9 0
BBX 9 13 0 -4
BITMAP
115540
E00040
FF0740
5B0400
0B0000
0B0000
0B0000
0B0000
0A5400
080000
2C0000
3FFC00
155000
ENDCHAR
STARTCHAR Wgrave
ENCODING 7808
SWIDTH 931 0
DWIDTH 11 0
BBX 11 13 0 -1
BITMAP
015540
0A0000
0F9400
146F04
700B00
B00700
B05200
B00000
B00000
B40800
781C40
3D6E50
2F5F80
ENDCHAR
STARTCHAR wgrave
ENCODING 7809
SWIDTH 931 0
DWIDTH 11 0
BBX 11 13 0 -1
BITMAP
015540
0A0000
0F9400
146F04
700B00
B00700
B05200
B00000
B00000
B40800
781C40
3D6E50
2F5F80
ENDCHAR
STARTCHAR Wacute
ENCODING 7810
SWIDTH 931 0
DWIDTH 11 0
BBX 11 13 0 -1
BITMAP
005540
020000
0B1500
146B04
700B00
B00700
B05200
B00000
B00000
B40800
781C40
3D6E50
2F5F80
ENDCHAR
STARTCHAR wacute
ENCODING 7811
SWIDTH 931 0
DWIDTH 11 0
BBX 11 13 0 -1
BITMAP
005540
020000
0B1500
146B04
700B00
B00700
B05200
B00000
B00000
B40800
781C40
3D6E50
2F5F80
ENDCHAR
STARTCHAR Wdieresis
ENCODING 7812
SWIDTH 931 0
DWIDTH 11 0
BBX 11 13 0 -1
BITMAP
010400
060800
0E0800
1ABFA4
701B00
B00700
B05200
B00000
B00000
B40800
781C40
3D6E50
2F5F80
ENDCHAR
STARTCHAR wdieresis
ENCODING 7813
SWIDTH 931 0
DWIDTH 11 0
BBX 11 13 0 -1
BITMAP
010400
060800
0E0800
1ABFA4
701B00
B00700
B05200
B00000
B00000
B40800
781C40
3D6E50
2F5F80
ENDCHAR
STARTCHAR Ydotaccent
ENCODING 7822
SWIDTH 805 0
DWIDTH 10 0
BBX 7 14 0 -1
BITMAP
0040
0240
0740
0740
10B8
B078
B038
B034
B800
7D10
2F00
0B40
0794
07E0
ENDCHAR
STARTCHAR ydotaccent
ENCODING 7823
SWIDTH 805 0
DWIDTH 10 0
BBX 7 14 0 -1
BITMAP
0040
0240
0740
0740
10B8
B078
B038
B034
B800
7D10
2F00
0B40
0794
07E0
ENDCHAR
STARTCHAR Zdotbelow
ENCODING 7826
SWIDTH 760 0
DWIDTH 9 0
BBX 9 14 0 -5
BITMAP
140000
754000
BF8000
160000
040000
140000
700000
B00000
BA9A80
BF0200
070000
0B4000
0BF000
014000
ENDCHAR
STARTCHAR zdotbelow
ENCODING 7827
SWIDTH 760 0
DWIDTH 9 0
BBX 9 14 0 -5
BITMAP
140000
754000
BF8000
160000
040000
140000
700000
B00000
BA9A80
BF0200
070000
0B4000
0BF000
014000
ENDCHAR
STARTCHAR tdieresis
ENCODING 7831
SWIDTH 756 0
DWIDTH 9 0
BBX 9 13 0 -1
BITMAP
041000
282000
382000
600040
E11140
FF0740
5B0400
0B0000
0B0000
0B0000
0B0000
0B5400
0BE000
ENDCHAR
STARTCHAR Germandbls
ENCODING 7838
SWIDTH 859 0
DWIDTH 10 0
BBX 9 10 0 -1
BITMAP
140000
740000
741000
743000
742000
743D00
742000
742000
797540
7EFE00
ENDCHAR
STARTCHAR Adotbelow
ENCODING 7840
SWIDTH 830 0
DWIDTH 10 0
BBX 10 14 0 -5
BITMAP
010000
080000
182400
243400
300000
710000
B00000
B07800
B57D50
BE5B40
024000
074000
07F400
014000
ENDCHAR
STARTCHAR adotbelow
ENCODING 7841
SWIDTH 830 0
DWIDTH 10 0
BBX 10 14 0 -5
BITMAP
010000
080000
182400
243400
300000
710000
B00000
B07800
B57D50
BE5B40
024000
074000
07F400
014000
ENDCHAR
STARTCHAR Ahookabove
ENCODING 7842
SWIDTH 830 0
DWIDTH 10 0
BBX 10 13 0 -1
BITMAP
079000
0B8500
03ED00
020000
080000
182400
243400
300000
710000
B00000
B07800
B57D50
BE2F40
ENDCHAR
STARTCHAR ahookabove
ENCODING 7843
SWIDTH 830 0
DWIDTH 10 0
BBX 10 13 0 -1
BITMAP
079000
0B8500
03ED00
020000
080000
182400
243400
300000
710000
B00000
B07800
B57D50
BE2F40
ENDCHAR
STARTCHAR Acircumflexacute
ENCODING 7844
SWIDTH 830 0
DWIDTH 10 0
BBX 10 16 0 -1
BITMAP
000640
002400
007400
015500
090000
1EBA00
1E0000
0C0000
182400
243400
300000
710000
B00000
B07800
B57D50
BE2F40
ENDCHAR
STARTCHAR acircumflexacute
ENCODING 7845
SWIDTH 830 0
DWIDTH 10 0
BBX 10 16 0 -1
BITMAP
000640
002400
007400
015500
090000
1EBA00
1E0000
0C0000
182400
243400
300000
710000
B00000
B07800
B57D50
BE2F40
ENDCHAR
STARTCHAR Acircumflexgrave
ENCODING 7846
SWIDTH 830 0
DWIDTH 10 0
BBX 10 16 0 -1
BITMAP
001900
007140
00B000
015500
090000
1EBA00
1E0000
0C0000
182400
243400
300000
710000
B00000
B07800
B57D50
BE2F40
ENDCHAR
STARTCHAR acircumflexgrave
ENCODING 7847
SWIDTH 830 0
DWIDTH 10 0
BBX 10 16 0 -1
BITMAP
001900
007140
00B000
015500
090000
1EBA00
1E0000
0C0000
182400
243400
300000
710000
B00000
B07800
B57D50
BE2F40
ENDCHAR
STARTCHAR Acircumflexhookabove
ENCODING 7848
SWIDTH 830 0
DWIDTH 10 0
BBX 10 17 0 -1
BITMAP
000400
003410
007D40
002800
000140
090000
1EBA00
1E0000
0C0000
182400
243400
300000
710000
B00000
B07800
B57D50
BE2F40
ENDCHAR
STARTCHAR acircumflexhookabove
ENCODING 7849
SWIDTH 830 0
DWIDTH 10 0
BBX 10 17 0 -1
BITMAP
000400
003410
007D40
002800
000140
090000
1EBA00
1E0000
0C0000
182400
243400
300000
710000
B00000
B07800
B57D50
BE2F40
ENDCHAR
STARTCHAR Acircumflextilde
ENCODING 7850
SWIDTH 830 0
DWIDTH 10 0
BBX 10 15 0 -1
BITMAP
090000
1E9900
1A4100
0D0000
1EBA00
1E0000
0C0000
182400
243400
300000
710000
B00000
B07800
B57D50
BE2F40
ENDCHAR
STARTCHAR acircumflextilde
ENCODING 7851
SWIDTH 830 0
DWIDTH 10 0
BBX 10 15 0 -1
BITMAP
090000
1E9900
1A4100
0D0000
1EBA00
1E0000
0C0000
182400
243400
300000
710000
B00000
B07800
B57D50
BE2F40
ENDCHAR
STARTCHAR Acircumflexdotbelow
ENCODING 7852
SWIDTH 830 0
DWIDTH 10 0
BBX 10 17 0 -5
BITMAP
010000
090000
1EBA00
1E0000
0C0000
182400
243400
300000
710000
B00000
B07800
B57D50
BE5B40
024000
074000
07F400
014000
ENDCHAR
STARTCHAR acircumflexdotbelow
ENCODING 7853
SWIDTH 830 0
DWIDTH 10 0
BBX 10 17 0 -5
BITMAP
010000
090000
1EBA00
1E0000
0C0000
182400
243400
300000
710000
B00000
B07800
B57D50
BE5B40
024000
074000
07F400
014000
ENDCHAR
STARTCHAR Abreveacute
ENCODING 7854
SWIDTH 830 0
DWIDTH 10 0
BBX 10 16 0 -1
BITMAP
006A00
01D000
018000
082400
1D0000
1E4000
1E5500
090040
1C2440
243400
300000
710000
B00000
B07800
B57D50
BE2F40
ENDCHAR
STARTCHAR abreveacute
ENCODING 7855
SWIDTH 830 0
DWIDTH 10 0
BBX 10 16 0 -1
BITMAP
006A00
01D000
018000
082400
1D0000
1E4000
1E5500
090040
1C2440
243400
300000
710000
B00000
B07800
B57D50
BE2F40
ENDCHAR
STARTCHAR Abrevegrave
ENCODING 7856
SWIDTH 830 0
DWIDTH 10 0
BBX 10 17 0 -1
BITMAP
004000
02A400
0B0000
0A0000
081400
1D0000
1E4000
1E5500
090040
1C2440
243400
300000
710000
B00000
B07800
B57D50
BE2F40
ENDCHAR
STARTCHAR abrevegrave
ENCODING 7857
SWIDTH 830 0
DWIDTH 10 0
BBX 10 17 0 -1
BITMAP
004000
02A400
0B0000
0A0000
081400
1D0000
1E4000
1E5500
090040
1C2440
243400
300000
710000
B00000
B07800
B57D50
BE2F40
ENDCHAR
STARTCHAR Abrevehookabove
ENCODING 7858
SWIDTH 830 0
DWIDTH 10 0
BBX 10 16 0 -1
BITMAP
039000
03C100
01A900
081400
1D0000
1E4000
1E5500
090040
1C2440
243400
300000
710000
B00000
B07800
B57D50
BE2F40
ENDCHAR
STARTCHAR abrevehookabove
ENCODING 7859
SWIDTH 830 0
DWIDTH 10 0
BBX 10 16 0 -1
BITMAP
039000
03C100
01A900
081400
1D0000
1E4000
1E5500
090040
1C2440
243400
300000
710000
B00000
B07800
B57D50
BE2F40
ENDCHAR
STARTCHAR Abrevetilde
ENCODING 7860
SWIDTH 830 0
DWIDTH 10 0
BBX 10 15 0 -1
BITMAP
090000
1EB900
1C2400
1D0000
1E4000
1E5500
090040
1C2440
243400
300000
710000
B00000
B07800
B57D50
BE2F40
ENDCHAR
STARTCHAR abrevetilde
ENCODING 7861
SWIDTH 830 0
DWIDTH 10 0
BBX 10 15 0 -1
BITMAP
090000
1EB900
1C2400
1D0000
1E4000
1E5500
090040
1C2440
243400
300000
710000
B00000
B07800
B57D50
BE2F40
ENDCHAR
STARTCHAR Abrevedotbelow
ENCODING 7862
SWIDTH 830 0
DWIDTH 10 0
BBX 10 18 0 -5
BITMAP
010400
081400
1D0000
1E4000
1E5500
090040
1C2440
243400
300000
710000
B00000
B07800
B57D50
BE5B40
024000
074000
07F400
014000
ENDCHAR
STARTCHAR abrevedotbelow
ENCODING 7863
SWIDTH 830 0
DWIDTH 10 0
BBX 10 18 0 -5
BITMAP
010400
081400
1D0000
1E4000
1E5500
090040
1C2440
243400
300000
710000
B00000
B07800
B57D50
BE5B40
024000
074000
07F400
014000
ENDCHAR
STARTCHAR Edotbelow
ENCODING 7864
SWIDTH 754 0
DWIDTH 9 0
BBX 9 14 0 -5
BITMAP
140040
740000
743F40
740000
740000
741500
742400
740000
7A9A80
7F0200
070000
0B4400
0BF000
014000
ENDCHAR
STARTCHAR edotbelow
ENCODING 7865
SWIDTH 754 0
DWIDTH 9 0
BBX 9 14 0 -5
BITMAP
140040
740000
743F40
740000
740000
741500
742400
740000
7A9A80
7F0200
070000
0B4400
0BF000
014000
ENDCHAR
STARTCHAR Ehookabove
ENCODING 7866
SWIDTH 754 0
DWIDTH 9 0
BBX 9 14 0 -1
BITMAP
010000
0B9000
0F4500
07F800
140040
740000
743F40
740000
740000
741500
742400
740000
795540
7FFE00
ENDCHAR
STARTCHAR ehookabove
ENCODING 7867
SWIDTH 754 0
DWIDTH 9 0
BBX 9 14 0 -1
BITMAP
010000
0B9000
0F4500
07F800
140040
740000
743F40
740000
740000
741500
742400
740000
795540
7FFE00
ENDCHAR
STARTCHAR Etilde
ENCODING 7868
SWIDTH 754 0
DWIDTH 9 0
BBX 9 13 0 -1
BITMAP
000100
080000
2C4000
240040
740000
743F40
740000
740000
741500
742400
740000
795540
7FFE00
ENDCHAR
STARTCHAR etilde
ENCODING 7869
SWIDTH 754 0
DWIDTH 9 0
BBX 9 13 0 -1
BITMAP
000100
080000
2C4000
240040
740000
743F40
740000
740000
741500
742400
740000
795540
7FFE00
ENDCHAR
STARTCHAR Ecircumflexacute
ENCODING 7870
SWIDTH 754 0
DWIDTH 9 0
BBX 9 16 0 -1
BITMAP
000A40
007000
00B000
015500
180000
2DA900
240040
740000
743F40
740000
740000
741500
742400
740000
795540
7FFE00
ENDCHAR
STARTCHAR ecircumflexacute
ENCODING 7871
SWIDTH 754 0
DWIDTH 9 0
BBX 9 16 0 -1
BITMAP
000A40
007000
00B000
015500
180000
2DA900
240040
740000
743F40
740000
740000
741500
742400
740000
795540
7FFE00
ENDCHAR
STARTCHAR Ecircumflexgrave
ENCODING 7872
SWIDTH 754 0
DWIDTH 9 0
BBX 9 16 0 -1
BITMAP
001900
00A140
00E000
015500
180000
2DA900
240040
740000
743F40
740000
740000
741500
742400
740000
795540
7FFE00
ENDCHAR
STARTCHAR ecircumflexgrave
ENCODING 7873
SWIDTH 754 0
DWIDTH 9 0
BBX 9 16 0 -1
BITMAP
001900
00A140
00E000
015500
180000
2DA900
240040
740000
743F40
740000
740000
741500
742400
740000
795540
7FFE00
ENDCHAR
STARTCHAR Ecircumflexhookabove
ENCODING 7874
SWIDTH 754 0
DWIDTH 9 0
BBX 9 17 0 -1
BITMAP
001000
007000
00B900
006400
050100
1C0000
2DA900
240040
740000
743F40
740000
740000
741500
742400
740000
795540
7FFE00
ENDCHAR
STARTCHAR ecircumflexhookabove
ENCODING 7875
SWIDTH 754 0
DWIDTH 9 0
BBX 9 17 0 -1
BITMAP
001000
007000
00B900
006400
050100
1C0000
2DA900
240040
740000
743F40
740000
740000
741500
742400
740000
795540
7FFE00
ENDCHAR
STARTCHAR Ecircumflextilde
ENCODING 7876
SWIDTH 754 0
DWIDTH 9 0
BBX 9 16 0 -1
BITMAP
000100
180000
2E9900
190500
1C0000
2DA900
340040
740000
743F40
740000
740000
741500
742400
740000
795540
7FFE00
ENDCHAR
STARTCHAR ecircumflextilde
ENCODING 7877
SWIDTH 754 0
DWIDTH 9 0
BBX 9 16 0 -1
BITMAP
000100
180000
2E9900
190500
1C0000
2DA900
340040
740000
743F40
740000
740000
741500
742400
740000
795540
7FFE00
ENDCHAR
STARTCHAR Ecircumflexdotbelow
ENCODING 7878
SWIDTH 754 0
DWIDTH 9 0
BBX 9 17 0 -5
BITMAP
050100
1C0000
2DA900
340040
740000
743F40
740000
740000
741500
742400
740000
7A5A40
7F0600
0B0000
0B0000
0BE000
054000
ENDCHAR
STARTCHAR ecircumflexdotbelow
ENCODING 7879
SWIDTH 754 0
DWIDTH 9 0
BBX 9 17 0 -5
BITMAP
050100
1C0000
2DA900
340040
740000
743F40
740000
740000
741500
742400
740000
7A5A40
7F0600
0B0000
0B0000
0BE000
054000
ENDCHAR
STARTCHAR Ihookabove
ENCODING 7880
SWIDTH 705 0
DWIDTH 8 0
BBX 8 13 0 -1
BITMAP
0E40
1E14
0BB4
1400
7000
B905
BE04
0E00
0E00
0900
7000
B555
BFF8
ENDCHAR
STARTCHAR ihookabove
ENCODING 7881
SWIDTH 705 0
DWIDTH 8 0
BBX 8 13 0 -1
BITMAP
0E40
1E14
0BB4
1400
7000
B905
BE04
0E00
0E00
0900
7000
B555
BFF8
ENDCHAR
STARTCHAR Idotbelow
ENCODING 7882
SWIDTH 705 0
DWIDTH 8 0
BBX 8 14 0 -5
BITMAP
1000
7000
B905
BE04
0E00
0E00
0900
7000
BA5A
BE09
0E00
0E00
0FE0
0540
ENDCHAR
STARTCHAR idotbelow
ENCODING 7883
SWIDTH 705 0
DWIDTH 8 0
BBX 8 14 0 -5
BITMAP
1000
7000
B905
BE04
0E00
0E00
0900
7000
BA5A
BE09
0E00
0E00
0FE0
0540
ENDCHAR
STARTCHAR Odotbelow
ENCODING 7884
SWIDTH 837 0
DWIDTH 10 0
BBX 8 13 0 -5
BITMAP
1400
7014
B078
B038
B038
B038
B400
B800
3F96
0740
0780
07F4
0150
ENDCHAR
STARTCHAR odotbelow
ENCODING 7885
SWIDTH 837 0
DWIDTH 10 0
BBX 8 13 0 -5
BITMAP
1400
7014
B078
B038
B038
B038
B400
B800
3F96
0740
0780
07F4
0150
ENDCHAR
STARTCHAR Ohookabove
ENCODING 7886
SWIDTH 837 0
DWIDTH 10 0
BBX 8 14 0 -1
BITMAP
0100
0790
0795
0140
1400
3000
B038
B038
B038
B038
B014
B800
7E96
1BF8
ENDCHAR
STARTCHAR ohookabove
ENCODING 7887
SWIDTH 837 0
DWIDTH 10 0
BBX 8 14 0 -1
BITMAP
0100
0790
0795
0140
1400
3000
B038
B038
B038
B038
B014
B800
7E96
1BF8
ENDCHAR
STARTCHAR Ocircumflexacute
ENCODING 7888
SWIDTH 837 0
DWIDTH 10 0
BBX 9 17 0 -1
BITMAP
000040
000A80
007400
006040
010100
1D0000
1EA900
1D0040
340000
703800
B03800
B03800
B03800
B01400
B40000
7E9640
1BF900
ENDCHAR
STARTCHAR ocircumflexacute
ENCODING 7889
SWIDTH 837 0
DWIDTH 10 0
BBX 9 17 0 -1
BITMAP
000040
000A80
007400
006040
010100
1D0000
1EA900
1D0040
340000
703800
B03800
B03800
B03800
B01400
B40000
7E9640
1BF900
ENDCHAR
STARTCHAR Ocircumflexgrave
ENCODING 7890
SWIDTH 837 0
DWIDTH 10 0
BBX 9 16 0 -1
BITMAP
001E40
007140
00A000
010000
1D0000
1EA900
1D0040
340000
703800
B03800
B03800
B03800
B01400
B40000
7E9640
1BF900
ENDCHAR
STARTCHAR ocircumflexgrave
ENCODING 7891
SWIDTH 837 0
DWIDTH 10 0
BBX 9 16 0 -1
BITMAP
001E40
007140
00A000
010000
1D0000
1EA900
1D0040
340000
703800
B03800
B03800
B03800
B01400
B40000
7E9640
1BF900
ENDCHAR
STARTCHAR Ocircumflexhookabove
ENCODING 7892
SWIDTH 837 0
DWIDTH 10 0
BBX 10 17 0 -1
BITMAP
000400
002410
007D40
002800
010140
0D0000
1EA900
1D0040
340000
703800
B03800
B03800
B03800
B01400
B40000
7E9640
1BF900
ENDCHAR
STARTCHAR ocircumflexhookabove
ENCODING 7893
SWIDTH 837 0
DWIDTH 10 0
BBX 10 17 0 -1
BITMAP
000400
002410
007D40
002800
010140
0D0000
1EA900
1D0040
340000
703800
B03800
B03800
B03800
B01400
B40000
7E9640
1BF900
ENDCHAR
STARTCHAR Ocircumflextilde
ENCODING 7894
SWIDTH 837 0
DWIDTH 10 0
BBX 9 16 0 -1
BITMAP
050000
1D4000
1FDA00
0A0000
1D0000
1EA900
1D0040
340000
703800
B03800
B03800
B03800
B01400
B40000
7E9640
1BF900
ENDCHAR
STARTCHAR ocircumflextilde
ENCODING 7895
SWIDTH 837 0
DWIDTH 10 0
BBX 9 16 0 -1
BITMAP
050000
1D4000
1FDA00
0A0000
1D0000
1EA900
1D0040
340000
703800
B03800
B03800
B03800
B01400
B40000
7E9640
1BF900
ENDCHAR
STARTCHAR Ocircumflexdotbelow
ENCODING 7896
SWIDTH 837 0
DWIDTH 10 0
BBX 9 15 0 -5
BITMAP
1EA940
1D0000
140000
301400
B07800
B03800
B03800
B03800
B40000
B80000
3F9600
074000
078000
07F400
015000
ENDCHAR
STARTCHAR ocircumflexdotbelow
ENCODING 7897
SWIDTH 837 0
DWIDTH 10 0
BBX 9 15 0 -5
BITMAP
1EA940
1D0000
140000
301400
B07800
B03800
B03800
B03800
B40000
B80000
3F9600
074000
078000
07F400
015000
ENDCHAR
STARTCHAR Ohornacute
ENCODING 7898
SWIDTH 847 0
DWIDTH 10 0
BBX 10 13 0 -1
BITMAP
015500
080000
2C5600
2D0110
340000
B03800
B03800
B03800
B03800
B01400
B40000
7E9600
1BF800
ENDCHAR
STARTCHAR ohornacute
ENCODING 7899
SWIDTH 847 0
DWIDTH 10 0
BBX 10 13 0 -1
BITMAP
015500
080000
2C5600
2D0110
340000
B03800
B03800
B03800
B03800
B01400
B40000
7E9600
1BF800
ENDCHAR
STARTCHAR Ohorngrave
ENCODING 7900
SWIDTH 847 0
DWIDTH 10 0
BBX 10 14 0 -1
BITMAP
054000
19AA00
380040
3E9500
090110
240000
703800
B03800
B03800
B03800
B01400
B40000
7E9600
1BF800
ENDCHAR
STARTCHAR ohorngrave
ENCODING 7901
SWIDTH 847 0
DWIDTH 10 0
BBX 10 14 0 -1
BITMAP
054000
19AA00
380040
3E9500
090110
240000
703800
B03800
B03800
B03800
B01400
B40000
7E9600
1BF800
ENDCHAR
STARTCHAR Ohornhookabove
ENCODING 7902
SWIDTH 847 0
DWIDTH 10 0
BBX 10 13 0 -1
BITMAP
079000
079540
014600
000110
200000
703800
B03800
B03800
B03800
B01400
B80000
7E9600
1FF800
ENDCHAR
STARTCHAR ohornhookabove
ENCODING 7903
SWIDTH 847 0
DWIDTH 10 0
BBX 10 13 0 -1
BITMAP
079000
079540
014600
000110
200000
703800
B03800
B03800
B03800
B01400
B80000
7E9600
1FF800
ENDCHAR
STARTCHAR Ohorntilde
ENCODING 7904
SWIDTH 847 0
DWIDTH 10 0
BBX 10 14 0 -1
BITMAP
010000
080000
2C0000
2D5100
190110
240000
703800
B03800
B03800
B03800
B01400
B40000
7E9600
1BF800
ENDCHAR
STARTCHAR ohorntilde
ENCODING 7905
SWIDTH 847 0
DWIDTH 10 0
BBX 10 14 0 -1
BITMAP
010000
080000
2C0000
2D5100
190110
240000
703800
B03800
B03800
B03800
B01400
B40000
7E9600
1BF800
ENDCHAR
STARTCHAR Ohorndotbelow
ENCODING 7906
SWIDTH 847 0
DWIDTH 10 0
BBX 9 15 0 -5
BITMAP
000040
000100
140100
701400
B07800
B03800
B03800
B03800
B40000
B80000
3F9600
074000
078000
07F400
015000
ENDCHAR
STARTCHAR ohorndotbelow
ENCODING 7907
SWIDTH 847 0
DWIDTH 10 0
BBX 9 15 0 -5
BITMAP
000040
000100
140100
701400
B07800
B03800
B03800
B03800
B40000
B80000
3F9600
074000
078000
07F400
015000
ENDCHAR
STARTCHAR Udotbelow
ENCODING 7908
SWIDTH 846 0
DWIDTH 10 0
BBX 8 14 0 -5
BITMAP
1444
702C
B02C
B02C
B02C
B02C
B014
B400
7800
2F96
0740
0780
07F4
0150
ENDCHAR
STARTCHAR udotbelow
ENCODING 7909
SWIDTH 846 0
DWIDTH 10 0
BBX 8 14 0 -5
BITMAP
1444
702C
B02C
B02C
B02C
B02C
B014
B400
7800
2F96
0740
0780
07F4
0150
ENDCHAR
STARTCHAR Uhookabove
ENCODING 7910
SWIDTH 846 0
DWIDTH 10 0
BBX 10 13 0 -1
BITMAP
029000
07C100
02EE00
147C10
702C00
B02C00
B02C00
B02C00
B02C00
B41400
780000
7E9640
1BF900
ENDCHAR
STARTCHAR uhookabove
ENCODING 7911
SWIDTH 846 0
DWIDTH 10 0
BBX 10 13 0 -1
BITMAP
029000
07C100
02EE00
147C10
702C00
B02C00
B02C00
B02C00
B02C00
B41400
780000
7E9640
1BF900
ENDCHAR
STARTCHAR Uhornacute
ENCODING 7912
SWIDTH 856 0
DWIDTH 10 0
BBX 9 13 0 -1
BITMAP
016500
080040
2C5640
346C00
702C40
B02C00
B02C00
B02C00
B02C00
B41400
780000
7E9640
1BF900
ENDCHAR
STARTCHAR uhornacute
ENCODING 7913
SWIDTH 856 0
DWIDTH 10 0
BBX 9 13 0 -1
BITMAP
016500
080040
2C5640
346C00
702C40
B02C00
B02C00
B02C00
B02C00
B41400
780000
7E9640
1BF900
ENDCHAR
STARTCHAR Uhorngrave
ENCODING 7914
SWIDTH 856 0
DWIDTH 10 0
BBX 9 14 0 -1
BITMAP
010000
1ABA00
380040
3E5140
247C00
702C40
B02C00
B02C00
B02C00
B02C00
B41400
780000
7E9640
1BF900
ENDCHAR
STARTCHAR uhorngrave
ENCODING 7915
SWIDTH 856 0
DWIDTH 10 0
BBX 9 14 0 -1
BITMAP
010000
1ABA00
380040
3E5140
247C00
702C40
B02C00
B02C00
B02C00
B02C00
B41400
780000
7E9640
1BF900
ENDCHAR
STARTCHAR Uhornhookabove
ENCODING 7916
SWIDTH 856 0
DWIDTH 10 0
BBX 9 13 0 -1
BITMAP
039100
07C140
02FF40
147C00
702C40
B02C00
B02C00
B02C00
B02C00
B41400
780000
7E9640
1BF900
ENDCHAR
STARTCHAR uhornhookabove
ENCODING 7917
SWIDTH 856 0
DWIDTH 10 0
BBX 9 13 0 -1
BITMAP
039100
07C140
02FF40
147C00
702C40
B02C00
B02C00
B02C00
B02C00
B41400
780000
7E9640
1BF900
ENDCHAR
STARTCHAR Uhorntilde
ENCODING 7918
SWIDTH 856 0
DWIDTH 10 0
BBX 9 14 0 -1
BITMAP
010000
080000
280040
3D5240
747C00
B02C40
B02C00
B02C00
B02C00
B02C00
B41400
780000
7E9640
1BF900
ENDCHAR
STARTCHAR uhorntilde
ENCODING 7919
SWIDTH 856 0
DWIDTH 10 0
BBX 9 14 0 -1
BITMAP
010000
080000
280040
3D5240
747C00
B02C40
B02C00
B02C00
B02C00
B02C00
B41400
780000
7E9640
1BF900
ENDCHAR
STARTCHAR Uhorndotbelow
ENCODING 7920
SWIDTH 856 0
DWIDTH 10 0
BBX 9 15 0 -5
BITMAP
000040
144400
702C40
B02C00
B02C00
B02C00
B02C00
B01400
B40000
780000
2F9600
074000
078000
07F400
015000
ENDCHAR
STARTCHAR uhorndotbelow
ENCODING 7921
SWIDTH 856 0
DWIDTH 10 0
BBX 9 15 0 -5
BITMAP
000040
144400
702C40
B02C00
B02C00
B02C00
B02C00
B01400
B40000
780000
2F9600
074000
078000
07F400
015000
ENDCHAR
STARTCHAR Ygrave
ENCODING 7922
SWIDTH 805 0
DWIDTH 10 0
BBX 8 13 0 -1
BITMAP
0555
1C00
2E50
2078
B038
B038
B034
B800
7D10
2F00
0B40
0794
07E0
ENDCHAR
STARTCHAR ygrave
ENCODING 7923
SWIDTH 805 0
DWIDTH 10 0
BBX 8 13 0 -1
BITMAP
0555
1C00
2E50
2078
B038
B038
B034
B800
7D10
2F00
0B40
0794
07E0
ENDCHAR
STARTCHAR Ydotbelow
ENCODING 7924
SWIDTH 805 0
DWIDTH 10 0
BBX 7 14 0 -5
BITMAP
1044
B038
B038
B034
B800
7D10
1F00
0B40
0794
0740
0740
0740
07F0
0140
ENDCHAR
STARTCHAR ydotbelow
ENCODING 7925
SWIDTH 805 0
DWIDTH 10 0
BBX 7 14 0 -5
BITMAP
1044
B038
B038
B034
B800
7D10
1F00
0B40
0794
0740
0740
0740
07F0
0140
ENDCHAR
STARTCHAR Yhookabove
ENCODING 7926
SWIDTH 805 0
DWIDTH 10 0
BBX 8 13 0 -1
BITMAP
0790
0B85
03ED
1078
B038
B038
B034
B800
7D10
2F00
0B40
0794
07E0
ENDCHAR
STARTCHAR yhookabove
ENCODING 7927
SWIDTH 805 0
DWIDTH 10 0
BBX 8 13 0 -1
BITMAP
0790
0B85
03ED
1078
B038
B038
B034
B800
7D10
2F00
0B40
0794
07E0
ENDCHAR
STARTCHAR Ytilde
ENCODING 7928
SWIDTH 805 0
DWIDTH 10 0
BBX 7 12 0 -1
BITMAP
0800
2D40
2078
B038
B038
B034
B800
7D10
2F00
0B40
0794
07E0
ENDCHAR
STARTCHAR ytilde
ENCODING 7929
SWIDTH 805 0
DWIDTH 10 0
BBX 7 12 0 -1
BITMAP
0800
2D40
2078
B038
B038
B034
B800
7D10
2F00
0B40
0794
07E0
ENDCHAR
STARTCHAR enspace
ENCODING 8192
SWIDTH 500 0
DWIDTH 6 0
BBX 1 1 0 0
BITMAP
00
ENDCHAR
STARTCHAR emspace
ENCODING 8193
SWIDTH 1000 0
DWIDTH 12 0
BBX 1 1 0 0
BITMAP
00
ENDCHAR
STARTCHAR uni2002
ENCODING 8194
SWIDTH 500 0
DWIDTH 6 0
BBX 1 1 0 0
BITMAP
00
ENDCHAR
STARTCHAR uni2003
ENCODING 8195
SWIDTH 1000 0
DWIDTH 12 0
BBX 1 1 0 0
BITMAP
00
ENDCHAR
STARTCHAR space.tab_en
ENCODING 8199
SWIDTH 1100 0
DWIDTH 13 0
BBX 1 1 0 0
BITMAP
00
ENDCHAR
STARTCHAR uni2010
ENCODING 8208
SWIDTH 520 0
DWIDTH 6 0
BBX 6 4 0 1
BITMAP
6000
B010
BFD0
5500
ENDCHAR
STARTCHAR figuredash
ENCODING 8210
SWIDTH 834 0
DWIDTH 10 0
BBX 10 5 0 1
BITMAP
040000
240000
740010
7FFF80
155500
ENDCHAR
STARTCHAR endash
ENCODING 8211
SWIDTH 834 0
DWIDTH 10 0
BBX 10 5 0 1
BITMAP
040000
240000
740010
7FFF80
155500
ENDCHAR
STARTCHAR emdash
ENCODING 8212
SWIDTH 1234 0
DWIDTH 15 0
BBX 14 5 0 1
BITMAP
04000000
24000000
74000000
7FFFFFD0
15555540
ENDCHAR
STARTCHAR horizontalbar
ENCODING 8213
SWIDTH 1234 0
DWIDTH 15 0
BBX 14 5 0 1
BITMAP
04000000
24000000
74000000
7FFFFFD0
15555540
ENDCHAR
STARTCHAR quoteleft
ENCODING 8216
SWIDTH 484 0
DWIDTH 6 0
BBX 5 7 0 2
BITMAP
0540
2540
7400
B000
B400
BF40
1500
ENDCHAR
STARTCHAR quoteright
ENCODING 8217
SWIDTH 484 0
DWIDTH 6 0
BBX 6 6 0 3
BITMAP
1400
7000
B000
B510
7A40
7E00
ENDCHAR
STARTCHAR quotesinglbase
ENCODING 8218
SWIDTH 484 0
DWIDTH 6 0
BBX 4 6 0 -3
BITMAP
30
B0
B9
74
7E
64
ENDCHAR
STARTCHAR quotedblleft
ENCODING 8220
SWIDTH 784 0
DWIDTH 9 0
BBX 9 7 0 2
BITMAP
055540
21B140
B02000
B02000
B02000
BFFF40
155400
ENDCHAR
STARTCHAR quotedblright
ENCODING 8221
SWIDTH 784 0
DWIDTH 9 0
BBX 9 6 0 3
BITMAP
101000
B02000
B02000
B53500
7ABA40
BDBD00
ENDCHAR
STARTCHAR quotedblbase
ENCODING 8222
SWIDTH 784 0
DWIDTH 9 0
BBX 8 6 0 -3
BITMAP
6020
B020
B929
B070
BEBA
6464
ENDCHAR
STARTCHAR dagger
ENCODING 8224
SWIDTH 818 0
DWIDTH 10 0
BBX 9 10 0 -1
BITMAP
014000
074000
200000
B01000
B54140
BF8340
034000
074000
079400
07E000
ENDCHAR
STARTCHAR daggerdbl
ENCODING 8225
SWIDTH 818 0
DWIDTH 10 0
BBX 10 10 0 -1
BITMAP
014400
200000
B01000
BA4240
664200
701000
B00000
BA4390
6B9600
07E000
ENDCHAR
STARTCHAR bullet
ENCODING 8226
SWIDTH 543 0
DWIDTH 7 0
BBX 6 6 0 0
BITMAP
7100
B000
B100
B000
BFD0
1500
ENDCHAR
STARTCHAR ellipsis
ENCODING 8230
SWIDTH 1210 0
DWIDTH 15 0
BBX 14 5 0 -1
BITMAP
00141400
70241800
B0241800
B5796D50
BF7FBF80
ENDCHAR
STARTCHAR perthousand
ENCODING 8240
SWIDTH 1517 0
DWIDTH 18 0
BBX 18 10 0 -1
BITMAP
0555100000
614D000000
B148000000
B008000000
B558401000
7FB4962140
1570D62140
00A0C02000
00FAE5B950
00F9FE7F40
ENDCHAR
STARTCHAR minute
ENCODING 8242
SWIDTH 456 0
DWIDTH 5 0
BBX 5 7 0 2
BITMAP
1400
7000
B000
B000
B440
BF00
1400
ENDCHAR
STARTCHAR second
ENCODING 8243
SWIDTH 766 0
DWIDTH 9 0
BBX 9 7 0 2
BITMAP
142040
703000
B03000
B02000
B47000
BFFE00
145400
ENDCHAR
STARTCHAR guilsinglleft
ENCODING 8249
SWIDTH 663 0
DWIDTH 8 0
BBX 7 6 0 0
BITMAP
1400
7064
B000
B800
7FA4
1BF4
ENDCHAR
STARTCHAR guilsinglright
ENCODING 8250
SWIDTH 663 0
DWIDTH 8 0
BBX 7 7 0 0
BITMAP
1400
7400
7E40
2900
2400
79A4
7E40
ENDCHAR
STARTCHAR fraction
ENCODING 8260
SWIDTH 417 0
DWIDTH 5 0
BBX 4 10 0 -1
BITMAP
04
28
38
34
70
70
A0
A0
E5
F8
ENDCHAR
STARTCHAR zero.sups
ENCODING 8304
SWIDTH 656 0
DWIDTH 8 0
BBX 6 8 0 1
BITMAP
0150
2000
61C0
A1C0
A1C0
A000
7400
2FD0
ENDCHAR
STARTCHAR foursuperior
ENCODING 8308
SWIDTH 608 0
DWIDTH 7 0
BBX 7 8 0 1
BITMAP
1144
B0C0
B0C0
B040
B550
BFC0
16E4
0190
ENDCHAR
STARTCHAR five.sups
ENCODING 8309
SWIDTH 593 0
DWIDTH 7 0
BBX 7 8 0 1
BITMAP
1550
7000
B0A0
B000
BA80
7554
BFE0
1500
ENDCHAR
STARTCHAR six.sups
ENCODING 8310
SWIDTH 628 0
DWIDTH 8 0
BBX 7 8 0 1
BITMAP
0550
2000
70A4
B100
B0C0
B440
BEA4
2FD0
ENDCHAR
STARTCHAR seven.sups
ENCODING 8311
SWIDTH 577 0
DWIDTH 7 0
BBX 6 8 0 1
BITMAP
1150
B000
BF40
5800
2450
7840
7E00
1400
ENDCHAR
STARTCHAR eight.sups
ENCODING 8312
SWIDTH 638 0
DWIDTH 8 0
BBX 8 8 0 1
BITMAP
0550
2400
7480
7440
70D0
B041
BEA8
7FD0
ENDCHAR
STARTCHAR nine.sups
ENCODING 8313
SWIDTH 628 0
DWIDTH 8 0
BBX 6 9 0 0
BITMAP
0550
2000
B0C0
B450
BE80
2800
3810
3FD0
1500
ENDCHAR
STARTCHAR parenleft.sups
ENCODING 8317
SWIDTH 434 0
DWIDTH 5 0
BBX 4 8 0 1
BITMAP
10
61
A0
A0
A0
A0
B4
7E
ENDCHAR
STARTCHAR parenright.sups
ENCODING 8318
SWIDTH 435 0
DWIDTH 5 0
BBX 4 9 0 1
BITMAP
10
60
B4
28
28
28
10
60
B9
ENDCHAR
STARTCHAR n.sups
ENCODING 8319
SWIDTH 673 0
DWIDTH 8 0
BBX 7 7 0 2
BITMAP
0150
2080
61C0
60C0
60C0
60C0
7DF8
ENDCHAR
STARTCHAR zero.sinf
ENCODING 8320
SWIDTH 656 0
DWIDTH 8 0
BBX 6 8 0 -1
BITMAP
0150
2000
61C0
A1C0
A1C0
A000
7400
2FD0
ENDCHAR
STARTCHAR one.sinf
ENCODING 8321
SWIDTH 557 0
DWIDTH 7 0
BBX 7 8 0 -1
BITMAP
1540
7400
BD00
1D00
1800
7154
BFE0
5540
ENDCHAR
STARTCHAR two.sinf
ENCODING 8322
SWIDTH 585 0
DWIDTH 7 0
BBX 7 8 0 -1
BITMAP
1550
7A40
7800
2010
B090
B554
BFE0
5540
ENDCHAR
STARTCHAR three.sinf
ENCODING 8323
SWIDTH 584 0
DWIDTH 7 0
BBX 7 8 0 -1
BITMAP
1140
7000
BA00
6800
3E80
7154
BFD0
5500
ENDCHAR
STARTCHAR four.sinf
ENCODING 8324
SWIDTH 620 0
DWIDTH 7 0
BBX 7 8 0 -1
BITMAP
1144
A1C0
E1C0
F040
F550
BFC0
17E4
0190
ENDCHAR
STARTCHAR five.sinf
ENCODING 8325
SWIDTH 593 0
DWIDTH 7 0
BBX 7 8 0 -1
BITMAP
1550
7000
B0A0
B000
BA80
7554
BFE0
1500
ENDCHAR
STARTCHAR six.sinf
ENCODING 8326
SWIDTH 628 0
DWIDTH 8 0
BBX 7 8 0 -1
BITMAP
0550
2000
70A4
B100
B0C0
B440
BEA4
2FD0
ENDCHAR
STARTCHAR seven.sinf
ENCODING 8327
SWIDTH 577 0
DWIDTH 7 0
BBX 6 8 0 -1
BITMAP
1150
B000
BF40
5800
2450
7840
7E00
1400
ENDCHAR
STARTCHAR eight.sinf
ENCODING 8328
SWIDTH 638 0
DWIDTH 8 0
BBX 8 8 0 -1
BITMAP
0550
2400
7480
7440
70D0
B041
BEA8
7FD0
ENDCHAR
STARTCHAR nine.sinf
ENCODING 8329
SWIDTH 628 0
DWIDTH 8 0
BBX 6 9 0 -2
BITMAP
0550
2000
B0C0
B450
BE80
2800
3810
3FD0
1500
ENDCHAR
STARTCHAR parenleft.sinf
ENCODING 8333
SWIDTH 434 0
DWIDTH 5 0
BBX 4 8 0 -1
BITMAP
10
61
A0
A0
A0
A0
B4
7E
ENDCHAR
STARTCHAR parenright.sinf
ENCODING 8334
SWIDTH 435 0
DWIDTH 5 0
BBX 4 9 0 -1
BITMAP
10
60
B4
28
28
28
10
60
B9
ENDCHAR
STARTCHAR colonsign
ENCODING 8353
SWIDTH 728 0
DWIDTH 9 0
BBX 9 13 0 -3
BITMAP
004000
025400
050100
240400
700040
B03E00
B01400
B00000
B40000
7E4040
2FA500
07F800
011000
ENDCHAR
STARTCHAR lira
ENCODING 8356
SWIDTH 795 0
DWIDTH 10 0
BBX 9 10 0 -1
BITMAP
000100
140000
342900
610400
F01000
E10800
F02400
B40100
795540
7FFF00
ENDCHAR
STARTCHAR naira
ENCODING 8358
SWIDTH 853 0
DWIDTH 10 0
BBX 10 10 0 -1
BITMAP
140800
751C00
700400
610040
F00000
E12040
F43810
B43C00
796D50
7E2F40
ENDCHAR
STARTCHAR peseta
ENCODING 8359
SWIDTH 812 0
DWIDTH 10 0
BBX 10 10 0 -1
BITMAP
140000
740000
702410
A13410
F40010
B41540
743D00
741000
794000
7E0000
ENDCHAR
STARTCHAR dong
ENCODING 8363
SWIDTH 782 0
DWIDTH 9 0
BBX 9 13 0 -4
BITMAP
005000
024100
07E040
040000
200000
B0B000
B0A000
B00000
B80100
2AA800
380100
7FFD00
155000
ENDCHAR
STARTCHAR Euro
ENCODING 8364
SWIDTH 748 0
DWIDTH 9 0
BBX 9 10 0 -1
BITMAP
000040
140000
341640
710000
B02900
B10000
B41500
B80000
7E5540
1FFE00
ENDCHAR
STARTCHAR peso
ENCODING 8369
SWIDTH 812 0
DWIDTH 10 0
BBX 10 10 0 -1
BITMAP
140000
700010
612500
F03410
E10000
F41540
743D00
741000
794000
7E0000
ENDCHAR
STARTCHAR guarani
ENCODING 8370
SWIDTH 788 0
DWIDTH 9 0
BBX 9 12 0 -2
BITMAP
004000
014100
041000
200040
707E00
B06800
B02400
B41000
781000
3F4240
1BE900
02A000
ENDCHAR
STARTCHAR cedi
ENCODING 8373
SWIDTH 728 0
DWIDTH 9 0
BBX 9 13 0 -3
BITMAP
004000
024000
0A4100
241000
700040
B03E00
B01400
B00000
B40000
7E4140
2F8200
07F400
014000
ENDCHAR
STARTCHAR indianrupee
ENCODING 8377
SWIDTH 713 0
DWIDTH 9 0
BBX 8 10 0 -1
BITMAP
2154
B500
7651
B000
BA41
7150
BFD0
15E0
01E5
00FD
ENDCHAR
STARTCHAR turkishlira
ENCODING 8378
SWIDTH 795 0
DWIDTH 10 0
BBX 8 10 0 -1
BITMAP
1440
7000
A110
E100
E128
F038
F024
B000
B955
BFF4
ENDCHAR
STARTCHAR ruble
ENCODING 8381
SWIDTH 782 0
DWIDTH 9 0
BBX 9 10 0 -1
BITMAP
140000
741000
743800
741000
750040
702A00
610400
F01000
F94000
7E0000
ENDCHAR
STARTCHAR liter
ENCODING 8467
SWIDTH 749 0
DWIDTH 9 0
BBX 8 10 0 -2
BITMAP
1400
7050
B060
B000
B101
B028
B400
BD00
3FF8
0550
ENDCHAR
STARTCHAR uni2117
ENCODING 8471
SWIDTH 967 0
DWIDTH 12 0
BBX 11 13 0 -3
BITMAP
001540
056A54
2596A4
765020
B64920
B64420
B65570
B64EB0
B654A0
B59094
7E4050
2FFF80
015500
ENDCHAR
STARTCHAR uni2120
ENCODING 8480
SWIDTH 1003 0
DWIDTH 12 0
BBX 12 7 0 2
BITMAP
001410
216554
B16400
B95450
B554B0
B569F5
BF7DB8
ENDCHAR
STARTCHAR trademark
ENCODING 8482
SWIDTH 1003 0
DWIDTH 12 0
BBX 12 7 0 2
BITMAP
101410
A55554
FC7400
7C7450
2C74B0
2D79F5
2E7DB8
ENDCHAR
STARTCHAR Omega
ENCODING 8486
SWIDTH 877 0
DWIDTH 11 0
BBX 10 10 0 -2
BITMAP
040000
341400
743C00
742C00
742C00
742C00
605500
B01400
FFFFE0
551540
ENDCHAR
STARTCHAR estimated
ENCODING 8494
SWIDTH 815 0
DWIDTH 10 0
BBX 9 10 0 -2
BITMAP
140000
701400
B06400
B10000
B01540
B06A40
B40000
790000
3FFE00
055400
ENDCHAR
STARTCHAR onethird
ENCODING 8531
SWIDTH 1269 0
DWIDTH 15 0
BBX 15 10 0 -1
BITMAP
15420000
740A0000
BD0E0400
2D1D1400
181D2E40
71582C10
BFF83E80
55782400
0039B954
003E7FD0
ENDCHAR
STARTCHAR twothirds
ENCODING 8532
SWIDTH 1269 0
DWIDTH 15 0
BBX 15 10 0 -1
BITMAP
15560000
79460000
79460400
211D1400
70992E40
B4042C14
BFF83E80
55782400
0039B954
003E7FD0
ENDCHAR
STARTCHAR oneeighth
ENCODING 8539
SWIDTH 1283 0
DWIDTH 15 0
BBX 15 10 0 -1
BITMAP
25424000
BD0A0000
6D0E0500
1D1D1480
20092404
B1582110
BFF821C0
55782040
0039B950
003E7F80
ENDCHAR
STARTCHAR threeeighths
ENCODING 8540
SWIDTH 1293 0
DWIDTH 16 0
BBX 15 10 0 -1
BITMAP
21514000
B50B0000
695A0400
3E8514C0
30051404
75582010
BFFC21C0
55283040
0039B950
003E7F90
ENDCHAR
STARTCHAR fiveeighths
ENCODING 8541
SWIDTH 1303 0
DWIDTH 16 0
BBX 15 10 0 -1
BITMAP
15564000
70AB0000
B0060500
B0060480
B0051804
75592100
BFEC20D0
152C3040
002D7950
003E7FD0
ENDCHAR
STARTCHAR seveneighths
ENCODING 8542
SWIDTH 1241 0
DWIDTH 15 0
BBX 14 10 0 -1
BITMAP
21551000
B0090000
6A481400
186C2240
34782010
79745040
7E745280
14709100
00B5F550
00BDBF40
ENDCHAR
STARTCHAR arrowleft
ENCODING 8592
SWIDTH 1100 0
DWIDTH 13 0
BBX 9 9 2 -1
BITMAP
000400
000000
000000
111000
F40100
BE0740
2FD500
07F400
004000
ENDCHAR
STARTCHAR arrowup
ENCODING 8593
SWIDTH 1100 0
DWIDTH 13 0
BBX 9 9 2 -1
BITMAP
004000
020000
050000
084400
200000
7F4740
5B4500
079400
07E000
ENDCHAR
STARTCHAR arrowright
ENCODING 8594
SWIDTH 1100 0
DWIDTH 13 0
BBX 9 9 2 -1
BITMAP
014000
070000
161000
A00000
E11040
FF0100
5B1400
0B8000
050000
ENDCHAR
STARTCHAR arrowdown
ENCODING 8595
SWIDTH 1100 0
DWIDTH 13 0
BBX 9 9 2 -1
BITMAP
024000
074000
150040
741400
7C0000
2E1000
1F4000
07D000
028000
ENDCHAR
STARTCHAR arrowupleft
ENCODING 8598
SWIDTH 1100 0
DWIDTH 13 0
BBX 8 8 2 0
BITMAP
0400
2400
7410
7810
3C00
3C60
2EF9
1878
ENDCHAR
STARTCHAR arrowupright
ENCODING 8599
SWIDTH 1100 0
DWIDTH 13 0
BBX 8 7 2 0
BITMAP
0400
2800
3E10
1804
1420
7DB9
2D74
ENDCHAR
STARTCHAR arrowdownright
ENCODING 8600
SWIDTH 1100 0
DWIDTH 13 0
BBX 9 8 2 -1
BITMAP
041000
280000
7E1400
1D0000
180000
3FA540
1AFE00
000400
ENDCHAR
STARTCHAR arrowdownleft
ENCODING 8601
SWIDTH 1100 0
DWIDTH 13 0
BBX 8 8 2 -1
BITMAP
0810
1C00
2850
3800
3400
756D
7F94
1000
ENDCHAR
STARTCHAR uni21AA
ENCODING 8618
SWIDTH 1100 0
DWIDTH 13 0
BBX 9 11 2 -2
BITMAP
100000
600040
E1FE00
E19400
E1C000
E04000
F00500
FE9040
2AC500
02D400
024000
ENDCHAR
STARTCHAR uni21AB
ENCODING 8619
SWIDTH 1100 0
DWIDTH 13 0
BBX 10 11 1 -2
BITMAP
050000
0E0000
1FFF40
055740
000340
000100
145000
7E0690
2FD200
07F800
00A000
ENDCHAR
STARTCHAR uni21B0
ENCODING 8624
SWIDTH 1100 0
DWIDTH 13 0
BBX 10 8 1 -2
BITMAP
041010
780000
7F4700
0BE700
01FF00
001B00
000BE0
000540
ENDCHAR
STARTCHAR uni21B1
ENCODING 8625
SWIDTH 1100 0
DWIDTH 13 0
BBX 8 10 2 -2
BITMAP
01C0
0280
1004
6044
E1C1
E1D4
E1D0
E100
FD00
5000
ENDCHAR
STARTCHAR uni21B2
ENCODING 8626
SWIDTH 1100 0
DWIDTH 13 0
BBX 10 10 1 -2
BITMAP
000200
000700
000300
000600
045000
780150
7F4740
0BE400
01F400
001000
ENDCHAR
STARTCHAR uni21B3
ENCODING 8627
SWIDTH 1100 0
DWIDTH 13 0
BBX 10 11 1 -2
BITMAP
040000
240000
740000
746000
746000
780100
7D5110
2FE040
01E500
00E000
004000
ENDCHAR
STARTCHAR partialdiff
ENCODING 8706
SWIDTH 792 0
DWIDTH 10 0
BBX 8 11 0 -2
BITMAP
0400
1C00
2D50
2E60
1401
7021
B074
B000
B800
7FED
1A90
ENDCHAR
STARTCHAR Delta
ENCODING 8710
SWIDTH 830 0
DWIDTH 10 0
BBX 9 11 0 -2
BITMAP
010000
090000
1C0000
282000
343400
347800
706800
B10000
B00000
BFFF80
555500
ENDCHAR
STARTCHAR product
ENCODING 8719
SWIDTH 859 0
DWIDTH 10 0
BBX 9 11 0 -2
BITMAP
040000
740000
741400
743C00
742C00
742C00
742C00
742C00
742C00
7F6FC0
151500
ENDCHAR
STARTCHAR summation
ENCODING 8721
SWIDTH 750 0
DWIDTH 9 0
BBX 9 12 0 -3
BITMAP
040000
700000
B00500
B80900
7E0000
1F0000
050000
141000
710000
B00000
BFFE40
6AA800
ENDCHAR
STARTCHAR minus
ENCODING 8722
SWIDTH 834 0
DWIDTH 10 0
BBX 9 5 0 1
BITMAP
040000
240000
755540
7FFF40
155400
ENDCHAR
STARTCHAR uni2215
ENCODING 8725
SWIDTH 417 0
DWIDTH 5 0
BBX 4 10 0 -1
BITMAP
04
28
38
34
70
70
A0
A0
E5
F8
ENDCHAR
STARTCHAR uni2219
ENCODING 8729
SWIDTH 464 0
DWIDTH 6 0
BBX 5 4 0 2
BITMAP
7000
B000
B540
BF40
ENDCHAR
STARTCHAR radical
ENCODING 8730
SWIDTH 841 0
DWIDTH 10 0
BBX 8 12 0 -2
BITMAP
0001
0009
001D
001C
2028
A128
F814
BD00
1E00
0F00
0BFD
0150
ENDCHAR
STARTCHAR infinity
ENCODING 8734
SWIDTH 978 0
DWIDTH 12 0
BBX 11 8 0 -1
BITMAP
100000
705580
B0A5C0
B09480
B00000
B95954
7FFFE0
000100
ENDCHAR
STARTCHAR integral
ENCODING 8747
SWIDTH 574 0
DWIDTH 7 0
BBX 7 13 0 -3
BITMAP
0004
0400
1C04
2C10
2C00
2C00
2C00
2C00
2800
6000
E040
FE00
5400
ENDCHAR
STARTCHAR approxequal
ENCODING 8776
SWIDTH 834 0
DWIDTH 10 0
BBX 9 7 0 0
BITMAP
140000
744000
7FFF40
140500
340000
7AA540
7AFE00
ENDCHAR
STARTCHAR notequal
ENCODING 8800
SWIDTH 834 0
DWIDTH 10 0
BBX 9 9 0 -1
BITMAP
004000
240400
740000
7F8380
294100
341000
790540
7F5B40
0BD000
ENDCHAR
STARTCHAR lessequal
ENCODING 8804
SWIDTH 814 0
DWIDTH 10 0
BBX 9 11 0 -2
BITMAP
000040
000000
040040
342A00
741400
780000
3E4000
240000
740000
7FFF40
155400
ENDCHAR
STARTCHAR greaterequal
ENCODING 8805
SWIDTH 814 0
DWIDTH 10 0
BBX 9 11 0 -2
BITMAP
040000
340000
780000
3FE400
069000
140040
340600
740000
740000
7FFF40
155500
ENDCHAR
STARTCHAR block
ENCODING 9608
SWIDTH 1000 0
DWIDTH 12 0
BBX 14 13 -1 -2
BITMAP
6AAAAA90
7FFFFFD0
7FFFFFD0
7FFFFFD0
7FFFFFD0
7FFFFFD0
7FFFFFD0
7FFFFFD0
7FFFFFD0
7FFFFFD0
7FFFFFD0
7FFFFFD0
7FFFFFD0
ENDCHAR
STARTCHAR blacksquare
ENCODING 9632
SWIDTH 1100 0
DWIDTH 13 0
BBX 7 7 3 0
BITMAP
2000
A000
E000
E000
E000
FAA4
AAA0
ENDCHAR
STARTCHAR blackuppointingtriangle
ENCODING 9650
SWIDTH 1100 0
DWIDTH 13 0
BBX 9 7 2 0
BITMAP
004000
024000
061000
084000
240000
7AAA40
6AA900
ENDCHAR
STARTCHAR whiteuppointingtriangle
ENCODING 9651
SWIDTH 1100 0
DWIDTH 13 0
BBX 7 6 4 1
BITMAP
0540
0440
1010
4010
4004
5554
ENDCHAR
STARTCHAR blackrightpointingtriangle
ENCODING 9654
SWIDTH 1100 0
DWIDTH 13 0
BBX 7 9 3 -1
BITMAP
1000
A000
E000
E040
E104
E050
E500
F400
4000
ENDCHAR
STARTCHAR whiterightpointingtriangle
ENCODING 9655
SWIDTH 1100 0
DWIDTH 13 0
BBX 6 7 4 1
BITMAP
5000
4500
4040
4010
4050
4100
5400
ENDCHAR
STARTCHAR blackdownpointingtriangle
ENCODING 9660
SWIDTH 1100 0
DWIDTH 13 0
BBX 6 7 2 0
BITMAP
2400
7840
3D10
2F00
0F80
07D0
0240
ENDCHAR
STARTCHAR whitedownpointingtriangle
ENCODING 9661
SWIDTH 1100 0
DWIDTH 13 0
BBX 7 7 4 1
BITMAP
1550
4004
4000
1010
1040
0440
0100
ENDCHAR
STARTCHAR blackleftpointingtriangle
ENCODING 9664
SWIDTH 1100 0
DWIDTH 13 0
BBX 7 6 3 -1
BITMAP
1040
B800
BF40
1FE4
01F4
0010
ENDCHAR
STARTCHAR whiteleftpointingtriangle
ENCODING 9665
SWIDTH 1100 0
DWIDTH 13 0
BBX 7 7 4 1
BITMAP
0010
0104
1404
4004
1004
0504
0054
ENDCHAR
STARTCHAR blackdiamond
ENCODING 9670
SWIDTH 1100 0
DWIDTH 13 0
BBX 7 7 2 -1
BITMAP
0010
1004
7400
BD00
2F40
0BD0
0140
ENDCHAR
STARTCHAR lozenge
ENCODING 9674
SWIDTH 831 0
DWIDTH 10 0
BBX 7 11 0 -2
BITMAP
0100
0500
0C00
2824
3438
7434
7810
3D00
2E00
0FFC
0550
ENDCHAR
STARTCHAR uni25D6
ENCODING 9686
SWIDTH 546 0
DWIDTH 7 0
BBX 7 13 0 -2
BITMAP
0068
07FC
1FFC
7FFC
BFFC
BFFC
FFFC
BFFC
BFFC
7FFC
2FFC
0BFC
01BC
ENDCHAR
STARTCHAR uni25D7
ENCODING 9687
SWIDTH 546 0
DWIDTH 7 0
BBX 8 13 -1 -2
BITMAP
6900
7F90
7FE0
7FF8
7FFD
7FFD
7FFD
7FFD
7FFD
7FF8
7FF4
7FD0
7E40
ENDCHAR
STARTCHAR uni25DC
ENCODING 9692
SWIDTH 1280 0
DWIDTH 15 0
BBX 13 13 1 -2
BITMAP
00016A80
006FFFC0
01FFFFC0
07FFFFC0
1FFFFFC0
2FFFFFC0
3FFFFFC0
7FFFFFC0
7FFFFFC0
BFFFFFC0
BFFFFFC0
BFFFFFC0
BFFFFF80
ENDCHAR
STARTCHAR uni25DD
ENCODING 9693
SWIDTH 1280 0
DWIDTH 15 0
BBX 13 13 1 -2
BITMAP
6A940000
BFFE4000
BFFFE000
BFFFF800
BFFFFD00
BFFFFF00
BFFFFF40
BFFFFF80
BFFFFF80
BFFFFFC0
BFFFFFC0
BFFFFFC0
BFFFFF80
ENDCHAR
STARTCHAR uni25DE
ENCODING 9694
SWIDTH 1280 0
DWIDTH 15 0
BBX 13 13 1 -2
BITMAP
6AAAAA80
BFFFFFC0
BFFFFFC0
BFFFFFC0
BFFFFFC0
BFFFFF80
BFFFFF40
BFFFFF40
BFFFFE00
BFFFFC00
BFFFE400
BFFF8000
BFE50000
ENDCHAR
STARTCHAR uni25DF
ENCODING 9695
SWIDTH 1280 0
DWIDTH 15 0
BBX 13 13 1 -2
BITMAP
6AAAAA80
BFFFFFC0
BFFFFFC0
BFFFFFC0
BFFFFFC0
7FFFFFC0
7FFFFFC0
2FFFFFC0
1FFFFFC0
0BFFFFC0
02FFFFC0
007FFFC0
0006BF80
ENDCHAR
STARTCHAR uni261A
ENCODING 9754
SWIDTH 1100 0
DWIDTH 13 0
BBX 11 7 1 0
BITMAP
100040
7A4000
BF4000
078000
038040
03FFD4
0156E0
ENDCHAR
STARTCHAR uni261B
ENCODING 9755
SWIDTH 1100 0
DWIDTH 13 0
BBX 11 9 1 -1
BITMAP
040000
240004
740064
7400A0
740000
740000
75FD00
795000
100000
ENDCHAR
STARTCHAR uni261C
ENCODING 9756
SWIDTH 1100 0
DWIDTH 13 0
BBX 9 7 3 1
BITMAP
000140
555580
540180
050180
050180
054580
000180
ENDCHAR
STARTCHAR uni261D
ENCODING 9757
SWIDTH 1100 0
DWIDTH 13 0
BBX 7 9 4 0
BITMAP
1000
0400
4500
4550
4010
4010
1010
5554
AAA4
ENDCHAR
STARTCHAR uni261E
ENCODING 9758
SWIDTH 1100 0
DWIDTH 13 0
BBX 9 7 3 1
BITMAP
500000
955540
901540
901400
901400
945000
900000
ENDCHAR
STARTCHAR uni261F
ENCODING 9759
SWIDTH 1100 0
DWIDTH 13 0
BBX 7 9 4 0
BITMAP
AAA4
5554
1010
1010
1000
1510
1550
0050
0050
ENDCHAR
STARTCHAR uni27A1
ENCODING 10145
SWIDTH 650 0
DWIDTH 8 0
BBX 9 18 -1 -5
BITMAP
280000
2E0000
7F4000
7FD000
7FE000
7FF800
7FFD00
7FFF40
7FFF80
7FFF40
7FFE00
7FF800
7FF400
7FD000
7F8000
2E0000
2D0000
140000
ENDCHAR
STARTCHAR uni2B1B
ENCODING 11035
SWIDTH 1280 0
DWIDTH 15 0
BBX 13 13 1 -2
BITMAP
6AAAAA80
BFFFFFC0
BFFFFFC0
BFFFFFC0
BFFFFFC0
BFFFFFC0
BFFFFFC0
BFFFFFC0
BFFFFFC0
BFFFFFC0
BFFFFFC0
BFFFFFC0
BFFFFF80
ENDCHAR
STARTCHAR uni2B24
ENCODING 11044
SWIDTH 1280 0
DWIDTH 15 0
BBX 14 14 1 -3
BITMAP
01AF9000
0BFFF900
2FFFFE00
7FFFFF80
BFFFFFC0
FFFFFFD0
FFFFFFD0
FFFFFFD0
BFFFFFD0
BFFFFF80
3FFFFF40
1FFFFE00
06FFF400
00554000
ENDCHAR
STARTCHAR A.salt
ENCODING 57600
SWIDTH 836 0
DWIDTH 10 0
BBX 9 10 0 -2
BITMAP
140000
341400
707800
B02400
B10000
B01000
B07800
B43800
BF7F80
141500
ENDCHAR
STARTCHAR Agrave.salt
ENCODING 57601
SWIDTH 836 0
DWIDTH 10 0
BBX 9 14 0 -2
BITMAP
010000
090000
1E5400
1E5500
140000
341400
707800
B02400
B10000
B01000
B07800
B43800
BF7F80
141500
ENDCHAR
STARTCHAR Aacute.salt
ENCODING 57602
SWIDTH 836 0
DWIDTH 10 0
BBX 9 13 0 -2
BITMAP
050000
1D1500
1E5500
140000
341400
707800
B02400
B10000
B01000
B07800
B43800
BF7F80
141500
ENDCHAR
STARTCHAR Acircumflex.salt
ENCODING 57603
SWIDTH 836 0
DWIDTH 10 0
BBX 9 13 0 -2
BITMAP
050000
1D6500
1E5540
140000
341400
707800
B02400
B10000
B01000
B07800
B43800
BF7F80
141500
ENDCHAR
STARTCHAR Atilde.salt
ENCODING 57604
SWIDTH 836 0
DWIDTH 10 0
BBX 9 13 0 -2
BITMAP
050000
1D5000
1E5500
140000
341400
707800
B02400
B10000
B01000
B07800
B43800
BF7F80
141500
ENDCHAR
STARTCHAR Adieresis.salt
ENCODING 57605
SWIDTH 836 0
DWIDTH 10 0
BBX 9 13 0 -2
BITMAP
0C2000
2C2440
2E5540
140000
341400
707800
B02400
B10000
B01000
B07800
B43800
BF7F80
141500
ENDCHAR
STARTCHAR Aring.salt
ENCODING 57606
SWIDTH 836 0
DWIDTH 10 0
BBX 9 13 0 -2
BITMAP
050000
1C3400
2D5440
241000
341400
707800
B02400
B10000
B01000
B07800
B43800
BF7F80
141500
ENDCHAR
STARTCHAR Amacron.salt
ENCODING 57607
SWIDTH 836 0
DWIDTH 10 0
BBX 9 13 0 -2
BITMAP
050000
1D0000
1E5500
140000
341400
707800
B02400
B10000
B01000
B07800
B43800
BF7F80
141500
ENDCHAR
STARTCHAR Abreve.salt
ENCODING 57608
SWIDTH 836 0
DWIDTH 10 0
BBX 9 14 0 -2
BITMAP
050400
1D1000
1E5500
1E5500
140000
341400
707800
B02400
B10000
B01000
B07800
B43800
BF7F80
141500
ENDCHAR
STARTCHAR Aogonek.salt
ENCODING 57609
SWIDTH 836 0
DWIDTH 10 0
BBX 10 12 0 -4
BITMAP
140000
341400
707800
B02400
B10000
B01000
B07800
B43800
BF7850
143800
003E80
001A00
ENDCHAR
STARTCHAR E.salt
ENCODING 57610
SWIDTH 743 0
DWIDTH 9 0
BBX 9 10 0 -2
BITMAP
140000
301540
702900
B10000
B01500
B02800
B40000
7D0000
2FFE00
055400
ENDCHAR
STARTCHAR Egrave.salt
ENCODING 57611
SWIDTH 743 0
DWIDTH 9 0
BBX 9 14 0 -2
BITMAP
040000
1C0000
2E5000
2E5500
140000
301540
702900
B10000
B01500
B02800
B40000
7D0000
2FFE00
055400
ENDCHAR
STARTCHAR Eacute.salt
ENCODING 57612
SWIDTH 743 0
DWIDTH 9 0
BBX 9 13 0 -2
BITMAP
040000
1D1500
2E5500
140000
301540
702900
B10000
B01500
B02800
B40000
7D0000
2FFE00
055400
ENDCHAR
STARTCHAR Ecircumflex.salt
ENCODING 57613
SWIDTH 743 0
DWIDTH 9 0
BBX 9 13 0 -2
BITMAP
040000
1C6400
2E5500
140000
301540
702900
B10000
B01500
B02800
B40000
7D0000
2FFE00
055400
ENDCHAR
STARTCHAR Edieresis.salt
ENCODING 57614
SWIDTH 743 0
DWIDTH 9 0
BBX 9 13 0 -2
BITMAP
182000
2C2000
2E5500
140000
301540
702900
B10000
B01500
B02800
B40000
7D0000
2FFE00
055400
ENDCHAR
STARTCHAR Emacron.salt
ENCODING 57615
SWIDTH 743 0
DWIDTH 9 0
BBX 9 13 0 -2
BITMAP
080000
1D0000
2E5500
140000
301540
702900
B10000
B01500
B02800
B40000
7D0000
2FFE00
055400
ENDCHAR
STARTCHAR Ebreve.salt
ENCODING 57616
SWIDTH 743 0
DWIDTH 9 0
BBX 9 14 0 -2
BITMAP
050400
1C1000
2E5500
1E5400
140000
301540
702900
B10000
B01500
B02800
B40000
7D0000
2FFE00
055400
ENDCHAR
STARTCHAR Edotaccent.salt
ENCODING 57617
SWIDTH 743 0
DWIDTH 9 0
BBX 9 14 0 -2
BITMAP
004000
024000
074000
065400
140000
301540
702900
B10000
B01500
B02800
B40000
7D0000
2FFE00
055400
ENDCHAR
STARTCHAR Eogonek.salt
ENCODING 57618
SWIDTH 743 0
DWIDTH 9 0
BBX 9 12 0 -4
BITMAP
140000
301540
702900
B10000
B01500
B02800
B40000
7D0000
2FE140
05E000
00FA00
006800
ENDCHAR
STARTCHAR Ecaron.salt
ENCODING 57619
SWIDTH 743 0
DWIDTH 9 0
BBX 9 14 0 -2
BITMAP
050000
1C0000
2E4500
1E5400
140000
301540
702900
B10000
B01500
B02800
B40000
7D0000
2FFE00
055400
ENDCHAR
STARTCHAR I.salt
ENCODING 57620
SWIDTH 471 0
DWIDTH 6 0
BBX 5 11 0 -2
BITMAP
0400
3400
7400
7400
7400
7400
7400
7400
7400
7F40
1500
ENDCHAR
STARTCHAR Igrave.salt
ENCODING 57621
SWIDTH 471 0
DWIDTH 6 0
BBX 6 13 0 -2
BITMAP
6000
B550
B950
3400
7400
7400
7400
7400
7400
7400
7400
7F40
1500
ENDCHAR
STARTCHAR Iacute.salt
ENCODING 57622
SWIDTH 471 0
DWIDTH 6 0
BBX 6 13 0 -2
BITMAP
2000
B150
B940
7400
7400
7400
7400
7400
7400
7400
7400
7F40
1500
ENDCHAR
STARTCHAR Icircumflex.salt
ENCODING 57623
SWIDTH 471 0
DWIDTH 6 0
BBX 6 13 0 -2
BITMAP
5000
E650
F950
7400
7400
7400
7400
7400
7400
7400
7400
7F40
1500
ENDCHAR
STARTCHAR Idieresis.salt
ENCODING 57624
SWIDTH 471 0
DWIDTH 6 0
BBX 6 14 0 -2
BITMAP
1000
9200
D240
F960
3400
7400
7400
7400
7400
7400
7400
7400
7F40
1500
ENDCHAR
STARTCHAR Itilde.salt
ENCODING 57625
SWIDTH 471 0
DWIDTH 6 0
BBX 6 13 0 -2
BITMAP
5000
D510
B940
3400
7400
7400
7400
7400
7400
7400
7400
7F40
1500
ENDCHAR
STARTCHAR Imacron.salt
ENCODING 57626
SWIDTH 471 0
DWIDTH 6 0
BBX 6 13 0 -2
BITMAP
2000
E010
F940
7400
7400
7400
7400
7400
7400
7400
7400
7F40
1500
ENDCHAR
STARTCHAR Ibreve.salt
ENCODING 57627
SWIDTH 471 0
DWIDTH 6 0
BBX 7 14 -1 -2
BITMAP
0444
3400
7950
3E50
1D00
1D00
1D00
1D00
1D00
1D00
1D00
1D00
1FD0
0540
ENDCHAR
STARTCHAR Iogonek.salt
ENCODING 57628
SWIDTH 471 0
DWIDTH 6 0
BBX 5 13 0 -4
BITMAP
0400
3400
7400
7400
7400
7400
7400
7400
7400
7040
7400
BE40
2900
ENDCHAR
STARTCHAR Idotaccent.salt
ENCODING 57629
SWIDTH 471 0
DWIDTH 6 0
BBX 5 14 0 -2
BITMAP
0400
2400
7400
7940
7400
7400
7400
7400
7400
7400
7400
7400
7F40
1500
ENDCHAR
STARTCHAR L.salt
ENCODING 57630
SWIDTH 715 0
DWIDTH 9 0
BBX 8 11 0 -2
BITMAP
0400
7400
7400
7400
7400
7400
7400
7400
7400
7FFE
1554
ENDCHAR
STARTCHAR Lacute.salt
ENCODING 57631
SWIDTH 715 0
DWIDTH 9 0
BBX 8 13 0 -2
BITMAP
1400
7454
7960
7400
7400
7400
7400
7400
7400
7400
7400
7FFE
1554
ENDCHAR
STARTCHAR Lcommaaccent.salt
ENCODING 57632
SWIDTH 715 0
DWIDTH 9 0
BBX 8 15 0 -6
BITMAP
0400
7400
7400
7400
7400
7400
7400
7400
7400
7FAA
1B04
0B44
0B50
07A0
0680
ENDCHAR
STARTCHAR Lcaron.salt
ENCODING 57633
SWIDTH 715 0
DWIDTH 9 0
BBX 8 11 0 -2
BITMAP
0404
7430
7430
7435
743C
7400
7400
7400
7400
7FFE
1554
ENDCHAR
STARTCHAR Ldot.salt
ENCODING 57634
SWIDTH 715 0
DWIDTH 9 0
BBX 9 11 0 -2
BITMAP
040000
740000
740000
742000
743000
743F40
742900
740000
740000
7FFE00
155400
ENDCHAR
STARTCHAR Lslash.salt
ENCODING 57635
SWIDTH 725 0
DWIDTH 9 0
BBX 8 11 0 -2
BITMAP
0400
3400
7410
6000
A100
E010
F410
7400
7400
7FFE
1554
ENDCHAR
STARTCHAR M.salt
ENCODING 57636
SWIDTH 1170 0
DWIDTH 14 0
BBX 13 10 0 -2
BITMAP
14000000
30111400
70343800
B0343800
B0343800
B0343800
B0343800
B4743800
BF7FBF80
14151500
ENDCHAR
STARTCHAR N.salt
ENCODING 57637
SWIDTH 846 0
DWIDTH 10 0
BBX 9 10 0 -2
BITMAP
140000
341400
703800
B03800
B03800
B03800
B03800
B43C00
BF7F80
141500
ENDCHAR
STARTCHAR Ntilde.salt
ENCODING 57638
SWIDTH 846 0
DWIDTH 10 0
BBX 9 13 0 -2
BITMAP
050000
1D5000
1E5500
140000
341400
703800
B03800
B03800
B03800
B03800
B43C00
BF7F80
141500
ENDCHAR
STARTCHAR Nacute.salt
ENCODING 57639
SWIDTH 846 0
DWIDTH 10 0
BBX 9 13 0 -2
BITMAP
050000
0E1500
1E5500
140000
341400
703800
B03800
B03800
B03800
B03800
B43C00
BF7F80
141500
ENDCHAR
STARTCHAR Ncommaaccent.salt
ENCODING 57640
SWIDTH 846 0
DWIDTH 10 0
BBX 9 14 0 -6
BITMAP
140000
341400
703800
B03800
B03800
B03800
B03800
B43C00
BF5B80
164100
079000
079000
03E400
029000
ENDCHAR
STARTCHAR Ncaron.salt
ENCODING 57641
SWIDTH 846 0
DWIDTH 10 0
BBX 9 14 0 -2
BITMAP
010000
0D0000
1F4500
0A5400
140000
341400
703800
B03800
B03800
B03800
B03800
B43C00
BF7F80
141500
ENDCHAR
STARTCHAR W.salt
ENCODING 57642
SWIDTH 1170 0
DWIDTH 14 0
BBX 13 11 0 -2
BITMAP
04040400
70242800
B0343800
B0343800
B0343800
B0343800
B0252800
B4000000
78010040
3FEFFA00
0691A400
ENDCHAR
STARTCHAR Wcircumflex.salt
ENCODING 57643
SWIDTH 1170 0
DWIDTH 14 0
BBX 13 13 0 -2
BITMAP
00500000
01D65000
05B96400
70242800
B0343800
B0343800
B0343800
B0343800
B0252800
B4000000
78010040
3FEFFA00
0691A400
ENDCHAR
STARTCHAR Wgrave.salt
ENCODING 57644
SWIDTH 1170 0
DWIDTH 14 0
BBX 13 14 0 -2
BITMAP
00100000
00C00000
02E54000
05B96400
70242800
B0343800
B0343800
B0343800
B0343800
B0252800
B4000000
78010040
3FEFFA00
0691A400
ENDCHAR
STARTCHAR Wacute.salt
ENCODING 57645
SWIDTH 1170 0
DWIDTH 14 0
BBX 13 13 0 -2
BITMAP
00500000
01D15000
05B95400
70342800
B0343800
B0343800
B0343800
B0343800
B0252800
B4000000
78010040
3FEFFA00
0691A400
ENDCHAR
STARTCHAR Wdieresis.salt
ENCODING 57646
SWIDTH 1170 0
DWIDTH 14 0
BBX 13 13 0 -2
BITMAP
00C20000
02C24400
05B96400
70342800
B0343800
B0343800
B0343800
B0343800
B0252800
B4000000
78010040
3FEFFA00
0691A400
ENDCHAR
STARTCHAR X.salt
ENCODING 57647
SWIDTH 837 0
DWIDTH 10 0
BBX 9 11 0 -2
BITMAP
040400
382400
7C2400
3C1000
244400
701000
B03800
B03800
B03800
BF7F80
541500
ENDCHAR
STARTCHAR Y.salt
ENCODING 57648
SWIDTH 806 0
DWIDTH 10 0
BBX 8 11 0 -2
BITMAP
1004
7028
B078
B078
B010
B410
7E01
2F41
0740
07F4
0150
ENDCHAR
STARTCHAR Yacute.salt
ENCODING 57649
SWIDTH 806 0
DWIDTH 10 0
BBX 8 13 0 -2
BITMAP
0500
1D15
15B9
7028
B078
B078
B010
B410
7E01
2F41
0740
07F4
0150
ENDCHAR
STARTCHAR Ycircumflex.salt
ENCODING 57650
SWIDTH 806 0
DWIDTH 10 0
BBX 8 13 0 -2
BITMAP
0400
1D64
25B9
7028
B078
B078
B010
B410
7E01
2F41
0740
07F4
0150
ENDCHAR
STARTCHAR Ydieresis.salt
ENCODING 57651
SWIDTH 806 0
DWIDTH 10 0
BBX 8 13 0 -2
BITMAP
1820
3C20
35B9
7078
B078
B078
B010
B410
7E01
2F41
0740
07F4
0150
ENDCHAR
STARTCHAR Ygrave.salt
ENCODING 57652
SWIDTH 806 0
DWIDTH 10 0
BBX 8 13 0 -2
BITMAP
1C00
2E50
25B9
7078
B078
B078
B010
B410
7E01
2F41
0740
07F4
0150
ENDCHAR
STARTCHAR AE.salt
ENCODING 57653
SWIDTH 1113 0
DWIDTH 13 0
BBX 13 10 0 -2
BITMAP
04004000
34141540
70781A00
B0244000
B1000500
B0101900
B0784000
B4380000
BF7FFF40
14155500
ENDCHAR
STARTCHAR IJ.salt
ENCODING 57654
SWIDTH 1133 0
DWIDTH 14 0
BBX 12 11 0 -2
BITMAP
040004
340034
740074
740074
741074
743074
743060
743000
743800
7FBFED
150690
ENDCHAR
STARTCHAR IJ.stack
ENCODING 57655
SWIDTH 1363 0
DWIDTH 16 0
BBX 15 11 0 -2
BITMAP
10000040
700001C0
B50502C0
BE0402C0
0E0042C0
0E0282C0
09028180
2010C400
B000E000
BFFEFFA4
55546A40
ENDCHAR
STARTCHAR quoteleft.salt
ENCODING 57656
SWIDTH 407 0
DWIDTH 5 0
BBX 5 5 0 4
BITMAP
0500
2540
B400
B540
BD00
ENDCHAR
STARTCHAR quoteright.salt
ENCODING 57657
SWIDTH 407 0
DWIDTH 5 0
BBX 4 5 0 4
BITMAP
10
71
B5
79
78
ENDCHAR
STARTCHAR ampersand.salt
ENCODING 57658
SWIDTH 732 0
DWIDTH 9 0
BBX 8 13 0 -3
BITMAP
0040
0240
0810
2815
3819
3440
2014
A068
F000
B800
7F42
1BF4
0290
ENDCHAR
STARTCHAR caron.2
ENCODING 57659
SWIDTH 600 0
DWIDTH 7 0
BBX 4 5 1 4
BITMAP
04
30
70
B5
BC
ENDCHAR
STARTCHAR indexup
ENCODING 57660
SWIDTH 1100 0
DWIDTH 13 0
BBX 8 11 2 -2
BITMAP
0400
1C00
2C40
2C04
2800
3C00
2C00
2901
3400
7FFE
1554
ENDCHAR
STARTCHAR indexdown
ENCODING 57661
SWIDTH 1100 0
DWIDTH 13 0
BBX 8 11 2 -2
BITMAP
0400
3400
7D01
2C00
2800
2800
3C69
2CA0
2C00
2E00
1400
ENDCHAR
STARTCHAR indexupleft
ENCODING 57662
SWIDTH 1100 0
DWIDTH 13 0
BBX 8 11 2 -2
BITMAP
1000
7800
7D00
1800
2401
B000
FC00
3E40
1F00
0780
0640
ENDCHAR
STARTCHAR indexupright
ENCODING 57663
SWIDTH 1100 0
DWIDTH 13 0
BBX 9 9 2 -2
BITMAP
004100
014100
050040
600000
F80000
7E0400
1F8000
07E000
018000
ENDCHAR
STARTCHAR indexdownleft
ENCODING 57664
SWIDTH 1100 0
DWIDTH 13 0
BBX 10 8 1 -1
BITMAP
007400
005100
010040
040010
150070
67D040
E6F400
40A000
ENDCHAR
STARTCHAR indexdownright
ENCODING 57665
SWIDTH 1100 0
DWIDTH 13 0
BBX 11 9 1 -1
BITMAP
004000
010400
040000
100000
610000
FF0040
5FC5E0
07F5F4
009050
ENDCHAR
STARTCHAR indexdownleft.outline
ENCODING 57666
SWIDTH 1100 0
DWIDTH 13 0
BBX 10 8 2 0
BITMAP
001800
001600
004580
050160
040050
154100
515400
001000
ENDCHAR
STARTCHAR indexdownright.outline
ENCODING 57667
SWIDTH 1100 0
DWIDTH 13 0
BBX 11 8 2 0
BITMAP
019000
061000
194400
650100
540040
040510
015454
005000
ENDCHAR
STARTCHAR indexupleft.outline
ENCODING 57668
SWIDTH 1100 0
DWIDTH 13 0
BBX 8 10 3 -1
BITMAP
1400
1100
0440
1410
5005
1016
1059
0564
0190
0140
ENDCHAR
STARTCHAR indexupright.outline
ENCODING 57669
SWIDTH 1100 0
DWIDTH 13 0
BBX 8 10 3 -1
BITMAP
0005
0054
0154
0105
1401
6401
2904
0A50
0290
0050
ENDCHAR
STARTCHAR uni261A.salt
ENCODING 57670
SWIDTH 1100 0
DWIDTH 13 0
BBX 11 7 1 0
BITMAP
100040
794000
BFC400
02D040
02F5C4
00B6E0
00B540
ENDCHAR
STARTCHAR uni261B.salt
ENCODING 57671
SWIDTH 1100 0
DWIDTH 13 0
BBX 11 7 1 0
BITMAP
240004
740164
7405E0
750100
75C400
7EE400
10E000
ENDCHAR
STARTCHAR indexdown.salt
ENCODING 57672
SWIDTH 1100 0
DWIDTH 13 0
BBX 8 11 2 -2
BITMAP
0100
0D00
1F41
0500
1550
7F84
17F8
0178
0038
003D
0010
ENDCHAR
STARTCHAR indexdownleft.salt
ENCODING 57673
SWIDTH 1100 0
DWIDTH 13 0
BBX 10 9 1 -1
BITMAP
000400
002800
005100
010040
050060
189050
22FA00
B4AF40
500500
ENDCHAR
STARTCHAR indexdownright.salt
ENCODING 57674
SWIDTH 1100 0
DWIDTH 13 0
BBX 10 9 1 -1
BITMAP
004000
010000
040000
200000
BA0000
7B0140
0B2BD0
0BA2F0
090040
ENDCHAR
STARTCHAR indexup.salt
ENCODING 57675
SWIDTH 1100 0
DWIDTH 13 0
BBX 7 11 2 -2
BITMAP
0400
1800
2800
3840
3404
7800
7C04
2904
3400
7FF8
1550
ENDCHAR
STARTCHAR indexupleft.salt
ENCODING 57676
SWIDTH 1100 0
DWIDTH 13 0
BBX 6 11 2 -2
BITMAP
1000
7400
BD00
2D00
0800
3C00
2000
BBC0
A680
03D0
0140
ENDCHAR
STARTCHAR indexupright.salt
ENCODING 57677
SWIDTH 1100 0
DWIDTH 13 0
BBX 9 11 2 -2
BITMAP
000040
000000
000000
014000
070400
100100
B40000
BD1F40
2F4900
0BD000
014000
ENDCHAR
STARTCHAR uni261C.salt
ENCODING 57678
SWIDTH 1100 0
DWIDTH 13 0
BBX 9 7 3 1
BITMAP
014140
541580
550180
004180
014580
005580
004000
ENDCHAR
STARTCHAR uni261D.salt
ENCODING 57679
SWIDTH 1100 0
DWIDTH 13 0
BBX 7 9 4 0
BITMAP
1000
4000
4400
4500
4454
4014
4040
5550
AA90
ENDCHAR
STARTCHAR uni261E.salt
ENCODING 57680
SWIDTH 1100 0
DWIDTH 13 0
BBX 9 7 3 1
BITMAP
504000
940540
905540
905000
945000
904000
014000
ENDCHAR
STARTCHAR uni261F.salt
ENCODING 57681
SWIDTH 1100 0
DWIDTH 13 0
BBX 7 9 4 0
BITMAP
2AA4
1554
0410
1004
5544
0544
0044
0040
0050
ENDCHAR
STARTCHAR indexdownleft.salt_outline
ENCODING 57682
SWIDTH 1100 0
DWIDTH 13 0
BBX 9 8 3 0
BITMAP
006400
005900
011640
040480
114540
451400
505000
000400
ENDCHAR
STARTCHAR indexdownright.salt_outline
ENCODING 57683
SWIDTH 1100 0
DWIDTH 13 0
BBX 9 8 3 0
BITMAP
060000
194000
655000
940400
505100
111440
114140
040000
ENDCHAR
STARTCHAR indexupleft.salt_outline
ENCODING 57684
SWIDTH 1100 0
DWIDTH 13 0
BBX 8 10 3 -1
BITMAP
1400
1100
0440
0510
1104
1406
5019
1564
0190
0040
ENDCHAR
STARTCHAR indexupright.salt_outline
ENCODING 57685
SWIDTH 1100 0
DWIDTH 13 0
BBX 7 9 4 0
BITMAP
0014
0044
0510
0450
5044
5010
9404
2554
0900
ENDCHAR
STARTCHAR block.v
ENCODING 57687
SWIDTH 1000 0
DWIDTH 12 0
BBX 14 13 -1 -2
BITMAP
6AAAAA90
7FFFFFD0
7FFFFFD0
7FFFFFD0
7FFFFFD0
7FFFFFD0
7FFFFFD0
7FFFFFD0
7FFFFFD0
7FFFFFD0
7FFFFFD0
7FFFFFD0
7FFFFFD0
ENDCHAR
STARTCHAR uni25D6.v
ENCODING 57688
SWIDTH 1335 0
DWIDTH 16 0
BBX 14 8 1 0
BITMAP
006A9000
02FFF800
0BFFFE00
2FFFFF80
3FFFFFC0
7FFFFFD0
7FFFFFD0
15555540
ENDCHAR
STARTCHAR uni25D7.v
ENCODING 57689
SWIDTH 1335 0
DWIDTH 16 0
BBX 14 7 1 1
BITMAP
7FFFFFD0
7FFFFFD0
7FFFFFD0
2FFFFF80
1FFFFF40
07FFFD00
01BFE400
ENDCHAR
STARTCHAR uni27A1.w
ENCODING 57690
SWIDTH 650 0
DWIDTH 8 0
BBX 9 18 0 -5
BITMAP
001A00
002E00
00BE40
01FF40
07FF40
0BFF40
2FFF40
7FFF40
BFFF40
BFFF40
2FFF40
1FFF40
07FF40
02FF40
00BF40
007E00
001E00
000500
ENDCHAR
STARTCHAR uni27A1.n
ENCODING 57691
SWIDTH 1000 0
DWIDTH 12 0
BBX 18 9 -3 0
BITMAP
0155555400
ABFFFFFEA0
BFFFFFFFE0
2FFFFFFF80
07FFFFFD00
00BFFFE000
002FFF8000
0007FD0000
0000A00000
ENDCHAR
STARTCHAR uni27A1.s
ENCODING 57692
SWIDTH 1000 0
DWIDTH 12 0
BBX 18 9 -3 0
BITMAP
0000500000
0002F80000
001BFE4000
007FFFD000
02FFFFF800
1BFFFFFE40
7FFFFFFFD0
BFFFFFFFE0
16AAAAA940
ENDCHAR
STARTCHAR uni2B24.salt
ENCODING 57693
SWIDTH 1280 0
DWIDTH 15 0
BBX 13 14 1 -3
BITMAP
01BFA400
1FFFFE00
7FFFFF80
BFFFFFC0
BFFFFFC0
BFFFFFC0
BFFFFFC0
BFFFFFC0
BFFFFFC0
BFFFFFC0
BFFFFFC0
2FFFFF40
06FFF800
00554000
ENDCHAR
STARTCHAR uni25DD.curve
ENCODING 57694
SWIDTH 1280 0
DWIDTH 15 0
BBX 13 13 1 -2
BITMAP
6AAA9000
BFFFF900
BFFFFF40
BFFFFF80
BFFFFFC0
BFFFFFC0
BFFFFFC0
BFFFFFC0
BFFFFFC0
BFFFFFC0
BFFFFFC0
BFFFFFC0
BFFFFF80
ENDCHAR
STARTCHAR uni2B1B.trapezoid_e
ENCODING 57695
SWIDTH 1280 0
DWIDTH 15 0
BBX 15 13 1 -2
BITMAP
6AAAAAA4
BFFFFFF4
BFFFFFF0
BFFFFFE0
BFFFFFD0
BFFFFFD0
BFFFFFD0
BFFFFFC0
BFFFFF80
BFFFFF40
BFFFFF40
BFFFFF40
BFFFFE00
ENDCHAR
STARTCHAR uni2B1B.trapezoid_w
ENCODING 57696
SWIDTH 1280 0
DWIDTH 15 0
BBX 15 13 0 -2
BITMAP
AAAAAAA0
BFFFFFF4
7FFFFFF4
7FFFFFF4
7FFFFFF4
3FFFFFF4
2FFFFFF4
1FFFFFF4
1FFFFFF4
1FFFFFF4
0FFFFFF4
0BFFFFF4
07FFFFE4
ENDCHAR
STARTCHAR arrowleft.chevron
ENCODING 57697
SWIDTH 1330 0
DWIDTH 16 0
BBX 16 17 0 -4
BITMAP
00050000
001D0000
002EAAAA
00BFFFFD
02FFFFFC
07FFFFF8
1FFFFFF4
7FFFFFE0
BFFFFFE0
7FFFFFE0
2FFFFFF4
0BFFFFF8
02FFFFFC
01FFFFFD
007FFFFE
001E0000
00090000
ENDCHAR
STARTCHAR arrowup.chevron
ENCODING 57698
SWIDTH 1280 0
DWIDTH 15 0
BBX 17 17 -1 -4
BITMAP
0000500000
0002F40000
001BFE0000
007FFF8000
02FFFFE400
0BFFFFFD00
2FFFFFFF80
6BFFFFFE80
0BFFFFFD00
0BFFFFFD00
0BFFFFFD00
0BFFFFFD00
0BFFFFFD00
0BFFFFFD00
0BFFBFFD00
0BF906FD00
0A40006900
ENDCHAR
STARTCHAR arrowright.chevron
ENCODING 57699
SWIDTH 1330 0
DWIDTH 16 0
BBX 16 17 0 -4
BITMAP
00005000
00007400
AAAAB800
7FFFFE00
3FFFFF80
2FFFFFD0
1FFFFFF4
0BFFFFFD
0BFFFFFE
0BFFFFFD
1FFFFFF8
2FFFFFE0
2FFFFF80
7FFFFF40
BFFFFD00
0000B400
00006000
ENDCHAR
STARTCHAR arrowdown.chevron
ENCODING 57700
SWIDTH 1280 0
DWIDTH 15 0
BBX 17 17 -1 -4
BITMAP
0500001400
0BE401BD00
0BFE5BFD00
0BFFFFFD00
0BFFFFFD00
0BFFFFFD00
0BFFFFFD00
0BFFFFFD00
0BFFFFFD00
5BFFFFFD40
7FFFFFFF80
1FFFFFFE00
07FFFFF800
00BFFFD000
002FFF4000
000BF90000
0001E00000
ENDCHAR
STARTCHAR uni25D6.deco
ENCODING 57701
SWIDTH 560 0
DWIDTH 7 0
BBX 8 16 0 -4
BITMAP
0064
02F8
07FD
1FFD
3FFD
7FFD
7FFD
7FFD
7FFD
7FFD
3FFD
2FFD
0BFD
02FD
0074
0010
ENDCHAR
STARTCHAR uni25D7.deco
ENCODING 57702
SWIDTH 560 0
DWIDTH 7 0
BBX 7 16 -1 -4
BITMAP
1800
6F40
7F90
7FF4
7FF8
7FFC
7FFC
7FFC
7FFC
7FFC
7FF8
7FF4
7FD0
7F80
2900
0400
ENDCHAR
STARTCHAR uni25D6.v_deco
ENCODING 57703
SWIDTH 1280 0
DWIDTH 15 0
BBX 16 8 0 0
BITMAP
00014000
01BFF900
07FFFF40
1BFFFFE0
7FFFFFF4
BFFFFFF9
6FFFFFF4
15555550
ENDCHAR
STARTCHAR uni25D7.v_deco
ENCODING 57704
SWIDTH 1280 0
DWIDTH 15 0
BBX 16 7 0 1
BITMAP
2FFFFFF4
BFFFFFF9
7FFFFFF8
2FFFFFE4
07FFFF80
02FFFE40
00155400
ENDCHAR
STARTCHAR uni25D6.bevel
ENCODING 57705
SWIDTH 350 0
DWIDTH 4 0
BBX 4 13 1 -2
BITMAP
05
2E
7E
FE
FE
FE
FE
FE
FE
FE
BE
3E
0A
ENDCHAR
STARTCHAR uni25D7.bevel
ENCODING 57706
SWIDTH 350 0
DWIDTH 4 0
BBX 5 13 -1 -2
BITMAP
6000
7800
7E00
7F40
7F40
7F40
7F40
7F40
7F40
7F40
7E40
7D00
6400
ENDCHAR
STARTCHAR uni25D6.v_bevel
ENCODING 57707
SWIDTH 1280 0
DWIDTH 15 0
BBX 13 5 1 2
BITMAP
01555000
07FFF900
2FFFFF40
BFFFFF80
6AAAAA80
ENDCHAR
STARTCHAR uni25D7.v_bevel
ENCODING 57708
SWIDTH 1280 0
DWIDTH 15 0
BBX 13 5 1 2
BITMAP
15555540
BFFFFF80
3FFFFF40
1BFFFE00
01555400
ENDCHAR
STARTCHAR uni25D6.spike
ENCODING 57709
SWIDTH 350 0
DWIDTH 4 0
BBX 5 14 0 -3
BITMAP
2A40
1F80
0B80
0B80
0B80
2F80
7F80
2F80
1F80
0780
0B80
1F80
2F80
1500
ENDCHAR
STARTCHAR uni25D7.spike
ENCODING 57710
SWIDTH 350 0
DWIDTH 4 0
BBX 5 14 -1 -3
BITMAP
6A00
7D00
7D00
7800
7C00
7E00
7F80
7F40
7D00
7800
7C00
7D00
7E00
1500
ENDCHAR
STARTCHAR uni25D6.v_spike
ENCODING 57711
SWIDTH 1280 0
DWIDTH 15 0
BBX 14 5 1 2
BITMAP
00040000
902E0050
F9BF9BD0
BFFFFFD0
AAAAAA80
ENDCHAR
STARTCHAR uni25D7.v_spike
ENCODING 57712
SWIDTH 1280 0
DWIDTH 15 0
BBX 14 5 1 2
BITMAP
55555540
BFFFFFD0
BEFFEFD0
A42F4190
00090000
ENDCHAR
STARTCHAR uni25D6.square
ENCODING 57713
SWIDTH 350 0
DWIDTH 4 0
BBX 4 13 1 -2
BITMAP
69
BE
BE
BE
BE
BE
BE
BE
BE
BE
BE
BE
BE
ENDCHAR
STARTCHAR uni25D7.square
ENCODING 57714
SWIDTH 350 0
DWIDTH 4 0
BBX 4 13 -1 -2
BITMAP
6A
7F
7F
7F
7F
7F
7F
7F
7F
7F
7F
7F
7E
ENDCHAR
STARTCHAR uni25D6.v_square
ENCODING 57715
SWIDTH 1280 0
DWIDTH 15 0
BBX 13 4 1 2
BITMAP
BFFFFF80
BFFFFFC0
BFFFFFC0
55555540
ENDCHAR
STARTCHAR uni25D7.v_square
ENCODING 57716
SWIDTH 1280 0
DWIDTH 15 0
BBX 13 4 1 2
BITMAP
BFFFFFC0
BFFFFFC0
BFFFFFC0
15555540
ENDCHAR
STARTCHAR uni25D6.rounded
ENCODING 57717
SWIDTH 350 0
DWIDTH 4 0
BBX 4 13 1 -2
BITMAP
19
7E
BE
BE
FE
FE
FE
FE
FE
FE
BE
7E
2E
ENDCHAR
STARTCHAR uni25D7.rounded
ENCODING 57718
SWIDTH 350 0
DWIDTH 4 0
BBX 5 13 -1 -2
BITMAP
6400
7D00
7E00
7F00
7F40
7F40
7F40
7F40
7F40
7F40
7F00
7E00
7800
ENDCHAR
STARTCHAR uni25D6.v_rounded
ENCODING 57719
SWIDTH 1280 0
DWIDTH 15 0
BBX 13 5 1 2
BITMAP
00150000
1BFFF900
7FFFFF80
BFFFFFC0
6AAAAA80
ENDCHAR
STARTCHAR uni25D7.v_rounded
ENCODING 57720
SWIDTH 1280 0
DWIDTH 15 0
BBX 13 5 1 2
BITMAP
15555540
BFFFFFC0
7FFFFF80
2FFFFE40
01555400
ENDCHAR
STARTCHAR uni21AB.arrow
ENCODING 57721
SWIDTH 1000 0
DWIDTH 12 0
BBX 15 22 -1 -11
BITMAP
6AA50000
7FFF9000
7FFFF400
7FFFFD00
7FFFFE00
7FFFFF40
7FFFFF40
7FFFFF80
7FFFFF80
7FFFFF80
7FFFFFC0
7FFFFFC0
7FFFFFC0
1BFFFFC0
5BFFFFD4
7FFFFFF8
1FFFFFE0
07FFFF80
01FFFE00
007FF400
001FD000
00064000
ENDCHAR
STARTCHAR uni21AC.arrow
ENCODING 57722
SWIDTH 1000 0
DWIDTH 12 0
BBX 15 22 -1 -2
BITMAP
00010000
000B9000
002FE400
00BFFD00
02FFFF40
0BFFFFD0
2FFFFFF4
AFFFFFE8
0BFFFFC0
6FFFFFC0
7FFFFFC0
7FFFFFC0
7FFFFFC0
7FFFFF80
7FFFFF80
7FFFFF80
7FFFFF40
7FFFFE00
7FFFFD00
7FFFF800
7FFFE000
7FFA4000
ENDCHAR
STARTCHAR uni21AB.v_arrow
ENCODING 57723
SWIDTH 1335 0
DWIDTH 16 0
BBX 22 15 -7 -4
BITMAP
00096AAAAA90
002DBFFFFFD0
00BFFFFFFFD0
02FFFFFFFFD0
0BFFFFFFFFD0
2FFFFFFFFFD0
BFFFFFFFFFC0
FFFFFFFFFF80
7FFFFFFFFF40
1FFFFFFFFE00
07FFFFFFF800
01FFFFFF9000
00BE55540000
002D00000000
000500000000
ENDCHAR
STARTCHAR uni21AC.v_arrow
ENCODING 57724
SWIDTH 1335 0
DWIDTH 16 0
BBX 23 15 1 -4
BITMAP
6AAAAA964000
7FFFFFE78000
7FFFFFFFE000
7FFFFFFFF800
7FFFFFFFFE00
7FFFFFFFFF80
3FFFFFFFFFE0
2FFFFFFFFFF4
1FFFFFFFFFD0
0BFFFFFFFF40
02FFFFFFFD00
006FFFFFF400
0001555BE000
000000078000
000000010000
ENDCHAR
STARTCHAR uni25D6.wings
ENCODING 57725
SWIDTH 900 0
DWIDTH 11 0
BBX 12 18 0 -5
BITMAP
07FF80
0BFFD0
6BFFF9
BFFFFD
BFFFFD
BFFFFD
BFFFFD
BFFFFD
BFFFFD
BFFFFD
BFFFFD
BFFFFD
BFFFFD
BFFFFD
BFFFFD
0BFFD4
0BFFC0
055540
ENDCHAR
STARTCHAR uni25D7.wings
ENCODING 57726
SWIDTH 900 0
DWIDTH 11 0
BBX 12 18 -1 -5
BITMAP
02FFD0
07FFD0
6FFFE9
7FFFFD
7FFFFD
7FFFFD
7FFFFD
7FFFFD
7FFFFD
7FFFFD
7FFFFD
7FFFFD
7FFFFD
7FFFFD
7FFFFD
1BFFD0
07FFD0
015540
ENDCHAR
STARTCHAR uni25D6.v_wings
ENCODING 57727
SWIDTH 1280 0
DWIDTH 15 0
BBX 18 12 -1 -2
BITMAP
0AAAAAA800
0BFFFFFC00
ABFFFFFE90
FFFFFFFFD0
FFFFFFFFD0
FFFFFFFFD0
FFFFFFFFD0
FFFFFFFFD0
BFFFFFFF90
1FFFFFFD00
0BFFFFFD00
0155555400
ENDCHAR
STARTCHAR uni25D7.v_wings
ENCODING 57728
SWIDTH 1280 0
DWIDTH 15 0
BBX 18 12 -1 -2
BITMAP
0BFFFFF800
0BFFFFFD00
6FFFFFFE40
FFFFFFFFD0
FFFFFFFFD0
FFFFFFFFD0
FFFFFFFFD0
FFFFFFFFD0
BFFFFFFFD0
0BFFFFFD00
0BFFFFF800
0155555400
ENDCHAR
STARTCHAR uni2B1B.chevron_e
ENCODING 57729
SWIDTH 1280 0
DWIDTH 15 0
BBX 16 13 0 -2
BITMAP
AAAAAA80
7FFFFFD0
7FFFFFE0
2FFFFFF0
1FFFFFF4
0BFFFFF8
0BFFFFFD
0BFFFFFC
1FFFFFF8
2FFFFFF4
3FFFFFE0
7FFFFFD0
BFFFFF80
ENDCHAR
STARTCHAR uni2B1B.chevron_n
ENCODING 57730
SWIDTH 1280 0
DWIDTH 15 0
BBX 13 16 1 -4
BITMAP
001A4000
06FFE400
6FFFFF80
BFFFFFC0
BFFFFFC0
BFFFFFC0
BFFFFFC0
BFFFFFC0
BFFFFFC0
BFFFFFC0
BFFFFFC0
BFFFFFC0
BFFFFFC0
BF91AFC0
A5000680
40000040
ENDCHAR
STARTCHAR uni2B1B.chevron_s
ENCODING 57731
SWIDTH 1280 0
DWIDTH 15 0
BBX 13 16 1 -4
BITMAP
A4000180
BE406FC0
BFFAFFC0
BFFFFFC0
BFFFFFC0
BFFFFFC0
BFFFFFC0
BFFFFFC0
BFFFFFC0
BFFFFFC0
BFFFFFC0
BFFFFFC0
BFFFFF80
1AFFF900
006E5000
00040000
ENDCHAR
STARTCHAR uni2B1B.chevron_w
ENCODING 57732
SWIDTH 1280 0
DWIDTH 15 0
BBX 16 13 0 -2
BITMAP
06AAAAA8
0BFFFFF8
1FFFFFF4
2FFFFFF0
3FFFFFE0
7FFFFFD0
BFFFFFC0
BFFFFFD0
7FFFFFE0
2FFFFFF0
1FFFFFF4
0FFFFFF8
0BFFFFF9
ENDCHAR
STARTCHAR uni2B1B.semichevron_e
ENCODING 57733
SWIDTH 650 0
DWIDTH 8 0
BBX 9 13 0 -2
BITMAP
AAAA40
7FFF40
7FFF40
2FFF40
1FFF40
0BFF40
0BFF40
0BFF40
1FFF40
2FFF40
3FFF40
7FFF40
BFFF40
ENDCHAR
STARTCHAR uni2B1B.semichevron_w
ENCODING 57734
SWIDTH 650 0
DWIDTH 8 0
BBX 9 13 -1 -2
BITMAP
6AAA40
7FFF40
7FFF00
7FFE00
7FFD00
7FF800
7FF400
7FF800
7FFC00
7FFD00
7FFE00
7FFF40
7FFF80
ENDCHAR
STARTCHAR uni2B1B.semichevron_n
ENCODING 57735
SWIDTH 1000 0
DWIDTH 12 0
BBX 14 9 -1 0
BITMAP
10000040
790006D0
7FE5BFD0
7FFFFFD0
7FFFFFD0
7FFFFFD0
7FFFFFD0
7FFFFFD0
6AAAAA90
ENDCHAR
STARTCHAR uni2B1B.semichevron_s
ENCODING 57736
SWIDTH 1000 0
DWIDTH 12 0
BBX 14 9 -1 0
BITMAP
55555550
7FFFFFD0
7FFFFFD0
7FFFFFD0
7FFFFFD0
7FFFFFD0
7FE5BFD0
7E401BD0
54000150
ENDCHAR
STARTCHAR space.v
ENCODING 57737
SWIDTH 1000 0
DWIDTH 12 0
BBX 1 1 0 0
BITMAP
00
ENDCHAR
STARTCHAR Agrave.v
ENCODING 57738
SWIDTH 1000 0
DWIDTH 12 0
BBX 9 13 1 -2
BITMAP
050000
1D0000
1FA900
090000
0C0000
181000
243400
740000
740000
743800
747800
7F7F80
141500
ENDCHAR
STARTCHAR Aacute.v
ENCODING 57739
SWIDTH 1000 0
DWIDTH 12 0
BBX 9 13 1 -2
BITMAP
010000
090000
1EAA00
1D0000
0C0000
181000
243400
740000
740000
743800
747800
7F7F80
141500
ENDCHAR
STARTCHAR Acircumflex.v
ENCODING 57740
SWIDTH 1000 0
DWIDTH 12 0
BBX 9 13 1 -2
BITMAP
010000
090000
1EBA00
1D0000
0C0000
181000
243400
740000
740000
743800
747800
7F7F80
141500
ENDCHAR
STARTCHAR Atilde.v
ENCODING 57741
SWIDTH 1000 0
DWIDTH 12 0
BBX 9 13 1 -2
BITMAP
010000
090000
1EA500
1D0000
0C0000
181000
243400
740000
740000
743800
747800
7F7F80
141500
ENDCHAR
STARTCHAR Adieresis.v
ENCODING 57742
SWIDTH 1000 0
DWIDTH 12 0
BBX 9 13 1 -2
BITMAP
041400
2C2000
2E6A40
1D0000
0C0000
181000
243400
740000
740000
743800
747800
7F7F80
141500
ENDCHAR
STARTCHAR Aring.v
ENCODING 57743
SWIDTH 1000 0
DWIDTH 12 0
BBX 9 13 1 -2
BITMAP
010000
091400
1D2400
1D1400
1C0000
282000
343400
750000
740000
747800
B47800
7F7F80
141500
ENDCHAR
STARTCHAR Amacron.v
ENCODING 57744
SWIDTH 1000 0
DWIDTH 12 0
BBX 9 13 1 -2
BITMAP
010000
0D0000
1E5500
1D0000
0C0000
181000
243400
740000
740000
743800
747800
7F7F80
141500
ENDCHAR
STARTCHAR Abreve.v
ENCODING 57745
SWIDTH 1000 0
DWIDTH 12 0
BBX 9 13 1 -2
BITMAP
091400
1D0000
1F9500
090000
0C0000
181000
243400
740000
740000
743800
747800
7F7F80
141500
ENDCHAR
STARTCHAR Aogonek.v
ENCODING 57746
SWIDTH 1000 0
DWIDTH 12 0
BBX 9 13 1 -4
BITMAP
010000
090000
1C0000
282400
341400
750000
741400
747800
797840
7E3400
007940
003F80
000400
ENDCHAR
STARTCHAR Ccedilla.v
ENCODING 57747
SWIDTH 1000 0
DWIDTH 12 0
BBX 9 11 1 -3
BITMAP
040000
341540
703F40
B00000
B00000
B40000
780400
7E4140
1B4740
07F400
014000
ENDCHAR
STARTCHAR Cacute.v
ENCODING 57748
SWIDTH 1000 0
DWIDTH 12 0
BBX 9 13 1 -2
BITMAP
010000
090000
1EAA00
180000
240000
702F80
B02900
B00000
B00000
B40000
7D0000
2FFF80
055500
ENDCHAR
STARTCHAR Ccircumflex.v
ENCODING 57749
SWIDTH 1000 0
DWIDTH 12 0
BBX 9 13 1 -2
BITMAP
010000
090000
1EBA40
180000
240000
702F80
B02900
B00000
B00000
B40000
7D0000
2FFF80
055500
ENDCHAR
STARTCHAR Cdotaccent.v
ENCODING 57750
SWIDTH 1000 0
DWIDTH 12 0
BBX 9 13 1 -2
BITMAP
014000
038000
039500
040000
240000
702F80
B02900
B00000
B00000
B40000
7D0000
2FFF80
055500
ENDCHAR
STARTCHAR Ccaron.v
ENCODING 57751
SWIDTH 1000 0
DWIDTH 12 0
BBX 9 13 1 -2
BITMAP
090000
1E0000
1F9A00
040000
240000
702F80
B02900
B00000
B00000
B40000
7D0000
2FFF80
055500
ENDCHAR
STARTCHAR Dcaron.v
ENCODING 57752
SWIDTH 1000 0
DWIDTH 12 0
BBX 9 13 1 -2
BITMAP
090000
1D0000
1F9900
240000
740100
743800
743800
742800
742400
740000
740040
7FFE00
155000
ENDCHAR
STARTCHAR Egrave.v
ENCODING 57753
SWIDTH 1000 0
DWIDTH 12 0
BBX 9 13 1 -2
BITMAP
050000
1D0000
1FA940
240000
740000
742A80
750000
740000
742A00
740000
740000
7FFF80
155500
ENDCHAR
STARTCHAR Eacute.v
ENCODING 57754
SWIDTH 1000 0
DWIDTH 12 0
BBX 9 13 1 -2
BITMAP
010000
090000
1EAA00
240000
740000
742A80
750000
740000
742A00
740000
740000
7FFF80
155500
ENDCHAR
STARTCHAR Ecircumflex.v
ENCODING 57755
SWIDTH 1000 0
DWIDTH 12 0
BBX 9 13 1 -2
BITMAP
010000
090000
1EBA40
240000
740000
742A80
750000
740000
742A00
740000
740000
7FFF80
155500
ENDCHAR
STARTCHAR Edieresis.v
ENCODING 57756
SWIDTH 1000 0
DWIDTH 12 0
BBX 9 13 1 -2
BITMAP
041400
2C2000
2E6940
240000
740000
742A80
750000
740000
742A00
740000
740000
7FFF80
155500
ENDCHAR
STARTCHAR Emacron.v
ENCODING 57757
SWIDTH 1000 0
DWIDTH 12 0
BBX 9 13 1 -2
BITMAP
010000
0D0000
1E5540
240000
740000
742A80
750000
740000
742A00
740000
740000
7FFF80
155500
ENDCHAR
STARTCHAR Ebreve.v
ENCODING 57758
SWIDTH 1000 0
DWIDTH 12 0
BBX 9 13 1 -2
BITMAP
091400
1D0000
1E9500
240000
740000
742A80
750000
740000
742A00
740000
740000
7FFF80
155500
ENDCHAR
STARTCHAR Edotaccent.v
ENCODING 57759
SWIDTH 1000 0
DWIDTH 12 0
BBX 9 13 1 -2
BITMAP
014000
034000
079500
240000
740000
742A80
750000
740000
742A00
740000
740000
7FFF80
155500
ENDCHAR
STARTCHAR Eogonek.v
ENCODING 57760
SWIDTH 1000 0
DWIDTH 12 0
BBX 9 13 1 -4
BITMAP
040000
740000
741540
741540
750000
742A00
741500
740100
795440
7FF400
007940
007F40
000400
ENDCHAR
STARTCHAR Ecaron.v
ENCODING 57761
SWIDTH 1000 0
DWIDTH 12 0
BBX 9 13 1 -2
BITMAP
090000
1D0000
1F9900
240000
740000
742A80
750000
740000
742A00
740000
740000
7FFF80
155500
ENDCHAR
STARTCHAR Gcircumflex.v
ENCODING 57762
SWIDTH 1000 0
DWIDTH 12 0
BBX 9 13 1 -2
BITMAP
010000
090000
1EBA40
180000
240000
702E00
B02900
B01800
B02400
B40000
7D0000
2FFF80
055500
ENDCHAR
STARTCHAR Gbreve.v
ENCODING 57763
SWIDTH 1000 0
DWIDTH 12 0
BBX 9 13 1 -2
BITMAP
091400
1D0000
1F9500
080000
240000
702E00
B02900
B01800
B02400
B40000
7D0000
2FFF80
055500
ENDCHAR
STARTCHAR Gdotaccent.v
ENCODING 57764
SWIDTH 1000 0
DWIDTH 12 0
BBX 9 13 1 -2
BITMAP
014000
034000
079500
040000
240000
702E00
B02900
B01800
B02400
B40000
7D0000
2FFF80
055500
ENDCHAR
STARTCHAR Gcommaaccent.v
ENCODING 57765
SWIDTH 1000 0
DWIDTH 12 0
BBX 9 13 1 -5
BITMAP
040000
341540
703E00
B00400
B02800
B41000
780000
3E9540
1B8240
034000
079000
03A400
03D000
ENDCHAR
STARTCHAR Hcircumflex.v
ENCODING 57766
SWIDTH 1000 0
DWIDTH 12 0
BBX 9 13 1 -2
BITMAP
010000
090000
1EBE40
242800
743800
742400
750000
740000
743800
743800
743800
7F7F80
151500
ENDCHAR
STARTCHAR Igrave.v
ENCODING 57767
SWIDTH 1000 0
DWIDTH 12 0
BBX 9 13 1 -2
BITMAP
050000
1D0000
1FA940
240000
740000
7F4280
2B4100
074000
064000
241000
740000
7FFF80
155500
ENDCHAR
STARTCHAR Iacute.v
ENCODING 57768
SWIDTH 1000 0
DWIDTH 12 0
BBX 9 13 1 -2
BITMAP
010000
090000
1EAA00
240000
740000
7F4280
2B4100
074000
064000
241000
740000
7FFF80
155500
ENDCHAR
STARTCHAR Icircumflex.v
ENCODING 57769
SWIDTH 1000 0
DWIDTH 12 0
BBX 9 13 1 -2
BITMAP
010000
090000
1EBA40
240000
740000
7F4280
2B4100
074000
064000
241000
740000
7FFF80
155500
ENDCHAR
STARTCHAR Idieresis.v
ENCODING 57770
SWIDTH 1000 0
DWIDTH 12 0
BBX 9 13 1 -2
BITMAP
041400
2C2000
2E6940
240000
740000
7F4280
2B4100
074000
064000
241000
740000
7FFF80
155500
ENDCHAR
STARTCHAR Itilde.v
ENCODING 57771
SWIDTH 1000 0
DWIDTH 12 0
BBX 9 13 1 -2
BITMAP
010000
0D0000
1EA540
240000
740000
7F4280
2B4100
074000
064000
241000
740000
7FFF80
155500
ENDCHAR
STARTCHAR Imacron.v
ENCODING 57772
SWIDTH 1000 0
DWIDTH 12 0
BBX 9 13 1 -2
BITMAP
010000
0D0000
1E5540
240000
740000
7F4280
2B4100
074000
064000
241000
740000
7FFF80
155500
ENDCHAR
STARTCHAR Ibreve.v
ENCODING 57773
SWIDTH 1000 0
DWIDTH 12 0
BBX 9 13 1 -2
BITMAP
091400
1D0000
1E9500
140000
740000
7F4280
2B4100
074000
064000
241000
740000
7FFF80
155500
ENDCHAR
STARTCHAR Iogonek.v
ENCODING 57774
SWIDTH 1000 0
DWIDTH 12 0
BBX 9 13 1 -4
BITMAP
040000
341000
790140
7F4240
074000
074000
050000
740100
795440
7FF400
007940
007F40
000400
ENDCHAR
STARTCHAR Idotaccent.v
ENCODING 57775
SWIDTH 1000 0
DWIDTH 12 0
BBX 9 13 1 -2
BITMAP
014000
034000
079500
140000
740000
7F4280
2B4100
074000
064000
241000
740000
7FFF80
155500
ENDCHAR
STARTCHAR Jcircumflex.v
ENCODING 57776
SWIDTH 1000 0
DWIDTH 12 0
BBX 10 13 1 -2
BITMAP
004000
024000
07AE90
066800
003800
003800
047800
747800
742400
740000
7D0040
3FEE00
06A400
ENDCHAR
STARTCHAR Kcommaaccent.v
ENCODING 57777
SWIDTH 1000 0
DWIDTH 12 0
BBX 9 14 1 -5
BITMAP
044400
742000
742000
740000
750400
741400
743800
743800
797D40
7E4240
034000
079000
03A400
03D000
ENDCHAR
STARTCHAR Lacute.v
ENCODING 57778
SWIDTH 1000 0
DWIDTH 12 0
BBX 9 13 1 -2
BITMAP
040000
340000
7AB400
741000
740000
740000
740400
741800
742800
740000
740000
7FFF80
155500
ENDCHAR
STARTCHAR Lcommaaccent.v
ENCODING 57779
SWIDTH 1000 0
DWIDTH 12 0
BBX 9 14 1 -5
BITMAP
044000
740000
740000
740000
740800
742800
741400
740000
795540
7F8240
034000
079000
03A400
03D000
ENDCHAR
STARTCHAR Lcaron.v
ENCODING 57780
SWIDTH 1000 0
DWIDTH 12 0
BBX 9 11 1 -2
BITMAP
040500
741C00
742800
743D40
743D40
742800
742800
740000
740000
7FFF80
155500
ENDCHAR
STARTCHAR Ntilde.v
ENCODING 57781
SWIDTH 1000 0
DWIDTH 12 0
BBX 9 13 1 -2
BITMAP
010000
0D0000
1EA940
247800
751800
740000
740000
741000
743000
743800
743800
7F7F80
141500
ENDCHAR
STARTCHAR Nacute.v
ENCODING 57782
SWIDTH 1000 0
DWIDTH 12 0
BBX 9 13 1 -2
BITMAP
010000
090000
1EAE00
246800
751800
740000
740000
741000
743000
743800
743800
7F7F80
141500
ENDCHAR
STARTCHAR Ncommaaccent.v
ENCODING 57783
SWIDTH 1000 0
DWIDTH 12 0
BBX 9 14 1 -5
BITMAP
040400
741800
744800
741000
740000
742000
743400
743800
797D40
7E4240
034000
079000
03A400
03D000
ENDCHAR
STARTCHAR Ncaron.v
ENCODING 57784
SWIDTH 1000 0
DWIDTH 12 0
BBX 9 13 1 -2
BITMAP
090000
1D0000
1FE900
246800
751800
740000
740000
741000
743000
743800
743800
7F7F80
141500
ENDCHAR
STARTCHAR Ograve.v
ENCODING 57785
SWIDTH 1000 0
DWIDTH 12 0
BBX 9 13 1 -2
BITMAP
050000
1D0000
1FA500
080000
240000
703800
B03800
B02800
B02800
B40000
790040
3FEE00
06A400
ENDCHAR
STARTCHAR Oacute.v
ENCODING 57786
SWIDTH 1000 0
DWIDTH 12 0
BBX 9 13 1 -2
BITMAP
010000
090000
1E5A00
180000
240000
703800
B03800
B02800
B02800
B40000
790040
3FEE00
06A400
ENDCHAR
STARTCHAR Ocircumflex.v
ENCODING 57787
SWIDTH 1000 0
DWIDTH 12 0
BBX 9 13 1 -2
BITMAP
010000
090000
1EAA00
180000
240000
703800
B03800
B02800
B02800
B40000
790040
3FEE00
06A400
ENDCHAR
STARTCHAR Otilde.v
ENCODING 57788
SWIDTH 1000 0
DWIDTH 12 0
BBX 9 13 1 -2
BITMAP
010000
0D0000
1E9500
180000
240000
703800
B03800
B02800
B02800
B40000
790040
3FEE00
06A400
ENDCHAR
STARTCHAR Odieresis.v
ENCODING 57789
SWIDTH 1000 0
DWIDTH 12 0
BBX 9 13 1 -2
BITMAP
041400
2C2000
2E6540
180000
240000
703800
B03800
B02800
B02800
B40000
790040
3FEE00
06A400
ENDCHAR
STARTCHAR Omacron.v
ENCODING 57790
SWIDTH 1000 0
DWIDTH 12 0
BBX 9 13 1 -2
BITMAP
010000
0D0000
1E5500
180000
240000
703800
B03800
B02800
B02800
B40000
790040
3FEE00
06A400
ENDCHAR
STARTCHAR Obreve.v
ENCODING 57791
SWIDTH 1000 0
DWIDTH 12 0
BBX 9 13 1 -2
BITMAP
091400
1D0000
1F5500
080000
240000
703800
B03800
B02800
B02800
B40000
790040
3FEE00
06A400
ENDCHAR
STARTCHAR Ohungarumlaut.v
ENCODING 57792
SWIDTH 1000 0
DWIDTH 12 0
BBX 9 14 1 -2
BITMAP
011400
0A1800
0D2400
1E6500
180000
240000
703800
B03800
B02800
B02800
B40000
790040
3FEE00
06A400
ENDCHAR
STARTCHAR Racute.v
ENCODING 57793
SWIDTH 1000 0
DWIDTH 12 0
BBX 9 12 1 -2
BITMAP
1C0000
2DA900
240000
740000
743000
741040
750000
741400
743800
743800
7F7F80
141500
ENDCHAR
STARTCHAR Rcommaaccent.v
ENCODING 57794
SWIDTH 1000 0
DWIDTH 12 0
BBX 10 14 1 -5
BITMAP
040000
740000
741000
743000
750100
740000
743800
743800
797D50
7E4240
034000
079000
03A400
03D000
ENDCHAR
STARTCHAR Rcaron.v
ENCODING 57795
SWIDTH 1000 0
DWIDTH 12 0
BBX 9 13 1 -2
BITMAP
090000
1D0000
1F9900
240000
740000
743000
741040
750000
741400
743800
743800
7F7F80
141500
ENDCHAR
STARTCHAR Sacute.v
ENCODING 57796
SWIDTH 1000 0
DWIDTH 12 0
BBX 9 13 1 -2
BITMAP
010000
090000
1EAA00
180000
240000
742A80
740000
780100
7FA400
240100
740040
7FFE00
155400
ENDCHAR
STARTCHAR Scircumflex.v
ENCODING 57797
SWIDTH 1000 0
DWIDTH 12 0
BBX 9 13 1 -2
BITMAP
010000
090000
1EBA40
180000
240000
742A80
740000
780100
7FA400
240100
740040
7FFE00
155400
ENDCHAR
STARTCHAR Scedilla.v
ENCODING 57798
SWIDTH 1000 0
DWIDTH 12 0
BBX 9 11 1 -3
BITMAP
140000
341540
741540
740000
7E5400
295400
741000
790640
7F0500
0BE000
054000
ENDCHAR
STARTCHAR Scaron.v
ENCODING 57799
SWIDTH 1000 0
DWIDTH 12 0
BBX 9 13 1 -2
BITMAP
090000
1D0000
1F9900
080000
240000
742A80
740000
780100
7FA400
240100
740040
7FFE00
155400
ENDCHAR
STARTCHAR Scommaaccent.v
ENCODING 57800
SWIDTH 1000 0
DWIDTH 12 0
BBX 9 13 1 -5
BITMAP
140000
341540
741540
740000
7E5400
295400
740000
795640
7F8100
034000
079000
03A400
03D000
ENDCHAR
STARTCHAR Tcommaaccent.v
ENCODING 57801
SWIDTH 1000 0
DWIDTH 12 0
BBX 9 13 1 -4
BITMAP
040000
741000
750140
7F4240
074000
074000
074000
079400
074000
078000
079400
03E400
029000
ENDCHAR
STARTCHAR Tcaron.v
ENCODING 57802
SWIDTH 1000 0
DWIDTH 12 0
BBX 9 13 1 -2
BITMAP
090000
1D0000
1F9900
240000
740000
7F4280
6B4100
074000
074000
074000
074000
07F800
015000
ENDCHAR
STARTCHAR Ugrave.v
ENCODING 57803
SWIDTH 1000 0
DWIDTH 12 0
BBX 9 13 1 -2
BITMAP
050000
1D0000
1FF940
243800
743800
743800
743800
743800
742400
740000
7D0040
2FEE00
06A400
ENDCHAR
STARTCHAR Uacute.v
ENCODING 57804
SWIDTH 1000 0
DWIDTH 12 0
BBX 9 13 1 -2
BITMAP
010000
0A0000
1EAE40
242800
743800
743800
743800
743800
742400
740000
7D0040
2FEE00
06A400
ENDCHAR
STARTCHAR Ucircumflex.v
ENCODING 57805
SWIDTH 1000 0
DWIDTH 12 0
BBX 9 13 1 -2
BITMAP
010000
090000
1EBE40
242800
743800
743800
743800
743800
742400
740000
7D0040
2FEE00
06A400
ENDCHAR
STARTCHAR Udieresis.v
ENCODING 57806
SWIDTH 1000 0
DWIDTH 12 0
BBX 9 13 1 -2
BITMAP
041400
2C2000
2EB940
243800
743800
743800
743800
743800
742400
740000
7D0040
2FEE00
06A400
ENDCHAR
STARTCHAR Utilde.v
ENCODING 57807
SWIDTH 1000 0
DWIDTH 12 0
BBX 9 13 1 -2
BITMAP
010000
0D0000
1EA940
243800
743800
743800
743800
743800
742400
740000
7D0040
2FEE00
06A400
ENDCHAR
STARTCHAR Umacron.v
ENCODING 57808
SWIDTH 1000 0
DWIDTH 12 0
BBX 9 13 1 -2
BITMAP
010000
0D0000
1EA940
243800
743800
743800
743800
743800
742400
740000
7D0040
2FEE00
06A400
ENDCHAR
STARTCHAR Ubreve.v
ENCODING 57809
SWIDTH 1000 0
DWIDTH 12 0
BBX 9 13 1 -2
BITMAP
091400
1D0000
1EA900
243800
743800
743800
743800
743800
742400
740000
7D0040
2FEE00
06A400
ENDCHAR
STARTCHAR Uring.v
ENCODING 57810
SWIDTH 1000 0
DWIDTH 12 0
BBX 9 15 1 -2
BITMAP
010000
091400
1D2400
1D0000
1EA900
243800
743800
743800
743800
743800
742400
740000
7D0040
2FEE00
06A400
ENDCHAR
STARTCHAR Uhungarumlaut.v
ENCODING 57811
SWIDTH 1000 0
DWIDTH 12 0
BBX 9 14 1 -2
BITMAP
010400
0A1800
0D2400
1EB940
243800
743800
743800
743800
743800
742400
740000
7D0040
2FEE00
06A400
ENDCHAR
STARTCHAR Uogonek.v
ENCODING 57812
SWIDTH 1000 0
DWIDTH 12 0
BBX 9 13 1 -4
BITMAP
040400
742800
743800
743800
743800
743800
741000
780000
7E4140
1F8100
039500
03F800
005000
ENDCHAR
STARTCHAR Wcircumflex.v
ENCODING 57813
SWIDTH 1000 0
DWIDTH 12 0
BBX 9 13 1 -2
BITMAP
010000
090000
1EBE40
206D00
B01D00
B04500
B00000
B00000
B01000
B42500
783800
3FBF40
151400
ENDCHAR
STARTCHAR Wgrave.v
ENCODING 57814
SWIDTH 1000 0
DWIDTH 12 0
BBX 9 13 1 -2
BITMAP
050000
1D0000
1FFA40
206D00
B01D00
B04500
B00000
B00000
B01000
B42500
783800
3FBF40
151400
ENDCHAR
STARTCHAR Wacute.v
ENCODING 57815
SWIDTH 1000 0
DWIDTH 12 0
BBX 9 13 1 -2
BITMAP
010000
090000
1EAE00
205D00
B01D00
B04500
B00000
B00000
B01000
B42500
783800
3FBF40
151400
ENDCHAR
STARTCHAR Wdieresis.v
ENCODING 57816
SWIDTH 1000 0
DWIDTH 12 0
BBX 9 13 1 -2
BITMAP
051440
1C1400
2EBA40
206D00
B01D00
B04500
B00000
B00000
B01000
B42500
783800
3FBF40
151400
ENDCHAR
STARTCHAR Yacute.v
ENCODING 57817
SWIDTH 1000 0
DWIDTH 12 0
BBX 9 13 1 -2
BITMAP
010000
0A0000
1EAE40
242800
743800
B43800
781000
7D0000
2F0000
0F4000
074000
07F800
015000
ENDCHAR
STARTCHAR Ycircumflex.v
ENCODING 57818
SWIDTH 1000 0
DWIDTH 12 0
BBX 9 13 1 -2
BITMAP
010000
090000
1EBE40
242800
743800
B43800
781000
7D0000
2F0000
0F4000
074000
07F800
015000
ENDCHAR
STARTCHAR Ydieresis.v
ENCODING 57819
SWIDTH 1000 0
DWIDTH 12 0
BBX 9 13 1 -2
BITMAP
041400
1C2000
2EB940
243800
743800
B43800
781000
7D0000
2F0000
0F4000
074000
07F800
015000
ENDCHAR
STARTCHAR Ygrave.v
ENCODING 57820
SWIDTH 1000 0
DWIDTH 12 0
BBX 9 13 1 -2
BITMAP
050000
1D0000
1FF940
243800
743800
B43800
781000
7D0000
2F0000
0F4000
074000
07F800
015000
ENDCHAR
STARTCHAR Zacute.v
ENCODING 57821
SWIDTH 1000 0
DWIDTH 12 0
BBX 9 13 1 -2
BITMAP
010000
0A0000
1E6A40
240000
740000
7FD000
2A4000
010000
140400
750000
740000
7FFF80
155500
ENDCHAR
STARTCHAR Zdotaccent.v
ENCODING 57822
SWIDTH 1000 0
DWIDTH 12 0
BBX 9 13 1 -2
BITMAP
014000
034000
079500
140000
740000
7FD000
2A4000
010000
140400
750000
740000
7FFF80
155500
ENDCHAR
STARTCHAR Zcaron.v
ENCODING 57823
SWIDTH 1000 0
DWIDTH 12 0
BBX 9 13 1 -2
BITMAP
090000
1E0000
1F9900
140000
740000
7FD000
2A4000
010000
140400
750000
740000
7FFF80
155500
ENDCHAR
STARTCHAR AE.v
ENCODING 57824
SWIDTH 1000 0
DWIDTH 12 0
BBX 10 11 1 -2
BITMAP
010000
080400
280050
345040
705000
A10450
A00080
E09000
F09000
FEFF80
545500
ENDCHAR
STARTCHAR Eth.v
ENCODING 57825
SWIDTH 1000 0
DWIDTH 12 0
BBX 10 11 0 -2
BITMAP
010000
1D0000
1D0500
1C0A00
244600
780600
7D0900
2D0000
1D0010
1FFF80
055400
ENDCHAR
STARTCHAR Oslash.v
ENCODING 57826
SWIDTH 1000 0
DWIDTH 12 0
BBX 9 11 1 -3
BITMAP
140100
341000
745000
B45400
B40800
B41800
B44000
780040
386E00
3FA400
140000
ENDCHAR
STARTCHAR Thorn.v
ENCODING 57827
SWIDTH 1000 0
DWIDTH 12 0
BBX 9 11 1 -2
BITMAP
040000
740000
750000
740000
743800
742400
750000
741540
743D00
7F4000
150000
ENDCHAR
STARTCHAR Dcroat.v
ENCODING 57828
SWIDTH 1000 0
DWIDTH 12 0
BBX 10 11 0 -2
BITMAP
010000
1D0000
1D0500
1C0A00
244600
780600
7D0900
2D0000
1D0010
1FFF80
055400
ENDCHAR
STARTCHAR Hbar.v
ENCODING 57829
SWIDTH 1000 0
DWIDTH 12 0
BBX 10 11 1 -2
BITMAP
040400
701810
A10040
E00000
F43800
B40000
B40000
B42800
B43800
7F7F80
141500
ENDCHAR
STARTCHAR IJ.v
ENCODING 57830
SWIDTH 1000 0
DWIDTH 12 0
BBX 9 11 1 -2
BITMAP
044400
742800
743800
743800
743800
7F7800
192400
240000
740040
7FFD00
155000
ENDCHAR
STARTCHAR Ldot.v
ENCODING 57831
SWIDTH 1000 0
DWIDTH 12 0
BBX 9 13 1 -4
BITMAP
044000
740000
740000
740000
740800
742800
741400
740000
795540
7F9640
028000
039400
03F400
ENDCHAR
STARTCHAR Lslash.v
ENCODING 57832
SWIDTH 1000 0
DWIDTH 12 0
BBX 9 11 1 -2
BITMAP
040000
740000
740000
700000
A10400
F03800
F42800
740000
740000
7FFF80
155500
ENDCHAR
STARTCHAR Eng.v
ENCODING 57833
SWIDTH 1000 0
DWIDTH 12 0
BBX 9 11 1 -3
BITMAP
040000
241000
743800
743800
743800
743800
743400
745100
7FD040
15FE00
005400
ENDCHAR
STARTCHAR OE.v
ENCODING 57834
SWIDTH 1000 0
DWIDTH 12 0
BBX 10 10 1 -2
BITMAP
140400
701050
B0A040
B0A000
B0A050
B05080
B00400
B90000
3FFFC0
055500
ENDCHAR
STARTCHAR Tbar.v
ENCODING 57835
SWIDTH 1000 0
DWIDTH 12 0
BBX 9 10 1 -1
BITMAP
140000
741000
7F4280
5A4100
1C1000
2D0140
2F4100
074000
079400
07F000
ENDCHAR
STARTCHAR Germandbls.v
ENCODING 57836
SWIDTH 1000 0
DWIDTH 12 0
BBX 9 11 1 -2
BITMAP
040000
740000
741000
743040
742100
743400
743800
742000
742040
7FFE00
155400
ENDCHAR
STARTCHAR A.salt_v
ENCODING 57837
SWIDTH 1000 0
DWIDTH 12 0
BBX 9 10 1 -2
BITMAP
140000
342400
747800
742400
750000
741000
747800
743800
7F7F80
141500
ENDCHAR
STARTCHAR Agrave.salt_v
ENCODING 57838
SWIDTH 1000 0
DWIDTH 12 0
BBX 9 13 1 -2
BITMAP
050000
1D0000
1FA500
080000
240100
743800
742800
B50000
B40000
B47800
B47800
7F7F80
141500
ENDCHAR
STARTCHAR Aacute.salt_v
ENCODING 57839
SWIDTH 1000 0
DWIDTH 12 0
BBX 9 13 1 -2
BITMAP
010000
090000
1E5A00
180000
240100
743800
742800
B50000
B40000
B47800
B47800
7F7F80
141500
ENDCHAR
STARTCHAR Acircumflex.salt_v
ENCODING 57840
SWIDTH 1000 0
DWIDTH 12 0
BBX 9 13 1 -2
BITMAP
010000
090000
1EAA00
180000
240100
743800
742800
B50000
B40000
B47800
B47800
7F7F80
141500
ENDCHAR
STARTCHAR Atilde.salt_v
ENCODING 57841
SWIDTH 1000 0
DWIDTH 12 0
BBX 9 13 1 -2
BITMAP
010000
0D0000
1E9500
180000
240100
743800
742800
B50000
B40000
B47800
B47800
7F7F80
141500
ENDCHAR
STARTCHAR Adieresis.salt_v
ENCODING 57842
SWIDTH 1000 0
DWIDTH 12 0
BBX 9 13 1 -2
BITMAP
041400
2C2000
2E6540
180000
240100
743800
742800
B50000
B40000
B47800
B47800
7F7F80
141500
ENDCHAR
STARTCHAR Aring.salt_v
ENCODING 57843
SWIDTH 1000 0
DWIDTH 12 0
BBX 9 13 1 -2
BITMAP
010000
0C1400
1D2400
281400
240100
743800
742800
750000
740000
747800
743800
7F7F80
141500
ENDCHAR
STARTCHAR Amacron.salt_v
ENCODING 57844
SWIDTH 1000 0
DWIDTH 12 0
BBX 9 13 1 -2
BITMAP
010000
0D0000
1E5500
180000
240100
743800
742800
B50000
B40000
B47800
B47800
7F7F80
141500
ENDCHAR
STARTCHAR Abreve.salt_v
ENCODING 57845
SWIDTH 1000 0
DWIDTH 12 0
BBX 9 13 1 -2
BITMAP
091400
1D0000
1F5500
080000
240100
743800
742800
B50000
B40000
B47800
B47800
7F7F80
141500
ENDCHAR
STARTCHAR Aogonek.salt_v
ENCODING 57846
SWIDTH 1000 0
DWIDTH 12 0
BBX 9 12 1 -4
BITMAP
040000
240100
743800
742800
B50000
B40000
B47800
B47800
7F7840
143800
007E80
002A00
ENDCHAR
STARTCHAR E.salt_v
ENCODING 57847
SWIDTH 1000 0
DWIDTH 12 0
BBX 9 10 1 -2
BITMAP
040000
341540
702A40
B10000
B01500
B02900
B40000
7D0000
2FFF80
055500
ENDCHAR
STARTCHAR Egrave.salt_v
ENCODING 57848
SWIDTH 1000 0
DWIDTH 12 0
BBX 9 13 1 -2
BITMAP
050000
1D0000
1FE940
080000
240000
702A80
B10000
B00000
B02A00
B40000
7D0000
2FFF80
055500
ENDCHAR
STARTCHAR Eacute.salt_v
ENCODING 57849
SWIDTH 1000 0
DWIDTH 12 0
BBX 9 13 1 -2
BITMAP
010000
090000
1EAA00
180000
240000
702A80
B10000
B00000
B02A00
B40000
7D0000
2FFF80
055500
ENDCHAR
STARTCHAR Ecircumflex.salt_v
ENCODING 57850
SWIDTH 1000 0
DWIDTH 12 0
BBX 9 13 1 -2
BITMAP
010000
090000
1EBA40
180000
240000
702A80
B10000
B00000
B02A00
B40000
7D0000
2FFF80
055500
ENDCHAR
STARTCHAR Edieresis.salt_v
ENCODING 57851
SWIDTH 1000 0
DWIDTH 12 0
BBX 9 13 1 -2
BITMAP
041400
2C2000
2EA940
180000
240000
702A80
B10000
B00000
B02A00
B40000
7D0000
2FFF80
055500
ENDCHAR
STARTCHAR Emacron.salt_v
ENCODING 57852
SWIDTH 1000 0
DWIDTH 12 0
BBX 9 13 1 -2
BITMAP
010000
0D0000
1E9540
180000
240000
702A80
B10000
B00000
B02A00
B40000
7D0000
2FFF80
055500
ENDCHAR
STARTCHAR Ebreve.salt_v
ENCODING 57853
SWIDTH 1000 0
DWIDTH 12 0
BBX 9 13 1 -2
BITMAP
091400
1D0000
1F9500
080000
240000
702A80
B10000
B00000
B02A00
B40000
7D0000
2FFF80
055500
ENDCHAR
STARTCHAR Edotaccent.salt_v
ENCODING 57854
SWIDTH 1000 0
DWIDTH 12 0
BBX 9 13 1 -2
BITMAP
014000
034000
079500
040000
240000
702A80
B10000
B00000
B02A00
B40000
7D0000
2FFF80
055500
ENDCHAR
STARTCHAR Eogonek.salt_v
ENCODING 57855
SWIDTH 1000 0
DWIDTH 12 0
BBX 9 12 1 -4
BITMAP
040000
341540
701540
B10000
B02A00
B41500
780100
3E9440
1BF400
007940
007F40
000400
ENDCHAR
STARTCHAR Ecaron.salt_v
ENCODING 57856
SWIDTH 1000 0
DWIDTH 12 0
BBX 9 13 1 -2
BITMAP
090000
1D0000
1F9900
040000
240000
702A80
B10000
B00000
B02A00
B40000
7D0000
2FFF80
055500
ENDCHAR
STARTCHAR I.salt_v
ENCODING 57857
SWIDTH 1000 0
DWIDTH 12 0
BBX 5 11 3 -2
BITMAP
0400
2400
7400
7400
7400
7400
7400
7400
7400
7F80
1500
ENDCHAR
STARTCHAR I_I.salt_v
ENCODING 57858
SWIDTH 1000 0
DWIDTH 12 0
BBX 9 11 1 -2
BITMAP
044400
742800
743800
743800
743800
743800
743800
743800
743800
7F7F80
151500
ENDCHAR
STARTCHAR Igrave.salt_v
ENCODING 57859
SWIDTH 1000 0
DWIDTH 12 0
BBX 7 13 2 -2
BITMAP
1400
7400
7FA8
1904
1D00
1D00
1D00
1D00
1D00
1D00
1D00
1FE0
0540
ENDCHAR
STARTCHAR Iacute.salt_v
ENCODING 57860
SWIDTH 1000 0
DWIDTH 12 0
BBX 7 13 2 -2
BITMAP
0400
2400
7AA8
6D00
1D00
1D00
1D00
1D00
1D00
1D00
1D00
1FE0
0540
ENDCHAR
STARTCHAR Icircumflex.salt_v
ENCODING 57861
SWIDTH 1000 0
DWIDTH 12 0
BBX 7 13 2 -2
BITMAP
0400
2400
7AE8
6904
1D00
1D00
1D00
1D00
1D00
1D00
1D00
1FE0
0540
ENDCHAR
STARTCHAR Idieresis.salt_v
ENCODING 57862
SWIDTH 1000 0
DWIDTH 12 0
BBX 7 13 2 -2
BITMAP
1050
B080
BAA8
6D04
1D00
1D00
1D00
1D00
1D00
1D00
1D00
1FE0
0540
ENDCHAR
STARTCHAR Itilde.salt_v
ENCODING 57863
SWIDTH 1000 0
DWIDTH 12 0
BBX 7 13 2 -2
BITMAP
0400
3400
7A94
6D00
1D00
1D00
1D00
1D00
1D00
1D00
1D00
1FE0
0540
ENDCHAR
STARTCHAR Imacron.salt_v
ENCODING 57864
SWIDTH 1000 0
DWIDTH 12 0
BBX 7 13 2 -2
BITMAP
0400
3400
7A58
6D00
1D00
1D00
1D00
1D00
1D00
1D00
1D00
1FE0
0540
ENDCHAR
STARTCHAR Ibreve.salt_v
ENCODING 57865
SWIDTH 1000 0
DWIDTH 12 0
BBX 7 13 2 -2
BITMAP
2450
7400
7E54
2D00
1D00
1D00
1D00
1D00
1D00
1D00
1D00
1FE0
0540
ENDCHAR
STARTCHAR Iogonek.salt_v
ENCODING 57866
SWIDTH 1000 0
DWIDTH 12 0
BBX 5 12 3 -4
BITMAP
1400
3400
7400
7400
7400
7400
7400
7400
7440
7400
7E80
2A00
ENDCHAR
STARTCHAR Idotaccent.salt_v
ENCODING 57867
SWIDTH 1000 0
DWIDTH 12 0
BBX 5 13 3 -2
BITMAP
1400
3400
7940
3400
7400
7400
7400
7400
7400
7400
7400
7F80
1500
ENDCHAR
STARTCHAR L.salt_v
ENCODING 57868
SWIDTH 1000 0
DWIDTH 12 0
BBX 9 11 1 -2
BITMAP
040000
740000
740000
740000
740000
740000
740000
740000
740000
7FFF80
155500
ENDCHAR
STARTCHAR Lacute.salt_v
ENCODING 57869
SWIDTH 1000 0
DWIDTH 12 0
BBX 9 13 1 -2
BITMAP
040000
340000
7AB400
741000
740000
740000
740000
740000
740000
740000
740000
7FFF80
155500
ENDCHAR
STARTCHAR Lcommaaccent.salt_v
ENCODING 57870
SWIDTH 1000 0
DWIDTH 12 0
BBX 9 14 1 -5
BITMAP
040000
740000
740000
740000
740000
740000
740000
740000
795540
7F8240
034000
079000
03A400
03D000
ENDCHAR
STARTCHAR Lcaron.salt_v
ENCODING 57871
SWIDTH 1000 0
DWIDTH 12 0
BBX 10 11 1 -2
BITMAP
040100
740A00
740D00
741E50
741F40
740000
740000
740000
740000
7FFF80
155500
ENDCHAR
STARTCHAR Ldot.salt_v
ENCODING 57872
SWIDTH 1000 0
DWIDTH 12 0
BBX 9 13 1 -4
BITMAP
040000
740000
740000
740000
740000
740000
740000
740000
795540
7F5B40
0A0000
0F5400
0BE000
ENDCHAR
STARTCHAR Lslash.salt_v
ENCODING 57873
SWIDTH 1000 0
DWIDTH 12 0
BBX 10 11 0 -2
BITMAP
010000
1D0000
1D0000
180000
244000
780400
3D0000
1D0000
1D0000
1FFFE0
055540
ENDCHAR
STARTCHAR L.salt_s_v
ENCODING 57874
SWIDTH 1000 0
DWIDTH 12 0
BBX 9 10 1 -2
BITMAP
240000
740000
740000
740000
740000
740000
740000
740000
7FFF80
155500
ENDCHAR
STARTCHAR M.salt_v
ENCODING 57875
SWIDTH 1000 0
DWIDTH 12 0
BBX 10 10 1 -2
BITMAP
200000
A05100
E08200
E08200
E08200
E08200
E08200
E18200
FFFFD0
515540
ENDCHAR
STARTCHAR N.salt_v
ENCODING 57876
SWIDTH 1000 0
DWIDTH 12 0
BBX 9 10 1 -2
BITMAP
140000
341400
743800
743800
743800
743800
743800
743800
7F7F80
141500
ENDCHAR
STARTCHAR Ntilde.salt_v
ENCODING 57877
SWIDTH 1000 0
DWIDTH 12 0
BBX 9 13 1 -2
BITMAP
010000
0D0000
1E9500
180000
240000
743800
743800
743800
743800
743800
743800
7F7F80
141500
ENDCHAR
STARTCHAR Nacute.salt_v
ENCODING 57878
SWIDTH 1000 0
DWIDTH 12 0
BBX 9 13 1 -2
BITMAP
010000
090000
1E5A00
180000
240000
743800
743800
743800
743800
743800
743800
7F7F80
141500
ENDCHAR
STARTCHAR Ncommaaccent.salt_v
ENCODING 57879
SWIDTH 1000 0
DWIDTH 12 0
BBX 9 12 1 -4
BITMAP
040000
341000
743800
743800
743800
743800
797940
7F4240
078000
079000
03E400
029000
ENDCHAR
STARTCHAR Ncaron.salt_v
ENCODING 57880
SWIDTH 1000 0
DWIDTH 12 0
BBX 9 13 1 -2
BITMAP
090000
1D0000
1F9500
080000
240000
743800
743800
743800
743800
743800
743800
7F7F80
141500
ENDCHAR
STARTCHAR W.salt_v
ENCODING 57881
SWIDTH 1000 0
DWIDTH 12 0
BBX 9 11 1 -2
BITMAP
114500
A08200
E08200
E08200
E08200
E08200
E04200
E01000
F41000
BFFF40
196900
ENDCHAR
STARTCHAR Wcircumflex.salt_v
ENCODING 57882
SWIDTH 1000 0
DWIDTH 12 0
BBX 9 13 1 -2
BITMAP
010000
090000
1EBE40
608200
E08200
E08200
E08200
E08200
E04200
E01000
F41000
BFFF40
196900
ENDCHAR
STARTCHAR Wgrave.salt_v
ENCODING 57883
SWIDTH 1000 0
DWIDTH 12 0
BBX 9 13 1 -2
BITMAP
050000
1D0000
1FEA40
608200
E08200
E08200
E08200
E08200
E04200
E01000
F41000
BFFF40
196900
ENDCHAR
STARTCHAR Wacute.salt_v
ENCODING 57884
SWIDTH 1000 0
DWIDTH 12 0
BBX 9 13 1 -2
BITMAP
010000
090000
1EAA00
608200
E08200
E08200
E08200
E08200
E04200
E01000
F41000
BFFF40
196900
ENDCHAR
STARTCHAR Wdieresis.salt_v
ENCODING 57885
SWIDTH 1000 0
DWIDTH 12 0
BBX 9 13 1 -2
BITMAP
041400
2C2000
2EAA40
608200
E08200
E08200
E08200
E08200
E04200
E01000
F41000
BFFF40
196900
ENDCHAR
STARTCHAR X.salt_v
ENCODING 57886
SWIDTH 1100 0
DWIDTH 13 0
BBX 9 11 2 -2
BITMAP
100440
703000
B42000
781040
304400
A01000
E0B400
E07400
E07400
FE7F40
541500
ENDCHAR
STARTCHAR Y.salt_v
ENCODING 57887
SWIDTH 1000 0
DWIDTH 12 0
BBX 8 11 1 -2
BITMAP
0444
7428
7438
7438
7410
7810
7E41
1F40
0740
07F8
0150
ENDCHAR
STARTCHAR Yacute.salt_v
ENCODING 57888
SWIDTH 1000 0
DWIDTH 12 0
BBX 9 13 1 -2
BITMAP
010000
090000
1EAE00
242800
743800
743800
741400
740000
7E0140
2F4100
074000
07F800
015000
ENDCHAR
STARTCHAR Ycircumflex.salt_v
ENCODING 57889
SWIDTH 1000 0
DWIDTH 12 0
BBX 9 13 1 -2
BITMAP
010000
090000
1EBE40
242800
743800
743800
741400
740000
7E0140
2F4100
074000
07F800
015000
ENDCHAR
STARTCHAR Ydieresis.salt_v
ENCODING 57890
SWIDTH 1000 0
DWIDTH 12 0
BBX 9 13 1 -2
BITMAP
041400
2C2000
2EBA40
243800
743800
743800
741400
740000
7E0140
2F4100
074000
07F800
015000
ENDCHAR
STARTCHAR Ygrave.salt_v
ENCODING 57891
SWIDTH 1000 0
DWIDTH 12 0
BBX 9 13 1 -2
BITMAP
050000
1D0000
1FF940
243800
743800
743800
741400
740000
7E0140
2F4100
074000
07F800
015000
ENDCHAR
STARTCHAR AE.salt_v
ENCODING 57892
SWIDTH 1000 0
DWIDTH 12 0
BBX 10 10 1 -2
BITMAP
140400
705050
B0A040
B05000
B10450
B00080
B0A000
B0A000
BEFFC0
545500
ENDCHAR
STARTCHAR IJ.salt_v
ENCODING 57893
SWIDTH 1000 0
DWIDTH 12 0
BBX 9 19 1 -6
BITMAP
014000
074000
074000
074000
074000
074000
074000
074000
07F800
015800
003800
003800
047800
747800
742400
740000
7D0040
3FEE00
06A400
ENDCHAR
STARTCHAR IJ.stack_v
ENCODING 57894
SWIDTH 1000 0
DWIDTH 12 0
BBX 9 19 1 -6
BITMAP
140000
741000
7E4280
6B4100
074000
064100
241000
740000
7FFF80
156900
002800
003800
007800
247800
747800
741000
780000
7E5600
1BF800
ENDCHAR
STARTCHAR commaaccent.v
ENCODING 57895
SWIDTH 1000 0
DWIDTH 12 0
BBX 5 6 3 -6
BITMAP
0400
2400
7900
7840
3E00
1400
ENDCHAR
STARTCHAR hyphen.v
ENCODING 57896
SWIDTH 1000 0
DWIDTH 12 0
BBX 4 5 4 1
BITMAP
60
E0
E0
E5
FD
ENDCHAR
STARTCHAR endash.v
ENCODING 57897
SWIDTH 1000 0
DWIDTH 12 0
BBX 4 9 4 -1
BITMAP
10
E0
E0
E0
E0
E0
E0
F9
A4
ENDCHAR
STARTCHAR emdash.v
ENCODING 57898
SWIDTH 1000 0
DWIDTH 12 0
BBX 4 13 4 -3
BITMAP
60
E0
E0
E0
E0
E0
E0
E0
E0
E0
E0
E5
FC
ENDCHAR
STARTCHAR parenleft.v
ENCODING 57899
SWIDTH 1000 0
DWIDTH 12 0
BBX 12 5 0 1
BITMAP
100000
600004
E0AA90
E5ABF5
F800FD
ENDCHAR
STARTCHAR parenright.v
ENCODING 57900
SWIDTH 1000 0
DWIDTH 12 0
BBX 11 5 0 1
BITMAP
500060
E00000
E00000
F95554
7FFFE0
ENDCHAR
STARTCHAR bracketleft.v
ENCODING 57901
SWIDTH 1000 0
DWIDTH 12 0
BBX 13 5 -1 1
BITMAP
14000000
38000100
782AA400
796ABD40
3E003F40
ENDCHAR
STARTCHAR bracketright.v
ENCODING 57902
SWIDTH 1000 0
DWIDTH 12 0
BBX 13 5 -1 1
BITMAP
14001800
38000000
78000000
79555540
3FFFFF40
ENDCHAR
STARTCHAR braceleft.v
ENCODING 57903
SWIDTH 1000 0
DWIDTH 12 0
BBX 12 7 0 0
BITMAP
001000
040000
200000
A00900
E1FFE0
FD45FD
500054
ENDCHAR
STARTCHAR braceright.v
ENCODING 57904
SWIDTH 1000 0
DWIDTH 12 0
BBX 11 7 0 0
BITMAP
110010
A00550
E00400
F40000
BEA1A4
2AFE90
005000
ENDCHAR
STARTCHAR quoteleft.v
ENCODING 57905
SWIDTH 1000 0
DWIDTH 12 0
BBX 5 7 3 0
BITMAP
0540
2540
7400
B000
B400
BF80
1500
ENDCHAR
STARTCHAR quoteright.v
ENCODING 57906
SWIDTH 1000 0
DWIDTH 12 0
BBX 6 6 3 1
BITMAP
1400
7000
B000
7510
7A40
7E00
ENDCHAR
STARTCHAR quotedblleft.v
ENCODING 57907
SWIDTH 1000 0
DWIDTH 12 0
BBX 9 7 1 0
BITMAP
055540
25B540
742400
742000
742400
7FFF40
151500
ENDCHAR
STARTCHAR quotedblright.v
ENCODING 57908
SWIDTH 1000 0
DWIDTH 12 0
BBX 10 6 1 1
BITMAP
141400
742000
742000
792510
7ABA40
7E7E00
ENDCHAR
STARTCHAR quotesinglbase.v
ENCODING 57909
SWIDTH 1000 0
DWIDTH 12 0
BBX 4 7 3 0
BITMAP
04
20
B0
B9
74
7E
24
ENDCHAR
STARTCHAR quotedblbase.v
ENCODING 57910
SWIDTH 1000 0
DWIDTH 12 0
BBX 10 6 1 1
BITMAP
141400
742000
742000
792510
7ABA40
7E7E00
ENDCHAR
STARTCHAR guilsinglleft.v
ENCODING 57911
SWIDTH 1000 0
DWIDTH 12 0
BBX 8 7 2 0
BITMAP
0404
1800
3440
7090
7090
BEFD
64A4
ENDCHAR
STARTCHAR guilsinglright.v
ENCODING 57912
SWIDTH 1000 0
DWIDTH 12 0
BBX 8 7 2 0
BITMAP
1051
B090
B440
B400
7800
3EA0
1A80
ENDCHAR
STARTCHAR guillemotleft.v
ENCODING 57913
SWIDTH 1000 0
DWIDTH 12 0
BBX 8 10 2 -2
BITMAP
0800
2400
7090
79A5
BC04
1800
3440
75A5
BEFC
1050
ENDCHAR
STARTCHAR guillemotright.v
ENCODING 57914
SWIDTH 1000 0
DWIDTH 12 0
BBX 7 11 2 -2
BITMAP
0010
7050
B400
7800
3E54
3090
B440
B810
7D04
3FE0
0540
ENDCHAR
STARTCHAR period.v
ENCODING 57915
SWIDTH 1000 0
DWIDTH 12 0
BBX 6 5 3 2
BITMAP
0400
3000
B000
B950
7F40
ENDCHAR
STARTCHAR comma.v
ENCODING 57916
SWIDTH 1000 0
DWIDTH 12 0
BBX 4 7 3 0
BITMAP
04
20
B0
B9
74
7E
24
ENDCHAR
STARTCHAR ellipsis.v
ENCODING 57917
SWIDTH 1000 0
DWIDTH 12 0
BBX 14 5 -1 2
BITMAP
00141400
60302400
E0302400
F5796950
BEBF7F80
ENDCHAR
STARTCHAR exclamdown.v
ENCODING 57918
SWIDTH 1000 0
DWIDTH 12 0
BBX 5 10 3 -1
BITMAP
1400
7400
7E80
7400
7400
7400
7400
7400
7940
7F40
ENDCHAR
STARTCHAR questiondown.v
ENCODING 57919
SWIDTH 1000 0
DWIDTH 12 0
BBX 9 10 1 -1
BITMAP
005000
01C000
02D500
015400
040000
340500
741900
780000
3E5540
1FFF40
ENDCHAR
STARTCHAR dagger.v
ENCODING 57920
SWIDTH 1000 0
DWIDTH 12 0
BBX 10 10 1 -1
BITMAP
014000
078000
200000
B01000
B54150
BF8340
038000
034000
079400
07F000
ENDCHAR
STARTCHAR daggerdbl.v
ENCODING 57921
SWIDTH 1000 0
DWIDTH 12 0
BBX 10 10 1 -1
BITMAP
014000
200000
B01000
BA4240
6A4240
301000
B00000
BA4290
6B9640
03F000
ENDCHAR
STARTCHAR perthousand.v
ENCODING 57922
SWIDTH 1000 0
DWIDTH 12 0
BBX 11 11 0 -2
BITMAP
000100
210800
754400
B00000
B90000
7F4000
0A0110
085150
24E040
7EFFF4
505550
ENDCHAR
STARTCHAR ampersand.salt_v
ENCODING 57923
SWIDTH 1000 0
DWIDTH 12 0
BBX 9 13 1 -3
BITMAP
004000
014000
040400
1C0540
2C1A40
284000
241540
702A00
B40000
780000
3FC180
07F900
019000
ENDCHAR
STARTCHAR quoteleft.salt_v
ENCODING 57924
SWIDTH 1000 0
DWIDTH 12 0
BBX 5 5 1 1
BITMAP
0400
3540
7400
7E40
6900
ENDCHAR
STARTCHAR quoteright.salt_v
ENCODING 57925
SWIDTH 1000 0
DWIDTH 12 0
BBX 5 5 1 1
BITMAP
1440
7500
7900
7900
6800
ENDCHAR
STARTCHAR A.s_v
ENCODING 57926
SWIDTH 1000 0
DWIDTH 12 0
BBX 9 10 1 -2
BITMAP
050000
0C0000
181000
243400
740000
740000
743800
747800
7F7F80
141500
ENDCHAR
STARTCHAR C.s_v
ENCODING 57927
SWIDTH 1000 0
DWIDTH 12 0
BBX 9 10 1 -2
BITMAP
040000
240000
702F80
B02900
B00000
B00000
B40000
7D0000
2FFF80
055500
ENDCHAR
STARTCHAR D.s_v
ENCODING 57928
SWIDTH 1000 0
DWIDTH 12 0
BBX 9 10 1 -2
BITMAP
240000
740100
743800
743800
742800
742400
740000
740040
7FFE00
155000
ENDCHAR
STARTCHAR E.s_v
ENCODING 57929
SWIDTH 1000 0
DWIDTH 12 0
BBX 9 10 1 -2
BITMAP
240000
740000
742A80
750000
740000
742A00
740000
740000
7FFF80
155500
ENDCHAR
STARTCHAR G.s_v
ENCODING 57930
SWIDTH 1000 0
DWIDTH 12 0
BBX 9 10 1 -2
BITMAP
040000
240000
702E00
B02900
B01800
B02400
B40000
7D0000
2FFF80
055500
ENDCHAR
STARTCHAR H.s_v
ENCODING 57931
SWIDTH 1000 0
DWIDTH 12 0
BBX 9 10 1 -2
BITMAP
241800
743800
742400
750000
740000
743800
743800
743800
7F7F80
151500
ENDCHAR
STARTCHAR I.s_v
ENCODING 57932
SWIDTH 1000 0
DWIDTH 12 0
BBX 9 10 1 -2
BITMAP
140000
740000
7F4280
2B4100
074000
064000
241000
740000
7FFF80
155500
ENDCHAR
STARTCHAR J.s_v
ENCODING 57933
SWIDTH 1000 0
DWIDTH 12 0
BBX 9 10 1 -2
BITMAP
001800
003800
003800
047800
747800
742400
740000
7D0040
3FEE00
06A400
ENDCHAR
STARTCHAR K.s_v
ENCODING 57934
SWIDTH 1000 0
DWIDTH 12 0
BBX 9 10 1 -2
BITMAP
241400
742000
741040
740400
740000
743800
743800
743800
7F7F80
151500
ENDCHAR
STARTCHAR L.s_v
ENCODING 57935
SWIDTH 1000 0
DWIDTH 12 0
BBX 9 10 1 -2
BITMAP
240000
740000
740000
740400
741800
742800
740000
740000
7FFF80
155500
ENDCHAR
STARTCHAR N.s_v
ENCODING 57936
SWIDTH 1000 0
DWIDTH 12 0
BBX 9 10 1 -2
BITMAP
241800
751800
740000
740000
741000
743000
743800
743800
7F7F80
141500
ENDCHAR
STARTCHAR O.s_v
ENCODING 57937
SWIDTH 1000 0
DWIDTH 12 0
BBX 9 10 1 -2
BITMAP
040000
240000
703800
B03800
B02800
B02800
B40000
790040
3FEE00
06A400
ENDCHAR
STARTCHAR R.s_v
ENCODING 57938
SWIDTH 1000 0
DWIDTH 12 0
BBX 9 10 1 -2
BITMAP
240000
740000
743000
741040
750000
741400
743800
743800
7F7F80
141500
ENDCHAR
STARTCHAR S.s_v
ENCODING 57939
SWIDTH 1000 0
DWIDTH 12 0
BBX 9 10 1 -2
BITMAP
040000
240000
742A80
740000
780100
7FA400
240100
740040
7FFE00
155400
ENDCHAR
STARTCHAR T.s_v
ENCODING 57940
SWIDTH 1000 0
DWIDTH 12 0
BBX 9 10 1 -2
BITMAP
240000
740000
7F4280
6B4100
074000
074000
074000
074000
07F800
015000
ENDCHAR
STARTCHAR U.s_v
ENCODING 57941
SWIDTH 1000 0
DWIDTH 12 0
BBX 9 10 1 -2
BITMAP
241800
743800
743800
743800
743800
742400
740000
7D0040
2FEE00
06A400
ENDCHAR
STARTCHAR W.s_v
ENCODING 57942
SWIDTH 1000 0
DWIDTH 12 0
BBX 9 10 1 -2
BITMAP
200900
B01D00
B04500
B00000
B00000
B01000
B42500
783800
3FBF40
151400
ENDCHAR
STARTCHAR Y.s_v
ENCODING 57943
SWIDTH 1000 0
DWIDTH 12 0
BBX 7 10 1 -2
BITMAP
2408
7438
B438
7810
7D00
2F00
0F40
0740
07F8
0150
ENDCHAR
STARTCHAR Z.s_v
ENCODING 57944
SWIDTH 1000 0
DWIDTH 12 0
BBX 9 10 1 -2
BITMAP
140000
740000
7FD000
2A4000
010000
140400
750000
740000
7FFF80
155500
ENDCHAR
STARTCHAR A.salt_s_v
ENCODING 57945
SWIDTH 1000 0
DWIDTH 12 0
BBX 9 10 1 -2
BITMAP
040000
240100
743800
742800
B50000
B40000
B47800
B47800
7F7F80
141500
ENDCHAR
STARTCHAR E.salt_s_v
ENCODING 57946
SWIDTH 1000 0
DWIDTH 12 0
BBX 9 10 1 -2
BITMAP
040000
240000
702A80
B10000
B00000
B02A00
B40000
7D0000
2FFF80
055500
ENDCHAR
STARTCHAR I.salt_s_v
ENCODING 57947
SWIDTH 1000 0
DWIDTH 12 0
BBX 5 10 3 -2
BITMAP
1400
7400
7400
7400
7400
7400
7400
7400
7F80
1500
ENDCHAR
STARTCHAR N.salt_s_v
ENCODING 57948
SWIDTH 1000 0
DWIDTH 12 0
BBX 9 10 1 -2
BITMAP
040000
240000
743800
743800
743800
743800
743800
743800
7F7F80
141500
ENDCHAR
STARTCHAR W.salt_s_v
ENCODING 57949
SWIDTH 1000 0
DWIDTH 12 0
BBX 9 10 1 -2
BITMAP
608200
E08200
E08200
E08200
E08200
E04200
E01000
F41000
BFFF40
196900
ENDCHAR
STARTCHAR Y.salt_s_v
ENCODING 57950
SWIDTH 1000 0
DWIDTH 12 0
BBX 9 10 1 -2
BITMAP
241800
743800
743800
741400
740000
7E0140
2F4100
074000
07F800
015000
ENDCHAR
STARTCHAR uniF6C3
ENCODING 63171
SWIDTH 600 0
DWIDTH 7 0
BBX 5 5 1 -5
BITMAP
2000
B040
B900
B400
7800
ENDCHAR
STARTCHAR fi
ENCODING 64257
SWIDTH 1423 0
DWIDTH 17 0
BBX 17 10 0 -1
BITMAP
1400040040
7400681000
743E3E0140
74143F4100
7500074000
7400074000
7438060000
7410281000
7940395540
7E003FFE00
ENDCHAR
STARTCHAR fl
ENCODING 64258
SWIDTH 1513 0
DWIDTH 18 0
BBX 18 10 0 -1
BITMAP
1400040000
7400280000
743E380000
7414380100
7500380900
7400381D00
7438380400
7410380000
79403D5550
7E002FFF80
ENDCHAR
STARTCHAR exclam.v
ENCODING 65281
SWIDTH 1000 0
DWIDTH 12 0
BBX 6 10 3 -1
BITMAP
1400
7400
7400
7400
7400
7800
7A40
3400
7950
7F40
ENDCHAR
STARTCHAR quotedbl.v
ENCODING 65282
SWIDTH 1000 0
DWIDTH 12 0
BBX 9 7 1 0
BITMAP
041400
342400
782400
382400
382400
3FBF40
151400
ENDCHAR
STARTCHAR percent.v
ENCODING 65285
SWIDTH 1000 0
DWIDTH 12 0
BBX 9 11 1 -2
BITMAP
040100
200800
B14400
B00000
B94100
7F4000
060100
086100
24B000
7DFF40
541500
ENDCHAR
STARTCHAR ampersand.v
ENCODING 65286
SWIDTH 1000 0
DWIDTH 12 0
BBX 10 10 1 -2
BITMAP
080000
281500
3C1800
284400
201840
B06810
B00100
B80040
7FFE00
055400
ENDCHAR
STARTCHAR quotesingle.v
ENCODING 65287
SWIDTH 1000 0
DWIDTH 12 0
BBX 5 7 3 0
BITMAP
1400
7400
7400
7400
7800
7F40
1500
ENDCHAR
STARTCHAR asterisk.v
ENCODING 65290
SWIDTH 1000 0
DWIDTH 12 0
BBX 10 9 1 -1
BITMAP
004400
02C000
184000
341010
7F0180
191000
1E3800
1FBD00
051000
ENDCHAR
STARTCHAR zero.v
ENCODING 65296
SWIDTH 1000 0
DWIDTH 12 0
BBX 9 10 1 -2
BITMAP
140000
341400
743800
743800
743800
742400
740000
7D0040
2FEE00
06A400
ENDCHAR
STARTCHAR one.v
ENCODING 65297
SWIDTH 1000 0
DWIDTH 12 0
BBX 9 11 1 -2
BITMAP
040000
241000
794000
7F8000
078000
038000
064000
241000
740000
7FFF80
155500
ENDCHAR
STARTCHAR two.v
ENCODING 65298
SWIDTH 1000 0
DWIDTH 12 0
BBX 9 11 1 -2
BITMAP
040000
240000
795400
7F9400
040000
240540
742900
740000
740000
7FFF80
155500
ENDCHAR
STARTCHAR three.v
ENCODING 65299
SWIDTH 1000 0
DWIDTH 12 0
BBX 9 11 1 -2
BITMAP
040000
740000
795000
7E9000
1C0400
2D5400
1AA800
240000
740040
7FFE00
155400
ENDCHAR
STARTCHAR four.v
ENCODING 65300
SWIDTH 1000 0
DWIDTH 12 0
BBX 9 11 1 -2
BITMAP
044400
742800
743800
743800
741400
740000
780000
3FF800
057800
003F80
001500
ENDCHAR
STARTCHAR five.v
ENCODING 65301
SWIDTH 1000 0
DWIDTH 12 0
BBX 9 11 1 -2
BITMAP
040000
340000
741540
741540
740000
795000
7AA400
240100
740040
7FFE00
155400
ENDCHAR
STARTCHAR six.v
ENCODING 65302
SWIDTH 1000 0
DWIDTH 12 0
BBX 9 10 1 -2
BITMAP
040000
341540
702500
B00000
B12400
B03800
B40100
780040
3FEE00
06A400
ENDCHAR
STARTCHAR seven.v
ENCODING 65303
SWIDTH 1000 0
DWIDTH 12 0
BBX 8 11 1 -2
BITMAP
0400
7400
7554
7FF8
0141
0500
0D0A
1D04
1D00
1FE0
0540
ENDCHAR
STARTCHAR eight.v
ENCODING 65304
SWIDTH 1000 0
DWIDTH 12 0
BBX 9 10 1 -2
BITMAP
080000
282400
382400
384500
241400
707800
B40000
780040
3FEE00
06A400
ENDCHAR
STARTCHAR nine.v
ENCODING 65305
SWIDTH 1000 0
DWIDTH 12 0
BBX 9 10 1 -2
BITMAP
140000
302400
703800
B40000
790400
3EA400
0C0000
2C0040
2FFE00
155000
ENDCHAR
STARTCHAR colon.v
ENCODING 65306
SWIDTH 1000 0
DWIDTH 12 0
BBX 6 10 3 0
BITMAP
0400
2000
B000
B000
B940
7A40
7000
B000
B950
7F40
ENDCHAR
STARTCHAR semicolon.v
ENCODING 65307
SWIDTH 1000 0
DWIDTH 12 0
BBX 6 11 3 -2
BITMAP
0400
7000
B000
B550
BA40
3000
B000
B900
7400
7E40
2400
ENDCHAR
STARTCHAR question.v
ENCODING 65311
SWIDTH 1000 0
DWIDTH 12 0
BBX 10 10 1 -1
BITMAP
140000
755000
7FA400
190010
1E0040
1FAF40
0D0400
0D0000
1E5000
1FD000
ENDCHAR
STARTCHAR A.v
ENCODING 65313
SWIDTH 1000 0
DWIDTH 12 0
BBX 9 11 1 -2
BITMAP
010000
090000
1C0000
282400
342400
750000
740000
B47800
B47800
7F7F80
141500
ENDCHAR
STARTCHAR B.v
ENCODING 65314
SWIDTH 1000 0
DWIDTH 12 0
BBX 9 11 1 -2
BITMAP
040000
740000
742000
742000
740400
741400
743800
740000
740040
7FFE00
155400
ENDCHAR
STARTCHAR C.v
ENCODING 65315
SWIDTH 1000 0
DWIDTH 12 0
BBX 9 10 1 -2
BITMAP
040000
341540
703F40
B00000
B00000
B00000
B40000
7D0000
2FFF80
055500
ENDCHAR
STARTCHAR D.v
ENCODING 65316
SWIDTH 1000 0
DWIDTH 12 0
BBX 9 11 1 -2
BITMAP
040000
740000
741400
743800
743800
742800
742400
740000
740040
7FFE00
155000
ENDCHAR
STARTCHAR E.v
ENCODING 65317
SWIDTH 1000 0
DWIDTH 12 0
BBX 9 11 1 -2
BITMAP
040000
740000
741540
742A40
750000
741500
742900
740000
740000
7FFF80
155500
ENDCHAR
STARTCHAR F.v
ENCODING 65318
SWIDTH 1000 0
DWIDTH 12 0
BBX 9 11 1 -2
BITMAP
040000
740000
741540
743F40
740000
740000
742A00
742800
740000
7F4000
150000
ENDCHAR
STARTCHAR G.v
ENCODING 65319
SWIDTH 1000 0
DWIDTH 12 0
BBX 9 10 1 -2
BITMAP
040000
341540
703E00
B00400
B02800
B02400
B40000
7D0000
2FFF80
055500
ENDCHAR
STARTCHAR H.v
ENCODING 65320
SWIDTH 1000 0
DWIDTH 12 0
BBX 9 11 1 -2
BITMAP
044400
742800
743800
741400
740000
740000
743800
743800
743800
7F7F80
151500
ENDCHAR
STARTCHAR I.v
ENCODING 65321
SWIDTH 1000 0
DWIDTH 12 0
BBX 9 11 1 -2
BITMAP
040000
341000
790140
7F4240
074000
074000
064000
241000
740000
7FFF80
155500
ENDCHAR
STARTCHAR J.v
ENCODING 65322
SWIDTH 1000 0
DWIDTH 12 0
BBX 9 11 1 -2
BITMAP
000400
002800
003800
003800
047800
747800
742400
740000
7C0040
3FEE00
06A400
ENDCHAR
STARTCHAR K.v
ENCODING 65323
SWIDTH 1000 0
DWIDTH 12 0
BBX 9 11 1 -2
BITMAP
040400
742000
742000
740040
750400
741000
743800
743800
743800
7F7F80
151500
ENDCHAR
STARTCHAR L.v
ENCODING 65324
SWIDTH 1000 0
DWIDTH 12 0
BBX 9 11 1 -2
BITMAP
040000
740000
740000
740000
740400
742800
742800
740000
740000
7FFF80
155500
ENDCHAR
STARTCHAR M.v
ENCODING 65325
SWIDTH 1000 0
DWIDTH 12 0
BBX 9 11 1 -2
BITMAP
100000
701400
B01000
B00000
B00000
B04400
B0AC00
B06C00
B02C00
BE2FC0
541500
ENDCHAR
STARTCHAR N.v
ENCODING 65326
SWIDTH 1000 0
DWIDTH 12 0
BBX 9 11 1 -2
BITMAP
040400
741800
744800
740000
740000
742000
743400
743800
743800
7F7F80
141500
ENDCHAR
STARTCHAR O.v
ENCODING 65327
SWIDTH 1000 0
DWIDTH 12 0
BBX 9 10 1 -2
BITMAP
140000
301400
703800
B02800
B02800
B02800
B40000
790040
3FEE00
06A400
ENDCHAR
STARTCHAR P.v
ENCODING 65328
SWIDTH 1000 0
DWIDTH 12 0
BBX 9 11 1 -2
BITMAP
040000
740000
741400
743C00
741400
750000
741540
743900
740000
7F4000
150000
ENDCHAR
STARTCHAR Q.v
ENCODING 65329
SWIDTH 1000 0
DWIDTH 12 0
BBX 9 11 1 -3
BITMAP
140000
301400
703800
B02800
B02800
B02800
B40000
7D0040
2F4100
07F800
029000
ENDCHAR
STARTCHAR R.v
ENCODING 65330
SWIDTH 1000 0
DWIDTH 12 0
BBX 9 11 1 -2
BITMAP
040000
740000
741000
743000
740000
750000
742800
743800
742800
7F6F80
141500
ENDCHAR
STARTCHAR S.v
ENCODING 65331
SWIDTH 1000 0
DWIDTH 12 0
BBX 9 10 1 -2
BITMAP
140000
341540
741A40
740000
7D4000
2AA400
240100
740040
7FFE00
155400
ENDCHAR
STARTCHAR T.v
ENCODING 65332
SWIDTH 1000 0
DWIDTH 12 0
BBX 9 11 1 -2
BITMAP
040000
741000
750140
7F4240
074000
074000
074000
074000
074000
07F800
015000
ENDCHAR
STARTCHAR U.v
ENCODING 65333
SWIDTH 1000 0
DWIDTH 12 0
BBX 9 11 1 -2
BITMAP
040400
742800
743800
743800
743800
743800
742400
740000
7D0040
2FEE00
06A400
ENDCHAR
STARTCHAR V.v
ENCODING 65334
SWIDTH 1000 0
DWIDTH 12 0
BBX 8 11 1 -2
BITMAP
0444
7428
7438
B438
B438
7424
7C10
3D00
2E00
1FFD
0550
ENDCHAR
STARTCHAR W.v
ENCODING 65335
SWIDTH 1000 0
DWIDTH 12 0
BBX 9 11 1 -2
BITMAP
100100
700D00
B01D00
B04500
B00000
B00000
B01000
B42500
783800
3FBF40
151400
ENDCHAR
STARTCHAR X.v
ENCODING 65336
SWIDTH 1100 0
DWIDTH 13 0
BBX 9 11 2 -2
BITMAP
100400
607400
F07000
F40000
7C4000
240000
207000
A0B400
E0B400
FE7F40
541500
ENDCHAR
STARTCHAR Y.v
ENCODING 65337
SWIDTH 1000 0
DWIDTH 12 0
BBX 7 11 1 -2
BITMAP
0444
7428
7438
B434
7800
7D00
2F00
0F40
0740
07F8
0150
ENDCHAR
STARTCHAR Z.v
ENCODING 65338
SWIDTH 1000 0
DWIDTH 12 0
BBX 9 11 1 -2
BITMAP
040000
340000
795000
7FD000
014000
050000
140400
750000
740000
7FFF80
155500
ENDCHAR
STARTCHAR uni2B24.salt_v
ENCODING 65339
SWIDTH 1280 0
DWIDTH 15 0
BBX 14 13 1 -2
BITMAP
06AAA800
1FFFFE00
3FFFFF40
7FFFFF80
BFFFFFD0
FFFFFFD0
FFFFFFD0
FFFFFFD0
FFFFFFD0
BFFFFFC0
7FFFFF80
2FFFFF00
0BFFF900
ENDCHAR
STARTCHAR uni25DD.curve_v
ENCODING 65340
SWIDTH 1280 0
DWIDTH 15 0
BBX 13 13 1 -2
BITMAP
01AAAA80
0BFFFFC0
2FFFFFC0
7FFFFFC0
BFFFFFC0
BFFFFFC0
BFFFFFC0
BFFFFFC0
BFFFFFC0
BFFFFFC0
BFFFFFC0
BFFFFFC0
BFFFFF80
ENDCHAR
STARTCHAR uni2B1B.trapezoid_e_v
ENCODING 65341
SWIDTH 1280 0
DWIDTH 15 0
BBX 13 14 1 -2
BITMAP
A9400000
BFFA5000
BFFFFE40
BFFFFFC0
BFFFFFC0
BFFFFFC0
BFFFFFC0
BFFFFFC0
BFFFFFC0
BFFFFFC0
BFFFFFC0
BFFFFFC0
BFFFFFC0
BFFFFF80
ENDCHAR
STARTCHAR uni2B1B.trapezoid_w_v
ENCODING 65342
SWIDTH 1280 0
DWIDTH 15 0
BBX 13 15 1 -4
BITMAP
6AAAAA80
BFFFFFC0
BFFFFFC0
BFFFFFC0
BFFFFFC0
BFFFFFC0
BFFFFFC0
BFFFFFC0
BFFFFFC0
BFFFFFC0
BFFFFFC0
BFFFFF80
BFFF9500
BA540000
50000000
ENDCHAR
STARTCHAR .notdef
ENCODING -1
SWIDTH 1100 0
DWIDTH 13 0
BBX 11 11 1 -2
BITMAP
6AAAA4
EBFFF8
E00038
E00038
E00038
E00038
E00038
E00038
E40078
FAAAA8
FFFFE0
ENDCHAR
STARTCHAR one.sups
ENCODING -1
SWIDTH 557 0
DWIDTH 7 0
BBX 7 8 0 1
BITMAP
1540
7400
BD00
1D00
1800
7154
BFE0
5540
ENDCHAR
STARTCHAR two.sups
ENCODING -1
SWIDTH 585 0
DWIDTH 7 0
BBX 7 8 0 1
BITMAP
1550
7A40
7800
2010
B090
B554
BFE0
5540
ENDCHAR
STARTCHAR three.sups
ENCODING -1
SWIDTH 584 0
DWIDTH 7 0
BBX 7 8 0 1
BITMAP
1140
7000
BA00
6800
3E80
7154
BFD0
5500
ENDCHAR
STARTCHAR four.sups
ENCODING -1
SWIDTH 620 0
DWIDTH 7 0
BBX 7 8 0 1
BITMAP
1144
A1C0
E1C0
F040
F550
BFC0
17E4
0190
ENDCHAR
ENDFONT
